Sriracha-Regular.ufo
<glyph name="exclam" format="1">
  <advance width="268"/>
  <unicode hex="0021"/>
  <outline>
    <contour>
      <point x="303" y="635" type="line" smooth="yes"/>
      <point x="309" y="661"/>
      <point x="284" y="676"/>
      <point x="245" y="676" type="curve" smooth="yes"/>
      <point x="206" y="676"/>
      <point x="181" y="660"/>
      <point x="174" y="627" type="curve" smooth="yes"/>
      <point x="136" y="455"/>
      <point x="75" y="258"/>
      <point x="75" y="198" type="curve" smooth="yes"/>
      <point x="75" y="172"/>
      <point x="94" y="159"/>
      <point x="131" y="159" type="curve" smooth="yes"/>
      <point x="176" y="159"/>
      <point x="189" y="170"/>
      <point x="197" y="206" type="curve" smooth="yes"/>
    </contour>
    <contour>
      <point x="138" y="-13"/>
      <point x="184" y="22"/>
      <point x="184" y="64" type="curve" smooth="yes"/>
      <point x="184" y="107"/>
      <point x="149" y="123"/>
      <point x="111" y="123" type="curve" smooth="yes"/>
      <point x="61" y="123"/>
      <point x="28" y="84"/>
      <point x="28" y="52" type="curve" smooth="yes"/>
      <point x="28" y="17"/>
      <point x="57" y="-13"/>
      <point x="92" y="-13" type="curve" smooth="yes"/>
    </contour>
  </outline>
</glyph>
<glyph name="quotedbl" format="1">
  <advance width="412"/>
  <unicode hex="0022"/>
  <outline>
    <contour>
      <point x="463" y="663"/>
      <point x="444" y="686"/>
      <point x="400" y="686" type="curve" smooth="yes"/>
      <point x="351" y="686"/>
      <point x="330" y="664"/>
      <point x="321" y="615" type="curve" smooth="yes"/>
      <point x="288" y="440" type="line"/>
      <point x="288" y="426" type="line" smooth="yes"/>
      <point x="288" y="401"/>
      <point x="293" y="388"/>
      <point x="330" y="388" type="curve" smooth="yes"/>
      <point x="370" y="388"/>
      <point x="390" y="404"/>
      <point x="398" y="435" type="curve" smooth="yes"/>
      <point x="413" y="494"/>
      <point x="455" y="590"/>
      <point x="463" y="631" type="curve"/>
    </contour>
    <contour>
      <point x="257" y="663"/>
      <point x="239" y="686"/>
      <point x="194" y="686" type="curve" smooth="yes"/>
      <point x="146" y="686"/>
      <point x="126" y="668"/>
      <point x="109" y="605" type="curve"/>
      <point x="78" y="440" type="line"/>
      <point x="78" y="426" type="line" smooth="yes"/>
      <point x="78" y="401"/>
      <point x="96" y="388"/>
      <point x="127" y="388" type="curve" smooth="yes"/>
      <point x="160" y="388"/>
      <point x="185" y="404"/>
      <point x="193" y="435" type="curve" smooth="yes"/>
      <point x="209" y="494"/>
      <point x="251" y="590"/>
      <point x="257" y="631" type="curve"/>
    </contour>
  </outline>
</glyph>
<glyph name="numbersign" format="1">
  <advance width="816"/>
  <unicode hex="0023"/>
  <outline>
    <contour>
      <point x="391" y="412" type="line"/>
      <point x="567" y="412" type="line"/>
      <point x="513" y="266" type="line"/>
      <point x="336" y="266" type="line"/>
    </contour>
    <contour>
      <point x="119" y="266" type="line" smooth="yes"/>
      <point x="75" y="266"/>
      <point x="49" y="241"/>
      <point x="49" y="213" type="curve" smooth="yes"/>
      <point x="49" y="180"/>
      <point x="72" y="164"/>
      <point x="111" y="164" type="curve" smooth="yes"/>
      <point x="163" y="164" type="line"/>
      <point x="141" y="114"/>
      <point x="121" y="53"/>
      <point x="121" y="31" type="curve" smooth="yes"/>
      <point x="121" y="3"/>
      <point x="146" y="-10"/>
      <point x="182" y="-10" type="curve" smooth="yes"/>
      <point x="235" y="-10"/>
      <point x="249" y="14"/>
      <point x="263" y="55" type="curve" smooth="yes"/>
      <point x="299" y="164" type="line"/>
      <point x="485" y="164" type="line"/>
      <point x="467" y="114"/>
      <point x="434" y="26"/>
      <point x="435" y="22" type="curve" smooth="yes"/>
      <point x="440" y="-1"/>
      <point x="460" y="-13"/>
      <point x="497" y="-13" type="curve" smooth="yes"/>
      <point x="578" y="-13"/>
      <point x="591" y="93"/>
      <point x="615" y="164" type="curve"/>
      <point x="743" y="164" type="line" smooth="yes"/>
      <point x="782" y="164"/>
      <point x="809" y="184"/>
      <point x="809" y="215" type="curve" smooth="yes"/>
      <point x="809" y="255"/>
      <point x="786" y="266"/>
      <point x="711" y="266" type="curve" smooth="yes"/>
      <point x="652" y="266" type="line"/>
      <point x="700" y="412" type="line"/>
      <point x="766" y="412" type="line" smooth="yes"/>
      <point x="806" y="412"/>
      <point x="865" y="415"/>
      <point x="865" y="464" type="curve" smooth="yes"/>
      <point x="865" y="496"/>
      <point x="844" y="512"/>
      <point x="795" y="512" type="curve" smooth="yes"/>
      <point x="735" y="512" type="line"/>
      <point x="763" y="586"/>
      <point x="776" y="623"/>
      <point x="776" y="641" type="curve" smooth="yes"/>
      <point x="776" y="668"/>
      <point x="754" y="682"/>
      <point x="713" y="682" type="curve" smooth="yes"/>
      <point x="681" y="682"/>
      <point x="654" y="656"/>
      <point x="643" y="624" type="curve" smooth="yes"/>
      <point x="629" y="583"/>
      <point x="609" y="532"/>
      <point x="602" y="512" type="curve"/>
      <point x="430" y="512" type="line"/>
      <point x="442" y="547" type="line" smooth="yes"/>
      <point x="452" y="578"/>
      <point x="469" y="610"/>
      <point x="469" y="640" type="curve" smooth="yes"/>
      <point x="469" y="667"/>
      <point x="443" y="682"/>
      <point x="411" y="682" type="curve" smooth="yes"/>
      <point x="372" y="682"/>
      <point x="350" y="667"/>
      <point x="340" y="637" type="curve" smooth="yes"/>
      <point x="311" y="550"/>
      <point x="301" y="528"/>
      <point x="295" y="512" type="curve"/>
      <point x="195" y="512" type="line" smooth="yes"/>
      <point x="131" y="512"/>
      <point x="107" y="498"/>
      <point x="107" y="467" type="curve" smooth="yes"/>
      <point x="107" y="430"/>
      <point x="129" y="412"/>
      <point x="171" y="412" type="curve" smooth="yes"/>
      <point x="258" y="412" type="line"/>
      <point x="235" y="361"/>
      <point x="223" y="317"/>
      <point x="204" y="266" type="curve"/>
    </contour>
  </outline>
</glyph>
<glyph name="dollar" format="1">
  <advance width="673"/>
  <unicode hex="0024"/>
  <outline>
    <contour>
      <point x="278" y="657"/>
      <point x="98" y="610"/>
      <point x="98" y="453" type="curve" smooth="yes"/>
      <point x="98" y="355"/>
      <point x="170" y="309"/>
      <point x="239" y="275" type="curve" smooth="yes"/>
      <point x="314" y="238"/>
      <point x="410" y="215"/>
      <point x="410" y="155" type="curve" smooth="yes"/>
      <point x="410" y="103"/>
      <point x="338" y="76"/>
      <point x="274" y="76" type="curve" smooth="yes"/>
      <point x="218" y="76"/>
      <point x="116" y="117"/>
      <point x="105" y="178" type="curve"/>
      <point x="44" y="168"/>
      <point x="9" y="145"/>
      <point x="9" y="107" type="curve" smooth="yes"/>
      <point x="9" y="12"/>
      <point x="189" y="-28"/>
      <point x="257" y="-28" type="curve" smooth="yes"/>
      <point x="434" y="-28"/>
      <point x="555" y="39"/>
      <point x="555" y="155" type="curve" smooth="yes"/>
      <point x="555" y="282"/>
      <point x="454" y="311"/>
      <point x="364" y="353" type="curve" smooth="yes"/>
      <point x="304" y="381"/>
      <point x="236" y="395"/>
      <point x="236" y="452" type="curve" smooth="yes"/>
      <point x="236" y="515"/>
      <point x="284" y="568"/>
      <point x="379" y="568" type="curve" smooth="yes"/>
      <point x="449" y="568"/>
      <point x="518" y="518"/>
      <point x="529" y="457" type="curve"/>
      <point x="590" y="467"/>
      <point x="625" y="490"/>
      <point x="625" y="528" type="curve" smooth="yes"/>
      <point x="625" y="639"/>
      <point x="450" y="657"/>
      <point x="374" y="657" type="curve" smooth="yes"/>
    </contour>
    <contour>
      <point x="479" y="787"/>
      <point x="444" y="811"/>
      <point x="414" y="811" type="curve" smooth="yes"/>
      <point x="397" y="811"/>
      <point x="361" y="802"/>
      <point x="356" y="782" type="curve"/>
      <point x="356" y="775"/>
      <point x="358" y="707"/>
      <point x="359" y="699" type="curve"/>
      <point x="328" y="550"/>
      <point x="261" y="285"/>
      <point x="214" y="110" type="curve" smooth="yes"/>
      <point x="203" y="68"/>
      <point x="153" y="-98"/>
      <point x="151" y="-103" type="curve"/>
      <point x="154" y="-150"/>
      <point x="169" y="-156"/>
      <point x="196" y="-156" type="curve" smooth="yes"/>
      <point x="232" y="-156"/>
      <point x="248" y="-134"/>
      <point x="261" y="-102" type="curve" smooth="yes"/>
      <point x="276" y="-64"/>
      <point x="447" y="588"/>
      <point x="481" y="753" type="curve"/>
    </contour>
  </outline>
</glyph>
<glyph name="percent" format="1">
  <advance width="880"/>
  <unicode hex="0025"/>
  <outline>
    <contour>
      <point x="722" y="630"/>
      <point x="727" y="637"/>
      <point x="727" y="652" type="curve" smooth="yes"/>
      <point x="727" y="677"/>
      <point x="705" y="694"/>
      <point x="673" y="694" type="curve" smooth="yes"/>
      <point x="626" y="694"/>
      <point x="520" y="550"/>
      <point x="437" y="433" type="curve" smooth="yes"/>
      <point x="348" y="306"/>
      <point x="155" y="61"/>
      <point x="155" y="29" type="curve" smooth="yes"/>
      <point x="155" y="5"/>
      <point x="178" y="-13"/>
      <point x="210" y="-13" type="curve" smooth="yes"/>
      <point x="269" y="-13"/>
      <point x="337" y="114"/>
      <point x="337" y="109" type="curve"/>
      <point x="659" y="550" type="line" smooth="yes"/>
      <point x="679" y="577"/>
      <point x="694" y="602"/>
      <point x="706" y="615" type="curve"/>
    </contour>
    <contour>
      <point x="324" y="304"/>
      <point x="382" y="439"/>
      <point x="382" y="544" type="curve" smooth="yes"/>
      <point x="382" y="627"/>
      <point x="331" y="671"/>
      <point x="257" y="671" type="curve" smooth="yes"/>
      <point x="129" y="671"/>
      <point x="47" y="573"/>
      <point x="47" y="456" type="curve" smooth="yes"/>
      <point x="47" y="365"/>
      <point x="84" y="304"/>
      <point x="182" y="304" type="curve" smooth="yes"/>
    </contour>
    <contour>
      <point x="168" y="394"/>
      <point x="155" y="412"/>
      <point x="155" y="448" type="curve" smooth="yes"/>
      <point x="155" y="498"/>
      <point x="183" y="573"/>
      <point x="232" y="573" type="curve" smooth="yes"/>
      <point x="263" y="573"/>
      <point x="279" y="553"/>
      <point x="279" y="531" type="curve" smooth="yes"/>
      <point x="279" y="470"/>
      <point x="244" y="394"/>
      <point x="191" y="394" type="curve" smooth="yes"/>
    </contour>
    <contour>
      <point x="772" y="-13"/>
      <point x="830" y="122"/>
      <point x="830" y="227" type="curve" smooth="yes"/>
      <point x="830" y="310"/>
      <point x="779" y="354"/>
      <point x="705" y="354" type="curve" smooth="yes"/>
      <point x="577" y="354"/>
      <point x="495" y="256"/>
      <point x="495" y="139" type="curve" smooth="yes"/>
      <point x="495" y="48"/>
      <point x="532" y="-13"/>
      <point x="630" y="-13" type="curve" smooth="yes"/>
    </contour>
    <contour>
      <point x="616" y="77"/>
      <point x="603" y="95"/>
      <point x="603" y="131" type="curve" smooth="yes"/>
      <point x="603" y="181"/>
      <point x="631" y="256"/>
      <point x="680" y="256" type="curve" smooth="yes"/>
      <point x="711" y="256"/>
      <point x="727" y="236"/>
      <point x="727" y="214" type="curve" smooth="yes"/>
      <point x="727" y="153"/>
      <point x="692" y="77"/>
      <point x="639" y="77" type="curve" smooth="yes"/>
    </contour>
  </outline>
</glyph>
<glyph name="ampersand" format="1">
  <advance width="634"/>
  <unicode hex="0026"/>
  <outline>
    <contour>
      <point x="466" y="589"/>
      <point x="466" y="582"/>
      <point x="466" y="573" type="curve" smooth="yes"/>
      <point x="466" y="547"/>
      <point x="443" y="496"/>
      <point x="413" y="482" type="curve"/>
      <point x="413" y="491" type="line" smooth="yes"/>
      <point x="413" y="535"/>
      <point x="438" y="586"/>
      <point x="465" y="592" type="curve"/>
    </contour>
    <contour>
      <point x="197" y="83"/>
      <point x="162" y="111"/>
      <point x="162" y="148" type="curve" smooth="yes"/>
      <point x="162" y="215"/>
      <point x="195" y="249"/>
      <point x="328" y="325" type="curve"/>
      <point x="332" y="311" type="line" smooth="yes"/>
      <point x="356" y="228"/>
      <point x="378" y="172"/>
      <point x="392" y="141" type="curve"/>
      <point x="345" y="102"/>
      <point x="296" y="83"/>
      <point x="245" y="83" type="curve" smooth="yes"/>
    </contour>
    <contour>
      <point x="371" y="678"/>
      <point x="295" y="575"/>
      <point x="295" y="469" type="curve" smooth="yes"/>
      <point x="295" y="453"/>
      <point x="297" y="438"/>
      <point x="300" y="423" type="curve"/>
      <point x="105" y="319"/>
      <point x="35" y="241"/>
      <point x="35" y="133" type="curve" smooth="yes"/>
      <point x="35" y="40"/>
      <point x="124" y="-18"/>
      <point x="228" y="-18" type="curve" smooth="yes"/>
      <point x="299" y="-18"/>
      <point x="368" y="4"/>
      <point x="435" y="48" type="curve"/>
      <point x="461" y="-11" type="line" smooth="yes"/>
      <point x="469" y="-30"/>
      <point x="480" y="-39"/>
      <point x="512" y="-39" type="curve" smooth="yes"/>
      <point x="543" y="-39"/>
      <point x="570" y="-23"/>
      <point x="570" y="8" type="curve" smooth="yes"/>
      <point x="570" y="26"/>
      <point x="555" y="67"/>
      <point x="526" y="130" type="curve"/>
      <point x="566" y="182"/>
      <point x="608" y="249"/>
      <point x="608" y="304" type="curve" smooth="yes"/>
      <point x="608" y="337"/>
      <point x="591" y="354"/>
      <point x="556" y="354" type="curve" smooth="yes"/>
      <point x="514" y="354"/>
      <point x="508" y="324"/>
      <point x="486" y="276" type="curve" smooth="yes"/>
      <point x="472" y="246" type="line"/>
      <point x="451" y="299"/>
      <point x="435" y="344"/>
      <point x="426" y="381" type="curve"/>
      <point x="521" y="442"/>
      <point x="588" y="518"/>
      <point x="588" y="585" type="curve" smooth="yes"/>
      <point x="588" y="644"/>
      <point x="550" y="678"/>
      <point x="479" y="678" type="curve" smooth="yes"/>
    </contour>
  </outline>
</glyph>
<glyph name="quotesingle" format="1">
  <advance width="375"/>
  <unicode hex="0027"/>
  <outline>
    <contour>
      <point x="316" y="663"/>
      <point x="297" y="686"/>
      <point x="253" y="686" type="curve" smooth="yes"/>
      <point x="204" y="686"/>
      <point x="183" y="664"/>
      <point x="174" y="615" type="curve" smooth="yes"/>
      <point x="141" y="440" type="line"/>
      <point x="141" y="426" type="line" smooth="yes"/>
      <point x="141" y="401"/>
      <point x="146" y="388"/>
      <point x="183" y="388" type="curve" smooth="yes"/>
      <point x="223" y="388"/>
      <point x="243" y="404"/>
      <point x="251" y="435" type="curve" smooth="yes"/>
      <point x="266" y="494"/>
      <point x="308" y="590"/>
      <point x="316" y="631" type="curve"/>
    </contour>
  </outline>
</glyph>
<glyph name="parenleft" format="1">
  <advance width="354"/>
  <unicode hex="0028"/>
  <outline>
    <contour>
      <point x="412" y="582" type="line" smooth="yes"/>
      <point x="449" y="614"/>
      <point x="469" y="625"/>
      <point x="473" y="650" type="curve"/>
      <point x="473" y="675"/>
      <point x="449" y="696"/>
      <point x="416" y="696" type="curve" smooth="yes"/>
      <point x="399" y="696"/>
      <point x="385" y="691"/>
      <point x="374" y="680" type="curve"/>
      <point x="158" y="561"/>
      <point x="52" y="250"/>
      <point x="53" y="85" type="curve" smooth="yes"/>
      <point x="53" y="-40"/>
      <point x="122" y="-181"/>
      <point x="223" y="-181" type="curve" smooth="yes"/>
      <point x="256" y="-181"/>
      <point x="293" y="-155"/>
      <point x="293" y="-126" type="curve"/>
      <point x="291" y="-113"/>
      <point x="282" y="-98"/>
      <point x="266" y="-83" type="curve" smooth="yes"/>
      <point x="218" y="-38"/>
      <point x="190" y="13"/>
      <point x="190" y="102" type="curve" smooth="yes"/>
      <point x="190" y="242"/>
      <point x="265" y="462"/>
      <point x="377" y="553" type="curve" smooth="yes"/>
    </contour>
  </outline>
</glyph>
<glyph name="parenright" format="1">
  <advance width="354"/>
  <unicode hex="0029"/>
  <outline>
    <contour>
      <point x="390" y="295"/>
      <point x="392" y="335"/>
      <point x="392" y="378" type="curve" smooth="yes"/>
      <point x="392" y="514"/>
      <point x="344" y="623"/>
      <point x="272" y="680" type="curve" smooth="yes"/>
      <point x="258" y="691"/>
      <point x="244" y="696"/>
      <point x="231" y="696" type="curve" smooth="yes"/>
      <point x="215" y="696"/>
      <point x="199" y="689"/>
      <point x="184" y="676" type="curve" smooth="yes"/>
      <point x="169" y="663"/>
      <point x="161" y="650"/>
      <point x="161" y="636" type="curve"/>
      <point x="163" y="623"/>
      <point x="170" y="609"/>
      <point x="183" y="594" type="curve" smooth="yes"/>
      <point x="228" y="541"/>
      <point x="256" y="488"/>
      <point x="256" y="375" type="curve" smooth="yes"/>
      <point x="256" y="186"/>
      <point x="169" y="25"/>
      <point x="76" y="-55" type="curve"/>
      <point x="27" y="-83"/>
      <point x="-17" y="-112"/>
      <point x="-17" y="-139" type="curve" smooth="yes"/>
      <point x="-17" y="-167"/>
      <point x="1" y="-181"/>
      <point x="36" y="-181" type="curve" smooth="yes"/>
      <point x="57" y="-181"/>
      <point x="68" y="-177"/>
      <point x="81" y="-172" type="curve"/>
      <point x="232" y="-101"/>
      <point x="332" y="40"/>
      <point x="381" y="252" type="curve" smooth="yes"/>
    </contour>
  </outline>
</glyph>
<glyph name="asterisk" format="1">
  <advance width="512"/>
  <unicode hex="002A"/>
  <outline>
    <contour>
      <point x="152" y="586"/>
      <point x="115" y="553"/>
      <point x="115" y="517" type="curve" smooth="yes"/>
      <point x="115" y="486"/>
      <point x="180" y="458"/>
      <point x="223" y="444" type="curve"/>
      <point x="147" y="378"/>
      <point x="112" y="363"/>
      <point x="112" y="334" type="curve" smooth="yes"/>
      <point x="112" y="303"/>
      <point x="136" y="285"/>
      <point x="168" y="285" type="curve" smooth="yes"/>
      <point x="195" y="285"/>
      <point x="239" y="326"/>
      <point x="307" y="389" type="curve"/>
      <point x="344" y="328"/>
      <point x="367" y="268"/>
      <point x="412" y="268" type="curve" smooth="yes"/>
      <point x="426" y="268"/>
      <point x="441" y="273"/>
      <point x="458" y="284" type="curve"/>
      <point x="475" y="296"/>
      <point x="483" y="311"/>
      <point x="483" y="328" type="curve" smooth="yes"/>
      <point x="483" y="347"/>
      <point x="433" y="409"/>
      <point x="405" y="448" type="curve"/>
      <point x="527" y="457"/>
      <point x="571" y="459"/>
      <point x="571" y="522" type="curve" smooth="yes"/>
      <point x="571" y="552"/>
      <point x="554" y="567"/>
      <point x="519" y="567" type="curve" smooth="yes"/>
      <point x="491" y="567"/>
      <point x="439" y="548"/>
      <point x="396" y="532" type="curve"/>
      <point x="404" y="568"/>
      <point x="420" y="607"/>
      <point x="420" y="624" type="curve" smooth="yes"/>
      <point x="420" y="651"/>
      <point x="397" y="668"/>
      <point x="364" y="668" type="curve" smooth="yes"/>
      <point x="289" y="668"/>
      <point x="309" y="622"/>
      <point x="290" y="537" type="curve"/>
      <point x="235" y="563"/>
      <point x="202" y="586"/>
      <point x="189" y="586" type="curve" smooth="yes"/>
    </contour>
  </outline>
</glyph>
<glyph name="plus" format="1">
  <advance width="611"/>
  <unicode hex="002B"/>
  <outline>
    <contour>
      <point x="582" y="347"/>
      <point x="545" y="351"/>
      <point x="494" y="351" type="curve" smooth="yes"/>
      <point x="481" y="351"/>
      <point x="390" y="341"/>
      <point x="361" y="338" type="curve"/>
      <point x="367" y="366"/>
      <point x="400" y="488"/>
      <point x="400" y="501" type="curve" smooth="yes"/>
      <point x="400" y="528"/>
      <point x="381" y="542"/>
      <point x="343" y="542" type="curve" smooth="yes"/>
      <point x="319" y="542"/>
      <point x="286" y="525"/>
      <point x="276" y="493" type="curve" smooth="yes"/>
      <point x="261" y="446"/>
      <point x="247" y="389"/>
      <point x="233" y="332" type="curve"/>
      <point x="112" y="322"/>
      <point x="81" y="317"/>
      <point x="57" y="314" type="curve" smooth="yes"/>
      <point x="18" y="309"/>
      <point x="-1" y="291"/>
      <point x="-1" y="256" type="curve" smooth="yes"/>
      <point x="-1" y="225"/>
      <point x="16" y="218"/>
      <point x="37" y="218" type="curve" smooth="yes"/>
      <point x="52" y="218"/>
      <point x="70" y="219"/>
      <point x="84" y="220" type="curve" smooth="yes"/>
      <point x="209" y="232" type="line"/>
      <point x="198" y="176"/>
      <point x="178" y="100"/>
      <point x="173" y="58" type="curve"/>
      <point x="173" y="54" type="line" smooth="yes"/>
      <point x="173" y="31"/>
      <point x="199" y="19"/>
      <point x="234" y="19" type="curve" smooth="yes"/>
      <point x="265" y="19"/>
      <point x="297" y="32"/>
      <point x="307" y="64" type="curve" smooth="yes"/>
      <point x="322" y="113"/>
      <point x="333" y="199"/>
      <point x="340" y="234" type="curve"/>
      <point x="512" y="250" type="line" smooth="yes"/>
      <point x="547" y="253"/>
      <point x="582" y="267"/>
      <point x="582" y="299" type="curve" smooth="yes"/>
    </contour>
  </outline>
</glyph>
<glyph name="comma" format="1">
  <advance width="269"/>
  <unicode hex="002C"/>
  <outline>
    <contour>
      <point x="14" y="-181"/>
      <point x="36" y="-171"/>
      <point x="50" y="-156" type="curve" smooth="yes"/>
      <point x="109" y="-91"/>
      <point x="171" y="-19"/>
      <point x="171" y="42" type="curve" smooth="yes"/>
      <point x="171" y="62"/>
      <point x="147" y="97"/>
      <point x="103" y="97" type="curve" smooth="yes"/>
      <point x="42" y="97"/>
      <point x="36" y="75"/>
      <point x="36" y="53" type="curve" smooth="yes"/>
      <point x="36" y="41"/>
      <point x="40" y="27"/>
      <point x="40" y="11" type="curve" smooth="yes"/>
      <point x="40" y="-52"/>
      <point x="-38" y="-96"/>
      <point x="-38" y="-160" type="curve" smooth="yes"/>
      <point x="-38" y="-170"/>
      <point x="-34" y="-181"/>
      <point x="-7" y="-181" type="curve" smooth="yes"/>
    </contour>
  </outline>
</glyph>
<glyph name="period" format="1">
  <advance width="302"/>
  <unicode hex="002E"/>
  <outline>
    <contour>
      <point x="155" y="-33"/>
      <point x="199" y="3"/>
      <point x="199" y="44" type="curve" smooth="yes"/>
      <point x="199" y="77"/>
      <point x="171" y="108"/>
      <point x="130" y="108" type="curve" smooth="yes"/>
      <point x="86" y="108"/>
      <point x="38" y="70"/>
      <point x="38" y="24" type="curve" smooth="yes"/>
      <point x="38" y="-7"/>
      <point x="70" y="-33"/>
      <point x="107" y="-33" type="curve" smooth="yes"/>
    </contour>
  </outline>
</glyph>
<glyph name="slash" format="1">
  <advance width="496"/>
  <unicode hex="002F"/>
  <outline>
    <contour>
      <point x="101" y="-36"/>
      <point x="148" y="27"/>
      <point x="200" y="98" type="curve" smooth="yes"/>
      <point x="427" y="406"/>
      <point x="473" y="461"/>
      <point x="507" y="510" type="curve" smooth="yes"/>
      <point x="585" y="622" type="line" smooth="yes"/>
      <point x="592" y="632"/>
      <point x="596" y="644"/>
      <point x="596" y="657" type="curve" smooth="yes"/>
      <point x="596" y="682"/>
      <point x="579" y="703"/>
      <point x="543" y="703" type="curve" smooth="yes"/>
      <point x="476" y="703"/>
      <point x="446" y="599"/>
      <point x="193" y="270" type="curve" smooth="yes"/>
      <point x="93" y="141"/>
      <point x="3" y="22"/>
      <point x="3" y="7" type="curve" smooth="yes"/>
      <point x="3" y="-21"/>
      <point x="27" y="-36"/>
      <point x="63" y="-36" type="curve" smooth="yes"/>
    </contour>
  </outline>
</glyph>
<glyph name="zero" format="1">
  <advance width="632"/>
  <unicode hex="0030"/>
  <outline>
    <contour>
      <point x="495" y="-21"/>
      <point x="591" y="229"/>
      <point x="591" y="422" type="curve" smooth="yes"/>
      <point x="591" y="575"/>
      <point x="524" y="656"/>
      <point x="399" y="656" type="curve" smooth="yes"/>
      <point x="184" y="656"/>
      <point x="85" y="492"/>
      <point x="47" y="293" type="curve" smooth="yes"/>
      <point x="42" y="269"/>
      <point x="40" y="246"/>
      <point x="40" y="223" type="curve" smooth="yes"/>
      <point x="40" y="91"/>
      <point x="115" y="-21"/>
      <point x="256" y="-21" type="curve" smooth="yes"/>
    </contour>
    <contour>
      <point x="196" y="74"/>
      <point x="165" y="121"/>
      <point x="165" y="216" type="curve" smooth="yes"/>
      <point x="165" y="348"/>
      <point x="252" y="548"/>
      <point x="369" y="548" type="curve" smooth="yes"/>
      <point x="444" y="548"/>
      <point x="463" y="494"/>
      <point x="463" y="435" type="curve" smooth="yes"/>
      <point x="463" y="273"/>
      <point x="380" y="74"/>
      <point x="253" y="74" type="curve" smooth="yes"/>
    </contour>
  </outline>
</glyph>
<glyph name="one" format="1">
  <advance width="429"/>
  <unicode hex="0031"/>
  <outline>
    <contour>
      <point x="135" y="-1"/>
      <point x="153" y="-12"/>
      <point x="192" y="-12" type="curve" smooth="yes"/>
      <point x="247" y="-12"/>
      <point x="261" y="24"/>
      <point x="270" y="61" type="curve" smooth="yes"/>
      <point x="299" y="179"/>
      <point x="370" y="452"/>
      <point x="392" y="572" type="curve" smooth="yes"/>
      <point x="393" y="578"/>
      <point x="394" y="582"/>
      <point x="394" y="586" type="curve" smooth="yes"/>
      <point x="394" y="596"/>
      <point x="391" y="601"/>
      <point x="391" y="603" type="curve" smooth="yes"/>
      <point x="391" y="637"/>
      <point x="356" y="666"/>
      <point x="327" y="666" type="curve" smooth="yes"/>
      <point x="320" y="666"/>
      <point x="313" y="664"/>
      <point x="307" y="660" type="curve"/>
      <point x="260" y="625"/>
      <point x="89" y="518"/>
      <point x="66" y="488" type="curve"/>
      <point x="65" y="487"/>
      <point x="65" y="486"/>
      <point x="65" y="484" type="curve" smooth="yes"/>
      <point x="65" y="468"/>
      <point x="109" y="434"/>
      <point x="139" y="434" type="curve" smooth="yes"/>
      <point x="155" y="434"/>
      <point x="216" y="470"/>
      <point x="252" y="497" type="curve"/>
      <point x="138" y="55" type="line" smooth="yes"/>
      <point x="136" y="48"/>
      <point x="135" y="41"/>
      <point x="135" y="34" type="curve" smooth="yes"/>
    </contour>
  </outline>
</glyph>
<glyph name="two" format="1">
  <advance width="577"/>
  <unicode hex="0032"/>
  <outline>
    <contour>
      <point x="417" y="433"/>
      <point x="289" y="362"/>
      <point x="94" y="180" type="curve" smooth="yes"/>
      <point x="51" y="140"/>
      <point x="17" y="101"/>
      <point x="17" y="53" type="curve" smooth="yes"/>
      <point x="17" y="12"/>
      <point x="49" y="-7"/>
      <point x="101" y="-7" type="curve" smooth="yes"/>
      <point x="196" y="-7"/>
      <point x="279" y="19"/>
      <point x="419" y="27" type="curve" smooth="yes"/>
      <point x="490" y="31"/>
      <point x="503" y="95"/>
      <point x="503" y="116" type="curve" smooth="yes"/>
      <point x="503" y="127"/>
      <point x="486" y="144"/>
      <point x="458" y="144" type="curve" smooth="yes"/>
      <point x="452" y="144"/>
      <point x="446" y="144"/>
      <point x="439" y="143" type="curve"/>
      <point x="361" y="135"/>
      <point x="216" y="106"/>
      <point x="169" y="95" type="curve"/>
      <point x="264" y="206"/>
      <point x="553" y="378"/>
      <point x="553" y="522" type="curve" smooth="yes"/>
      <point x="553" y="602"/>
      <point x="472" y="663"/>
      <point x="353" y="663" type="curve" smooth="yes"/>
      <point x="211" y="663"/>
      <point x="93" y="580"/>
      <point x="93" y="514" type="curve" smooth="yes"/>
      <point x="93" y="478"/>
      <point x="123" y="457"/>
      <point x="168" y="457" type="curve" smooth="yes"/>
      <point x="227" y="457"/>
      <point x="193" y="497"/>
      <point x="237" y="532" type="curve" smooth="yes"/>
      <point x="269" y="558"/>
      <point x="302" y="567"/>
      <point x="344" y="567" type="curve" smooth="yes"/>
      <point x="387" y="567"/>
      <point x="417" y="544"/>
      <point x="417" y="512" type="curve" smooth="yes"/>
    </contour>
  </outline>
</glyph>
<glyph name="three" format="1">
  <advance width="549"/>
  <unicode hex="0033"/>
  <outline>
    <contour>
      <point x="499" y="294"/>
      <point x="463" y="353"/>
      <point x="386" y="367" type="curve"/>
      <point x="470" y="396"/>
      <point x="527" y="461"/>
      <point x="527" y="522" type="curve" smooth="yes"/>
      <point x="527" y="607"/>
      <point x="463" y="663"/>
      <point x="349" y="663" type="curve" smooth="yes"/>
      <point x="210" y="663"/>
      <point x="86" y="580"/>
      <point x="86" y="514" type="curve" smooth="yes"/>
      <point x="86" y="476"/>
      <point x="105" y="457"/>
      <point x="148" y="457" type="curve" smooth="yes"/>
      <point x="207" y="457"/>
      <point x="172" y="497"/>
      <point x="219" y="532" type="curve" smooth="yes"/>
      <point x="253" y="558"/>
      <point x="291" y="569"/>
      <point x="333" y="569" type="curve" smooth="yes"/>
      <point x="375" y="569"/>
      <point x="409" y="550"/>
      <point x="409" y="520" type="curve"/>
      <point x="400" y="403"/>
      <point x="160" y="422"/>
      <point x="160" y="347" type="curve" smooth="yes"/>
      <point x="160" y="318"/>
      <point x="196" y="301"/>
      <point x="227" y="301" type="curve" smooth="yes"/>
      <point x="247" y="301"/>
      <point x="260" y="303"/>
      <point x="281" y="318" type="curve"/>
      <point x="343" y="309"/>
      <point x="379" y="273"/>
      <point x="379" y="228" type="curve" smooth="yes"/>
      <point x="379" y="161"/>
      <point x="309" y="81"/>
      <point x="202" y="81" type="curve" smooth="yes"/>
      <point x="139" y="81"/>
      <point x="104" y="147"/>
      <point x="59" y="147" type="curve" smooth="yes"/>
      <point x="27" y="147"/>
      <point x="6" y="131"/>
      <point x="6" y="100" type="curve" smooth="yes"/>
      <point x="6" y="33"/>
      <point x="102" y="-15"/>
      <point x="191" y="-15" type="curve" smooth="yes"/>
      <point x="341" y="-15"/>
      <point x="499" y="74"/>
      <point x="499" y="236" type="curve" smooth="yes"/>
    </contour>
  </outline>
</glyph>
<glyph name="four" format="1">
  <advance width="625"/>
  <unicode hex="0034"/>
  <outline>
    <contour>
      <point x="314" y="-18"/>
      <point x="346" y="-24"/>
      <point x="373" y="-24" type="curve" smooth="yes"/>
      <point x="409" y="-24"/>
      <point x="439" y="-5"/>
      <point x="439" y="30" type="curve"/>
      <point x="470" y="172" type="line"/>
      <point x="537" y="177" type="line"/>
      <point x="570" y="182"/>
      <point x="596" y="195"/>
      <point x="596" y="220" type="curve" smooth="yes"/>
      <point x="596" y="242"/>
      <point x="578" y="260"/>
      <point x="557" y="269" type="curve"/>
      <point x="489" y="263" type="line"/>
      <point x="514" y="378"/>
      <point x="542" y="497"/>
      <point x="575" y="619" type="curve"/>
      <point x="576" y="622"/>
      <point x="576" y="627"/>
      <point x="576" y="634" type="curve" smooth="yes"/>
      <point x="576" y="663"/>
      <point x="546" y="678"/>
      <point x="503" y="678" type="curve" smooth="yes"/>
      <point x="463" y="678"/>
      <point x="435" y="650"/>
      <point x="35" y="229" type="curve"/>
      <point x="24" y="216"/>
      <point x="18" y="202"/>
      <point x="18" y="193" type="curve" smooth="yes"/>
      <point x="18" y="148"/>
      <point x="49" y="140"/>
      <point x="84" y="140" type="curve" smooth="yes"/>
      <point x="116" y="140"/>
      <point x="244" y="152"/>
      <point x="339" y="160" type="curve"/>
      <point x="327" y="110"/>
      <point x="317" y="63"/>
      <point x="311" y="29" type="curve"/>
    </contour>
    <contour>
      <point x="421" y="483" type="line"/>
      <point x="404" y="427"/>
      <point x="381" y="341"/>
      <point x="360" y="254" type="curve"/>
      <point x="288" y="248"/>
      <point x="221" y="241"/>
      <point x="195" y="237" type="curve"/>
    </contour>
  </outline>
</glyph>
<glyph name="five" format="1">
  <advance width="611"/>
  <unicode hex="0035"/>
  <outline>
    <contour>
      <point x="177" y="74"/>
      <point x="110" y="137"/>
      <point x="78" y="137" type="curve" smooth="yes"/>
      <point x="48" y="137"/>
      <point x="26" y="119"/>
      <point x="26" y="94" type="curve" smooth="yes"/>
      <point x="26" y="24"/>
      <point x="132" y="-27"/>
      <point x="216" y="-27" type="curve" smooth="yes"/>
      <point x="400" y="-27"/>
      <point x="534" y="78"/>
      <point x="534" y="266" type="curve" smooth="yes"/>
      <point x="534" y="386"/>
      <point x="446" y="443"/>
      <point x="354" y="443" type="curve" smooth="yes"/>
      <point x="309" y="443"/>
      <point x="258" y="431"/>
      <point x="213" y="404" type="curve"/>
      <point x="230" y="452"/>
      <point x="241" y="498"/>
      <point x="253" y="535" type="curve"/>
      <point x="510" y="561" type="line" smooth="yes"/>
      <point x="580" y="568"/>
      <point x="580" y="601"/>
      <point x="580" y="622" type="curve" smooth="yes"/>
      <point x="580" y="650"/>
      <point x="556" y="669"/>
      <point x="526" y="669" type="curve" smooth="yes"/>
      <point x="523" y="669"/>
      <point x="498" y="667"/>
      <point x="480" y="665" type="curve" smooth="yes"/>
      <point x="243" y="645" type="line"/>
      <point x="233" y="645"/>
      <point x="222" y="647"/>
      <point x="212" y="647" type="curve" smooth="yes"/>
      <point x="149" y="647"/>
      <point x="141" y="620"/>
      <point x="141" y="562" type="curve" smooth="yes"/>
      <point x="141" y="542"/>
      <point x="119" y="464"/>
      <point x="74" y="330" type="curve" smooth="yes"/>
      <point x="71" y="320"/>
      <point x="70" y="314"/>
      <point x="70" y="309" type="curve" smooth="yes"/>
      <point x="70" y="268"/>
      <point x="108" y="253"/>
      <point x="142" y="253" type="curve" smooth="yes"/>
      <point x="163" y="253"/>
      <point x="201" y="340"/>
      <point x="306" y="340" type="curve" smooth="yes"/>
      <point x="378" y="340"/>
      <point x="409" y="308"/>
      <point x="409" y="256" type="curve" smooth="yes"/>
      <point x="409" y="143"/>
      <point x="327" y="74"/>
      <point x="224" y="74" type="curve" smooth="yes"/>
    </contour>
  </outline>
</glyph>
<glyph name="six" format="1">
  <advance width="568"/>
  <unicode hex="0036"/>
  <outline>
    <contour>
      <point x="398" y="-29"/>
      <point x="522" y="87"/>
      <point x="522" y="245" type="curve" smooth="yes"/>
      <point x="522" y="367"/>
      <point x="454" y="423"/>
      <point x="348" y="423" type="curve" smooth="yes"/>
      <point x="329" y="423"/>
      <point x="294" y="418"/>
      <point x="240" y="387" type="curve"/>
      <point x="344" y="523"/>
      <point x="480" y="588"/>
      <point x="480" y="629" type="curve" smooth="yes"/>
      <point x="480" y="657"/>
      <point x="452" y="673"/>
      <point x="417" y="673" type="curve" smooth="yes"/>
      <point x="402" y="673"/>
      <point x="381" y="663"/>
      <point x="356" y="644" type="curve" smooth="yes"/>
      <point x="170" y="498"/>
      <point x="17" y="343"/>
      <point x="17" y="150" type="curve" smooth="yes"/>
      <point x="17" y="31"/>
      <point x="98" y="-29"/>
      <point x="229" y="-29" type="curve" smooth="yes"/>
    </contour>
    <contour>
      <point x="203" y="299"/>
      <point x="255" y="328"/>
      <point x="296" y="328" type="curve" smooth="yes"/>
      <point x="348" y="328"/>
      <point x="389" y="291"/>
      <point x="389" y="242" type="curve" smooth="yes"/>
      <point x="389" y="133"/>
      <point x="308" y="69"/>
      <point x="233" y="69" type="curve" smooth="yes"/>
      <point x="180" y="69"/>
      <point x="148" y="102"/>
      <point x="148" y="169" type="curve" smooth="yes"/>
      <point x="148" y="200"/>
      <point x="156" y="235"/>
      <point x="174" y="274" type="curve"/>
    </contour>
  </outline>
</glyph>
<glyph name="seven" format="1">
  <advance width="571"/>
  <unicode hex="0037"/>
  <outline>
    <contour>
      <point x="319" y="402"/>
      <point x="95" y="87"/>
      <point x="95" y="24" type="curve" smooth="yes"/>
      <point x="95" y="-1"/>
      <point x="113" y="-20"/>
      <point x="155" y="-20" type="curve" smooth="yes"/>
      <point x="218" y="-20"/>
      <point x="253" y="108"/>
      <point x="391" y="293" type="curve" smooth="yes"/>
      <point x="536" y="489"/>
      <point x="591" y="542"/>
      <point x="597" y="556" type="curve"/>
      <point x="612" y="574"/>
      <point x="620" y="592"/>
      <point x="620" y="609" type="curve" smooth="yes"/>
      <point x="620" y="645"/>
      <point x="576" y="657"/>
      <point x="537" y="657" type="curve" smooth="yes"/>
      <point x="491" y="657" type="line" smooth="yes"/>
      <point x="420" y="657"/>
      <point x="220" y="637"/>
      <point x="114" y="623" type="curve"/>
      <point x="86" y="610"/>
      <point x="76" y="594"/>
      <point x="76" y="577" type="curve" smooth="yes"/>
      <point x="76" y="557"/>
      <point x="87" y="517"/>
      <point x="107" y="501" type="curve"/>
      <point x="206" y="531"/>
      <point x="388" y="540"/>
      <point x="441" y="543" type="curve"/>
    </contour>
  </outline>
</glyph>
<glyph name="eight" format="1">
  <advance width="603"/>
  <unicode hex="0038"/>
  <outline>
    <contour>
      <point x="436" y="-23"/>
      <point x="550" y="47"/>
      <point x="550" y="209" type="curve" smooth="yes"/>
      <point x="550" y="265"/>
      <point x="509" y="309"/>
      <point x="445" y="342" type="curve"/>
      <point x="527" y="382"/>
      <point x="583" y="449"/>
      <point x="583" y="533" type="curve" smooth="yes"/>
      <point x="583" y="622"/>
      <point x="508" y="670"/>
      <point x="383" y="670" type="curve" smooth="yes"/>
      <point x="243" y="670"/>
      <point x="115" y="599"/>
      <point x="115" y="469" type="curve" smooth="yes"/>
      <point x="115" y="438"/>
      <point x="145" y="367"/>
      <point x="191" y="347" type="curve"/>
      <point x="86" y="315"/>
      <point x="15" y="245"/>
      <point x="15" y="140" type="curve" smooth="yes"/>
      <point x="15" y="49"/>
      <point x="102" y="-23"/>
      <point x="238" y="-23" type="curve" smooth="yes"/>
    </contour>
    <contour>
      <point x="420" y="571"/>
      <point x="444" y="544"/>
      <point x="444" y="512" type="curve" smooth="yes"/>
      <point x="444" y="463"/>
      <point x="399" y="413"/>
      <point x="338" y="392" type="curve"/>
      <point x="293" y="406"/>
      <point x="247" y="430"/>
      <point x="247" y="471" type="curve" smooth="yes"/>
      <point x="247" y="538"/>
      <point x="312" y="571"/>
      <point x="376" y="571" type="curve" smooth="yes"/>
    </contour>
    <contour>
      <point x="407" y="121"/>
      <point x="338" y="79"/>
      <point x="254" y="79" type="curve" smooth="yes"/>
      <point x="202" y="79"/>
      <point x="157" y="100"/>
      <point x="157" y="141" type="curve" smooth="yes"/>
      <point x="157" y="217"/>
      <point x="214" y="283"/>
      <point x="310" y="299" type="curve"/>
      <point x="374" y="277"/>
      <point x="407" y="239"/>
      <point x="407" y="202" type="curve" smooth="yes"/>
    </contour>
  </outline>
</glyph>
<glyph name="nine" format="1">
  <advance width="614"/>
  <unicode hex="0039"/>
  <outline>
    <contour>
      <point x="373" y="-34"/>
      <point x="576" y="194"/>
      <point x="576" y="441" type="curve" smooth="yes"/>
      <point x="576" y="547"/>
      <point x="532" y="668"/>
      <point x="362" y="668" type="curve" smooth="yes"/>
      <point x="206" y="668"/>
      <point x="81" y="578"/>
      <point x="81" y="411" type="curve" smooth="yes"/>
      <point x="81" y="278"/>
      <point x="195" y="208"/>
      <point x="289" y="208" type="curve" smooth="yes"/>
      <point x="310" y="208"/>
      <point x="357" y="211"/>
      <point x="405" y="242" type="curve"/>
      <point x="324" y="108"/>
      <point x="199" y="59"/>
      <point x="100" y="48" type="curve" smooth="yes"/>
      <point x="64" y="44"/>
      <point x="43" y="28"/>
      <point x="43" y="2" type="curve" smooth="yes"/>
      <point x="43" y="-25"/>
      <point x="83" y="-34"/>
      <point x="120" y="-34" type="curve" smooth="yes"/>
    </contour>
    <contour>
      <point x="427" y="568"/>
      <point x="452" y="517"/>
      <point x="452" y="462" type="curve" smooth="yes"/>
      <point x="452" y="357"/>
      <point x="381" y="312"/>
      <point x="312" y="312" type="curve" smooth="yes"/>
      <point x="252" y="312"/>
      <point x="205" y="356"/>
      <point x="205" y="405" type="curve" smooth="yes"/>
      <point x="205" y="511"/>
      <point x="270" y="568"/>
      <point x="360" y="568" type="curve" smooth="yes"/>
    </contour>
  </outline>
</glyph>
<glyph name="colon" format="1">
  <advance width="302"/>
  <unicode hex="003A"/>
  <outline>
    <contour>
      <point x="135" y="-10"/>
      <point x="179" y="26"/>
      <point x="179" y="67" type="curve" smooth="yes"/>
      <point x="179" y="100"/>
      <point x="151" y="131"/>
      <point x="110" y="131" type="curve" smooth="yes"/>
      <point x="66" y="131"/>
      <point x="18" y="93"/>
      <point x="18" y="47" type="curve" smooth="yes"/>
      <point x="18" y="16"/>
      <point x="50" y="-10"/>
      <point x="87" y="-10" type="curve" smooth="yes"/>
    </contour>
    <contour>
      <point x="220" y="330"/>
      <point x="264" y="366"/>
      <point x="264" y="407" type="curve" smooth="yes"/>
      <point x="264" y="440"/>
      <point x="236" y="471"/>
      <point x="195" y="471" type="curve" smooth="yes"/>
      <point x="151" y="471"/>
      <point x="103" y="433"/>
      <point x="103" y="387" type="curve" smooth="yes"/>
      <point x="103" y="356"/>
      <point x="135" y="330"/>
      <point x="172" y="330" type="curve" smooth="yes"/>
    </contour>
  </outline>
</glyph>
<glyph name="semicolon" format="1">
  <advance width="302"/>
  <unicode hex="003B"/>
  <outline>
    <contour>
      <point x="14" y="-181"/>
      <point x="36" y="-171"/>
      <point x="50" y="-156" type="curve" smooth="yes"/>
      <point x="109" y="-91"/>
      <point x="171" y="-19"/>
      <point x="171" y="42" type="curve" smooth="yes"/>
      <point x="171" y="62"/>
      <point x="147" y="97"/>
      <point x="103" y="97" type="curve" smooth="yes"/>
      <point x="42" y="97"/>
      <point x="36" y="75"/>
      <point x="36" y="53" type="curve" smooth="yes"/>
      <point x="36" y="41"/>
      <point x="40" y="27"/>
      <point x="40" y="11" type="curve" smooth="yes"/>
      <point x="40" y="-52"/>
      <point x="-38" y="-96"/>
      <point x="-38" y="-160" type="curve" smooth="yes"/>
      <point x="-38" y="-170"/>
      <point x="-34" y="-181"/>
      <point x="-7" y="-181" type="curve" smooth="yes"/>
    </contour>
    <contour>
      <point x="220" y="330"/>
      <point x="264" y="366"/>
      <point x="264" y="407" type="curve" smooth="yes"/>
      <point x="264" y="440"/>
      <point x="236" y="471"/>
      <point x="195" y="471" type="curve" smooth="yes"/>
      <point x="151" y="471"/>
      <point x="103" y="433"/>
      <point x="103" y="387" type="curve" smooth="yes"/>
      <point x="103" y="356"/>
      <point x="135" y="330"/>
      <point x="172" y="330" type="curve" smooth="yes"/>
    </contour>
  </outline>
</glyph>
<glyph name="less" format="1">
  <advance width="424"/>
  <unicode hex="003C"/>
  <outline>
    <contour>
      <point x="446" y="459"/>
      <point x="409" y="472"/>
      <point x="374" y="472" type="curve" smooth="yes"/>
      <point x="339" y="472"/>
      <point x="333" y="469"/>
      <point x="205" y="379" type="curve" smooth="yes"/>
      <point x="107" y="311"/>
      <point x="42" y="290"/>
      <point x="42" y="250" type="curve" smooth="yes"/>
      <point x="42" y="204"/>
      <point x="248" y="78"/>
      <point x="277" y="78" type="curve" smooth="yes"/>
      <point x="316" y="78"/>
      <point x="353" y="108"/>
      <point x="353" y="141" type="curve" smooth="yes"/>
      <point x="353" y="158"/>
      <point x="248" y="200"/>
      <point x="187" y="253" type="curve"/>
      <point x="295" y="319"/>
      <point x="446" y="398"/>
      <point x="446" y="428" type="curve" smooth="yes"/>
    </contour>
  </outline>
</glyph>
<glyph name="equal" format="1">
  <advance width="494"/>
  <unicode hex="003D"/>
  <outline>
    <contour>
      <point x="183" y="419" type="line" smooth="yes"/>
      <point x="88" y="411"/>
      <point x="56" y="396"/>
      <point x="56" y="353" type="curve" smooth="yes"/>
      <point x="56" y="345" type="line"/>
      <point x="59" y="323"/>
      <point x="74" y="308"/>
      <point x="105" y="308" type="curve" smooth="yes"/>
      <point x="109" y="308"/>
      <point x="113" y="309"/>
      <point x="117" y="309" type="curve" smooth="yes"/>
      <point x="125" y="309"/>
      <point x="135" y="312"/>
      <point x="148" y="314" type="curve"/>
      <point x="388" y="336" type="line" smooth="yes"/>
      <point x="425" y="340"/>
      <point x="454" y="358"/>
      <point x="454" y="393" type="curve" smooth="yes"/>
      <point x="454" y="400" type="line"/>
      <point x="451" y="425"/>
      <point x="435" y="437"/>
      <point x="404" y="437" type="curve" smooth="yes"/>
      <point x="393" y="437" type="line"/>
    </contour>
    <contour>
      <point x="145" y="203" type="line" smooth="yes"/>
      <point x="96" y="198"/>
      <point x="30" y="186"/>
      <point x="30" y="132" type="curve" smooth="yes"/>
      <point x="30" y="125" type="line"/>
      <point x="32" y="103"/>
      <point x="48" y="92"/>
      <point x="78" y="92" type="curve" smooth="yes"/>
      <point x="83" y="92"/>
      <point x="88" y="92"/>
      <point x="93" y="93" type="curve"/>
      <point x="110" y="94"/>
      <point x="152" y="102"/>
      <point x="172" y="104" type="curve" smooth="yes"/>
      <point x="214" y="108"/>
      <point x="304" y="113"/>
      <point x="341" y="116" type="curve"/>
      <point x="344" y="116"/>
      <point x="348" y="117"/>
      <point x="350" y="117" type="curve"/>
      <point x="389" y="121"/>
      <point x="415" y="141"/>
      <point x="415" y="179" type="curve" smooth="yes"/>
      <point x="415" y="187" type="line"/>
      <point x="412" y="209"/>
      <point x="397" y="220"/>
      <point x="368" y="220" type="curve" smooth="yes"/>
      <point x="357" y="220" type="line"/>
      <point x="324" y="216"/>
      <point x="211" y="209"/>
      <point x="181" y="206" type="curve" smooth="yes"/>
    </contour>
  </outline>
</glyph>
<glyph name="greater" format="1">
  <advance width="424"/>
  <unicode hex="003E"/>
  <outline>
    <contour>
      <point x="469" y="293"/>
      <point x="455" y="306"/>
      <point x="430" y="318" type="curve"/>
      <point x="384" y="353"/>
      <point x="306" y="399"/>
      <point x="240" y="454" type="curve" smooth="yes"/>
      <point x="220" y="471"/>
      <point x="191" y="478"/>
      <point x="174" y="478" type="curve" smooth="yes"/>
      <point x="137" y="478"/>
      <point x="111" y="451"/>
      <point x="111" y="426" type="curve" smooth="yes"/>
      <point x="111" y="397"/>
      <point x="245" y="315"/>
      <point x="309" y="278" type="curve"/>
      <point x="41" y="147" type="line" smooth="yes"/>
      <point x="15" y="135"/>
      <point x="1" y="116"/>
      <point x="1" y="101" type="curve" smooth="yes"/>
      <point x="1" y="76"/>
      <point x="21" y="64"/>
      <point x="66" y="64" type="curve" smooth="yes"/>
      <point x="77" y="64"/>
      <point x="97" y="65"/>
      <point x="107" y="73" type="curve"/>
      <point x="216" y="119"/>
      <point x="454" y="227"/>
      <point x="469" y="274" type="curve"/>
    </contour>
  </outline>
</glyph>
<glyph name="question" format="1">
  <advance width="503"/>
  <unicode hex="003F"/>
  <outline>
    <contour>
      <point x="283" y="140"/>
      <point x="314" y="184"/>
      <point x="314" y="198" type="curve" smooth="yes"/>
      <point x="314" y="202"/>
      <point x="313" y="204"/>
      <point x="310" y="204" type="curve"/>
      <point x="260" y="206"/>
      <point x="251" y="217"/>
      <point x="251" y="234" type="curve" smooth="yes"/>
      <point x="251" y="253"/>
      <point x="288" y="281"/>
      <point x="316" y="300" type="curve" smooth="yes"/>
      <point x="427" y="374" type="line" smooth="yes"/>
      <point x="481" y="410"/>
      <point x="535" y="461"/>
      <point x="535" y="514" type="curve" smooth="yes"/>
      <point x="535" y="583"/>
      <point x="445" y="624"/>
      <point x="341" y="624" type="curve" smooth="yes"/>
      <point x="242" y="624"/>
      <point x="143" y="584"/>
      <point x="143" y="545" type="curve" smooth="yes"/>
      <point x="143" y="516"/>
      <point x="170" y="481"/>
      <point x="207" y="481" type="curve" smooth="yes"/>
      <point x="264" y="481"/>
      <point x="253" y="532"/>
      <point x="345" y="532" type="curve" smooth="yes"/>
      <point x="372" y="532"/>
      <point x="399" y="518"/>
      <point x="399" y="502" type="curve" smooth="yes"/>
      <point x="399" y="473"/>
      <point x="382" y="461"/>
      <point x="366" y="449" type="curve"/>
      <point x="229" y="359" type="line" smooth="yes"/>
      <point x="168" y="319"/>
      <point x="132" y="279"/>
      <point x="132" y="231" type="curve" smooth="yes"/>
      <point x="132" y="167"/>
      <point x="180" y="140"/>
      <point x="234" y="140" type="curve" smooth="yes"/>
    </contour>
    <contour>
      <point x="266" y="63"/>
      <point x="236" y="82"/>
      <point x="190" y="82" type="curve" smooth="yes"/>
      <point x="145" y="82"/>
      <point x="111" y="45"/>
      <point x="111" y="17" type="curve" smooth="yes"/>
      <point x="111" y="-15"/>
      <point x="151" y="-39"/>
      <point x="187" y="-39" type="curve" smooth="yes"/>
      <point x="229" y="-39"/>
      <point x="266" y="-7"/>
      <point x="266" y="22" type="curve" smooth="yes"/>
    </contour>
  </outline>
</glyph>
<glyph name="at" format="1">
  <advance width="768"/>
  <unicode hex="0040"/>
  <outline>
    <contour>
      <point x="740" y="525"/>
      <point x="579" y="582"/>
      <point x="437" y="582" type="curve" smooth="yes"/>
      <point x="206" y="582"/>
      <point x="28" y="424"/>
      <point x="28" y="224" type="curve" smooth="yes"/>
      <point x="28" y="31"/>
      <point x="169" y="-64"/>
      <point x="374" y="-64" type="curve" smooth="yes"/>
      <point x="414" y="-64"/>
      <point x="554" y="-56"/>
      <point x="579" y="-14" type="curve" smooth="yes"/>
      <point x="584" y="-5"/>
      <point x="586" y="9"/>
      <point x="586" y="24" type="curve" smooth="yes"/>
      <point x="586" y="38"/>
      <point x="583" y="54"/>
      <point x="572" y="54" type="curve" smooth="yes"/>
      <point x="571" y="54"/>
      <point x="569" y="53"/>
      <point x="568" y="53" type="curve"/>
      <point x="510" y="35"/>
      <point x="451" y="19"/>
      <point x="398" y="19" type="curve" smooth="yes"/>
      <point x="212" y="19"/>
      <point x="131" y="98"/>
      <point x="131" y="218" type="curve" smooth="yes"/>
      <point x="131" y="395"/>
      <point x="298" y="500"/>
      <point x="437" y="500" type="curve" smooth="yes"/>
      <point x="520" y="500"/>
      <point x="642" y="461"/>
      <point x="642" y="321" type="curve" smooth="yes"/>
      <point x="642" y="251"/>
      <point x="600" y="161"/>
      <point x="527" y="161" type="curve" smooth="yes"/>
      <point x="514" y="161"/>
      <point x="501" y="191"/>
      <point x="501" y="211" type="curve" smooth="yes"/>
      <point x="501" y="260"/>
      <point x="532" y="350"/>
      <point x="532" y="369" type="curve" smooth="yes"/>
      <point x="532" y="417"/>
      <point x="435" y="425"/>
      <point x="414" y="425" type="curve" smooth="yes"/>
      <point x="317" y="425"/>
      <point x="205" y="294"/>
      <point x="205" y="197" type="curve" smooth="yes"/>
      <point x="205" y="129"/>
      <point x="264" y="98"/>
      <point x="312" y="98" type="curve" smooth="yes"/>
      <point x="386" y="98"/>
      <point x="428" y="171"/>
      <point x="428" y="169" type="curve" smooth="yes"/>
      <point x="428" y="127"/>
      <point x="453" y="81"/>
      <point x="515" y="81" type="curve" smooth="yes"/>
      <point x="636" y="81"/>
      <point x="740" y="178"/>
      <point x="740" y="321" type="curve" smooth="yes"/>
    </contour>
    <contour>
      <point x="420" y="279"/>
      <point x="370" y="201"/>
      <point x="322" y="170" type="curve"/>
      <point x="307" y="170"/>
      <point x="298" y="180"/>
      <point x="298" y="203" type="curve" smooth="yes"/>
      <point x="298" y="247"/>
      <point x="360" y="347"/>
      <point x="402" y="347" type="curve" smooth="yes"/>
      <point x="415" y="347"/>
      <point x="421" y="341"/>
      <point x="421" y="316" type="curve" smooth="yes"/>
    </contour>
  </outline>
</glyph>
<glyph name="H" format="1">
  <advance width="708"/>
  <unicode hex="0048"/>
  <outline>
    <contour>
      <point x="451" y="159"/>
      <point x="418" y="30"/>
      <point x="418" y="21" type="curve" smooth="yes"/>
      <point x="418" y="-6"/>
      <point x="446" y="-22"/>
      <point x="510" y="-22" type="curve" smooth="yes"/>
      <point x="536" y="-22"/>
      <point x="548" y="9"/>
      <point x="554" y="33" type="curve" smooth="yes"/>
      <point x="575" y="125"/>
      <point x="594" y="225"/>
      <point x="615" y="299" type="curve"/>
      <point x="643" y="308"/>
      <point x="677" y="323"/>
      <point x="677" y="348" type="curve" smooth="yes"/>
      <point x="677" y="370"/>
      <point x="659" y="385"/>
      <point x="638" y="394" type="curve"/>
      <point x="675" y="540"/>
      <point x="669" y="566"/>
      <point x="696" y="643" type="curve"/>
      <point x="691" y="655"/>
      <point x="683" y="659"/>
      <point x="632" y="668" type="curve"/>
      <point x="592" y="660"/>
      <point x="570" y="637"/>
      <point x="557" y="583" type="curve" smooth="yes"/>
      <point x="511" y="397" type="line"/>
      <point x="441" y="391"/>
      <point x="335" y="377"/>
      <point x="230" y="356" type="curve"/>
      <point x="269" y="526"/>
      <point x="300" y="637"/>
      <point x="300" y="644" type="curve"/>
      <point x="298" y="661"/>
      <point x="259" y="668"/>
      <point x="227" y="668" type="curve" smooth="yes"/>
      <point x="181" y="668"/>
      <point x="172" y="651"/>
      <point x="158" y="595" type="curve" smooth="yes"/>
      <point x="21" y="54" type="line" smooth="yes"/>
      <point x="19" y="47"/>
      <point x="18" y="40"/>
      <point x="18" y="33" type="curve" smooth="yes"/>
      <point x="18" y="-2"/>
      <point x="39" y="-13"/>
      <point x="78" y="-13" type="curve" smooth="yes"/>
      <point x="133" y="-13"/>
      <point x="143" y="-1"/>
      <point x="152" y="36" type="curve" smooth="yes"/>
      <point x="206" y="250" type="line"/>
      <point x="289" y="268"/>
      <point x="420" y="284"/>
      <point x="485" y="292" type="curve"/>
    </contour>
  </outline>
</glyph>
<glyph name="J" format="1">
  <advance width="469"/>
  <unicode hex="004A"/>
  <outline>
    <contour>
      <point x="374" y="666"/>
      <point x="341" y="661"/>
      <point x="236" y="640" type="curve"/>
      <point x="215" y="631"/>
      <point x="197" y="616"/>
      <point x="197" y="594" type="curve" smooth="yes"/>
      <point x="197" y="569"/>
      <point x="210" y="547"/>
      <point x="238" y="538" type="curve"/>
      <point x="257" y="542"/>
      <point x="310" y="552"/>
      <point x="345" y="558" type="curve"/>
      <point x="248" y="183" type="line" smooth="yes"/>
      <point x="226" y="99"/>
      <point x="184" y="85"/>
      <point x="158" y="85" type="curve" smooth="yes"/>
      <point x="114" y="85"/>
      <point x="80" y="100"/>
      <point x="79" y="168" type="curve"/>
      <point x="79" y="188"/>
      <point x="112" y="213"/>
      <point x="112" y="233" type="curve" smooth="yes"/>
      <point x="112" y="253"/>
      <point x="85" y="267"/>
      <point x="37" y="267" type="curve" smooth="yes"/>
      <point x="-13" y="267"/>
      <point x="-28" y="230"/>
      <point x="-28" y="156" type="curve" smooth="yes"/>
      <point x="-28" y="97"/>
      <point x="4" y="-12"/>
      <point x="163" y="-12" type="curve" smooth="yes"/>
      <point x="289" y="-12"/>
      <point x="357" y="65"/>
      <point x="380" y="153" type="curve" smooth="yes"/>
      <point x="407" y="258"/>
      <point x="494" y="606"/>
      <point x="494" y="644" type="curve"/>
      <point x="491" y="661"/>
      <point x="456" y="668"/>
      <point x="424" y="668" type="curve"/>
    </contour>
  </outline>
</glyph>
<glyph name="K" format="1">
  <advance width="608"/>
  <unicode hex="004B"/>
  <outline>
    <contour>
      <point x="206" y="219"/>
      <point x="371" y="28"/>
      <point x="439" y="-1" type="curve" smooth="yes"/>
      <point x="448" y="-5"/>
      <point x="459" y="-6"/>
      <point x="471" y="-6" type="curve" smooth="yes"/>
      <point x="501" y="-6"/>
      <point x="505" y="4"/>
      <point x="540" y="11" type="curve" smooth="yes"/>
      <point x="552" y="13"/>
      <point x="557" y="20"/>
      <point x="557" y="28" type="curve" smooth="yes"/>
      <point x="557" y="51"/>
      <point x="529" y="85"/>
      <point x="513" y="87" type="curve" smooth="yes"/>
      <point x="503" y="88" type="line"/>
      <point x="479" y="87"/>
      <point x="343" y="247"/>
      <point x="323" y="312" type="curve"/>
      <point x="343" y="351"/>
      <point x="516" y="505"/>
      <point x="578" y="532" type="curve"/>
      <point x="578" y="532"/>
      <point x="637" y="557"/>
      <point x="647" y="569" type="curve"/>
      <point x="650" y="572"/>
      <point x="651" y="577"/>
      <point x="651" y="583" type="curve" smooth="yes"/>
      <point x="651" y="598"/>
      <point x="642" y="619"/>
      <point x="634" y="635" type="curve"/>
      <point x="624" y="657"/>
      <point x="581" y="658"/>
      <point x="580" y="658" type="curve"/>
      <point x="476" y="639"/>
      <point x="202" y="364"/>
      <point x="203" y="317" type="curve" smooth="yes"/>
    </contour>
    <contour>
      <point x="274" y="633"/>
      <point x="228" y="663"/>
      <point x="195" y="663" type="curve" smooth="yes"/>
      <point x="176" y="663"/>
      <point x="136" y="652"/>
      <point x="130" y="626" type="curve"/>
      <point x="130" y="617"/>
      <point x="133" y="530"/>
      <point x="133" y="520" type="curve"/>
      <point x="12" y="54" type="line" smooth="yes"/>
      <point x="10" y="47"/>
      <point x="9" y="40"/>
      <point x="9" y="33" type="curve" smooth="yes"/>
      <point x="9" y="-2"/>
      <point x="30" y="-13"/>
      <point x="69" y="-13" type="curve" smooth="yes"/>
      <point x="124" y="-13"/>
      <point x="136" y="-1"/>
      <point x="145" y="36" type="curve" smooth="yes"/>
      <point x="171" y="141"/>
      <point x="276" y="551"/>
      <point x="276" y="589" type="curve"/>
    </contour>
  </outline>
</glyph>
<glyph name="O" format="1">
  <advance width="648"/>
  <unicode hex="004F"/>
  <outline>
    <contour>
      <point x="469" y="-21"/>
      <point x="611" y="200"/>
      <point x="611" y="393" type="curve" smooth="yes"/>
      <point x="611" y="585"/>
      <point x="516" y="670"/>
      <point x="386" y="670" type="curve" smooth="yes"/>
      <point x="171" y="670"/>
      <point x="19" y="484"/>
      <point x="19" y="265" type="curve" smooth="yes"/>
      <point x="19" y="97"/>
      <point x="92" y="-21"/>
      <point x="256" y="-21" type="curve" smooth="yes"/>
    </contour>
    <contour>
      <point x="213" y="69"/>
      <point x="155" y="123"/>
      <point x="155" y="218" type="curve" smooth="yes"/>
      <point x="155" y="366"/>
      <point x="236" y="569"/>
      <point x="370" y="569" type="curve" smooth="yes"/>
      <point x="448" y="569"/>
      <point x="472" y="527"/>
      <point x="472" y="440" type="curve" smooth="yes"/>
      <point x="472" y="259"/>
      <point x="370" y="69"/>
      <point x="270" y="69" type="curve" smooth="yes"/>
    </contour>
  </outline>
</glyph>
<glyph name="P" format="1">
  <advance width="607"/>
  <unicode hex="0050"/>
  <outline>
    <contour>
      <point x="50" y="526"/>
      <point x="58" y="497"/>
      <point x="74" y="480" type="curve"/>
      <point x="90" y="495"/>
      <point x="116" y="510"/>
      <point x="153" y="521" type="curve"/>
      <point x="32" y="54" type="line" smooth="yes"/>
      <point x="30" y="47"/>
      <point x="29" y="40"/>
      <point x="29" y="33" type="curve" smooth="yes"/>
      <point x="29" y="-2"/>
      <point x="50" y="-13"/>
      <point x="89" y="-13" type="curve" smooth="yes"/>
      <point x="144" y="-13"/>
      <point x="158" y="23"/>
      <point x="167" y="60" type="curve" smooth="yes"/>
      <point x="175" y="93"/>
      <point x="187" y="135"/>
      <point x="201" y="187" type="curve"/>
      <point x="214" y="186"/>
      <point x="228" y="186"/>
      <point x="242" y="186" type="curve" smooth="yes"/>
      <point x="375" y="186"/>
      <point x="557" y="218"/>
      <point x="592" y="420" type="curve" smooth="yes"/>
      <point x="594" y="434"/>
      <point x="595" y="441"/>
      <point x="595" y="453" type="curve" smooth="yes"/>
      <point x="595" y="571"/>
      <point x="520" y="664"/>
      <point x="386" y="664" type="curve" smooth="yes"/>
      <point x="358" y="664"/>
      <point x="328" y="662"/>
      <point x="297" y="652" type="curve"/>
      <point x="292" y="663"/>
      <point x="279" y="675"/>
      <point x="254" y="675" type="curve" smooth="yes"/>
      <point x="213" y="675"/>
      <point x="190" y="653"/>
      <point x="179" y="629" type="curve"/>
      <point x="146" y="620"/>
      <point x="113" y="603"/>
      <point x="82" y="588" type="curve" smooth="yes"/>
      <point x="66" y="580"/>
      <point x="50" y="570"/>
      <point x="50" y="550" type="curve" smooth="yes"/>
    </contour>
    <contour>
      <point x="241" y="365"/>
      <point x="272" y="492"/>
      <point x="286" y="548" type="curve"/>
      <point x="313" y="556"/>
      <point x="339" y="562"/>
      <point x="363" y="562" type="curve" smooth="yes"/>
      <point x="435" y="562"/>
      <point x="481" y="527"/>
      <point x="481" y="451" type="curve" smooth="yes"/>
      <point x="481" y="441"/>
      <point x="480" y="437"/>
      <point x="478" y="426" type="curve" smooth="yes"/>
      <point x="457" y="324"/>
      <point x="381" y="279"/>
      <point x="256" y="279" type="curve" smooth="yes"/>
      <point x="245" y="279"/>
      <point x="234" y="279"/>
      <point x="222" y="280" type="curve"/>
    </contour>
  </outline>
</glyph>
<glyph name="Q" format="1">
  <advance width="648"/>
  <unicode hex="0051"/>
  <outline>
    <contour>
      <point x="322" y="-21"/>
      <point x="381" y="-1"/>
      <point x="431" y="32" type="curve"/>
      <point x="474" y="-6"/>
      <point x="520" y="-43"/>
      <point x="537" y="-43" type="curve" smooth="yes"/>
      <point x="574" y="-43"/>
      <point x="596" y="-21"/>
      <point x="596" y="14" type="curve" smooth="yes"/>
      <point x="596" y="22"/>
      <point x="559" y="59"/>
      <point x="511" y="104" type="curve"/>
      <point x="575" y="180"/>
      <point x="611" y="281"/>
      <point x="611" y="379" type="curve" smooth="yes"/>
      <point x="611" y="571"/>
      <point x="516" y="656"/>
      <point x="386" y="656" type="curve" smooth="yes"/>
      <point x="171" y="656"/>
      <point x="19" y="477"/>
      <point x="19" y="258" type="curve" smooth="yes"/>
      <point x="19" y="90"/>
      <point x="92" y="-21"/>
      <point x="256" y="-21" type="curve" smooth="yes"/>
    </contour>
    <contour>
      <point x="213" y="69"/>
      <point x="150" y="139"/>
      <point x="150" y="234" type="curve" smooth="yes"/>
      <point x="150" y="382"/>
      <point x="236" y="555"/>
      <point x="370" y="555" type="curve" smooth="yes"/>
      <point x="448" y="555"/>
      <point x="477" y="490"/>
      <point x="477" y="403" type="curve" smooth="yes"/>
      <point x="477" y="321"/>
      <point x="455" y="245"/>
      <point x="422" y="186" type="curve"/>
      <point x="360" y="242"/>
      <point x="318" y="287"/>
      <point x="312" y="287" type="curve" smooth="yes"/>
      <point x="282" y="287"/>
      <point x="267" y="277"/>
      <point x="267" y="239" type="curve" smooth="yes"/>
      <point x="267" y="221"/>
      <point x="321" y="147"/>
      <point x="357" y="105" type="curve"/>
      <point x="329" y="82"/>
      <point x="299" y="69"/>
      <point x="270" y="69" type="curve" smooth="yes"/>
    </contour>
  </outline>
</glyph>
<glyph name="R" format="1">
  <advance width="607"/>
  <unicode hex="0052"/>
  <outline>
    <contour>
      <point x="30" y="526"/>
      <point x="38" y="497"/>
      <point x="54" y="480" type="curve"/>
      <point x="70" y="495"/>
      <point x="96" y="510"/>
      <point x="133" y="521" type="curve"/>
      <point x="12" y="54" type="line" smooth="yes"/>
      <point x="10" y="47"/>
      <point x="9" y="40"/>
      <point x="9" y="33" type="curve" smooth="yes"/>
      <point x="9" y="-2"/>
      <point x="30" y="-13"/>
      <point x="69" y="-13" type="curve" smooth="yes"/>
      <point x="124" y="-13"/>
      <point x="138" y="23"/>
      <point x="147" y="60" type="curve" smooth="yes"/>
      <point x="155" y="93"/>
      <point x="183" y="202"/>
      <point x="197" y="254" type="curve"/>
      <point x="210" y="253"/>
      <point x="224" y="253"/>
      <point x="238" y="253" type="curve" smooth="yes"/>
      <point x="373" y="253"/>
      <point x="575" y="307"/>
      <point x="575" y="492" type="curve" smooth="yes"/>
      <point x="575" y="571"/>
      <point x="500" y="664"/>
      <point x="366" y="664" type="curve" smooth="yes"/>
      <point x="338" y="664"/>
      <point x="308" y="662"/>
      <point x="277" y="652" type="curve"/>
      <point x="272" y="663"/>
      <point x="259" y="675"/>
      <point x="234" y="675" type="curve" smooth="yes"/>
      <point x="193" y="675"/>
      <point x="170" y="653"/>
      <point x="159" y="629" type="curve"/>
      <point x="126" y="620"/>
      <point x="93" y="603"/>
      <point x="62" y="588" type="curve" smooth="yes"/>
      <point x="46" y="580"/>
      <point x="30" y="570"/>
      <point x="30" y="550" type="curve" smooth="yes"/>
    </contour>
    <contour>
      <point x="237" y="432"/>
      <point x="252" y="492"/>
      <point x="266" y="548" type="curve"/>
      <point x="293" y="556"/>
      <point x="319" y="562"/>
      <point x="343" y="562" type="curve" smooth="yes"/>
      <point x="415" y="562"/>
      <point x="461" y="527"/>
      <point x="461" y="476" type="curve" smooth="yes"/>
      <point x="461" y="385"/>
      <point x="340" y="346"/>
      <point x="252" y="346" type="curve" smooth="yes"/>
      <point x="241" y="346"/>
      <point x="230" y="346"/>
      <point x="218" y="347" type="curve"/>
    </contour>
    <contour>
      <point x="230" y="309" type="line"/>
      <point x="233" y="211"/>
      <point x="398" y="20"/>
      <point x="466" y="-9" type="curve" smooth="yes"/>
      <point x="475" y="-13"/>
      <point x="486" y="-14"/>
      <point x="498" y="-14" type="curve" smooth="yes"/>
      <point x="528" y="-14"/>
      <point x="538" y="-8"/>
      <point x="567" y="3" type="curve" smooth="yes"/>
      <point x="578" y="7"/>
      <point x="584" y="12"/>
      <point x="584" y="20" type="curve" smooth="yes"/>
      <point x="584" y="43"/>
      <point x="556" y="77"/>
      <point x="540" y="79" type="curve" smooth="yes"/>
      <point x="530" y="80" type="line"/>
      <point x="506" y="79"/>
      <point x="370" y="239"/>
      <point x="350" y="304" type="curve"/>
    </contour>
  </outline>
</glyph>
<glyph name="V" format="1">
  <advance width="594"/>
  <unicode hex="0056"/>
  <outline>
    <contour>
      <point x="211" y="-21"/>
      <point x="246" y="-5"/>
      <point x="261" y="12" type="curve" smooth="yes"/>
      <point x="305" y="60"/>
      <point x="381" y="204"/>
      <point x="503" y="429" type="curve" smooth="yes"/>
      <point x="548" y="511"/>
      <point x="587" y="576"/>
      <point x="599" y="604" type="curve"/>
      <point x="598" y="633"/>
      <point x="567" y="661"/>
      <point x="515" y="661" type="curve" smooth="yes"/>
      <point x="471" y="661"/>
      <point x="276" y="263"/>
      <point x="200" y="95" type="curve"/>
      <point x="201" y="230"/>
      <point x="199" y="544"/>
      <point x="199" y="592" type="curve" smooth="yes"/>
      <point x="199" y="637"/>
      <point x="182" y="659"/>
      <point x="141" y="659" type="curve" smooth="yes"/>
      <point x="96" y="659"/>
      <point x="65" y="633"/>
      <point x="65" y="602" type="curve" smooth="yes"/>
      <point x="65" y="426"/>
      <point x="81" y="252"/>
      <point x="88" y="80" type="curve" smooth="yes"/>
      <point x="91" y="12"/>
      <point x="92" y="-3"/>
      <point x="171" y="-21" type="curve"/>
    </contour>
  </outline>
</glyph>
<glyph name="X" format="1">
  <advance width="660"/>
  <unicode hex="0058"/>
  <outline>
    <contour>
      <point x="419" y="18"/>
      <point x="442" y="0"/>
      <point x="457" y="0" type="curve" smooth="yes"/>
      <point x="472" y="0"/>
      <point x="484" y="4"/>
      <point x="494" y="11" type="curve"/>
      <point x="504" y="19"/>
      <point x="510" y="29"/>
      <point x="511" y="41" type="curve"/>
      <point x="511" y="46" type="line" smooth="yes"/>
      <point x="511" y="60"/>
      <point x="504" y="81"/>
      <point x="487" y="111" type="curve" smooth="yes"/>
      <point x="453" y="172" type="line" smooth="yes"/>
      <point x="390" y="283"/>
      <point x="262" y="488"/>
      <point x="262" y="603" type="curve" smooth="yes"/>
      <point x="262" y="609"/>
      <point x="262" y="615"/>
      <point x="263" y="621" type="curve"/>
      <point x="262" y="647"/>
      <point x="228" y="660"/>
      <point x="206" y="660" type="curve" smooth="yes"/>
      <point x="185" y="660"/>
      <point x="165" y="656"/>
      <point x="146" y="650" type="curve" smooth="yes"/>
      <point x="133" y="646"/>
      <point x="126" y="638"/>
      <point x="123" y="613" type="curve"/>
      <point x="122" y="608"/>
      <point x="122" y="603"/>
      <point x="122" y="598" type="curve" smooth="yes"/>
      <point x="122" y="475"/>
      <point x="298" y="168"/>
      <point x="390" y="54" type="curve" smooth="yes"/>
    </contour>
    <contour>
      <point x="596" y="562"/>
      <point x="628" y="567"/>
      <point x="630" y="587" type="curve"/>
      <point x="632" y="598" type="line" smooth="yes"/>
      <point x="633" y="603"/>
      <point x="633" y="609"/>
      <point x="633" y="616" type="curve" smooth="yes"/>
      <point x="633" y="641"/>
      <point x="625" y="672"/>
      <point x="579" y="672" type="curve" smooth="yes"/>
      <point x="558" y="672"/>
      <point x="529" y="656"/>
      <point x="496" y="624" type="curve" smooth="yes"/>
      <point x="406" y="537"/>
      <point x="71" y="137"/>
      <point x="-3" y="73" type="curve" smooth="yes"/>
      <point x="-24" y="55" type="line"/>
      <point x="-26" y="52"/>
      <point x="-28" y="47"/>
      <point x="-30" y="40" type="curve"/>
      <point x="-30" y="36" type="line" smooth="yes"/>
      <point x="-30" y="26"/>
      <point x="-26" y="15"/>
      <point x="-9" y="2" type="curve" smooth="yes"/>
      <point x="11" y="-13"/>
      <point x="6" y="-20"/>
      <point x="21" y="-20" type="curve" smooth="yes"/>
      <point x="35" y="-20"/>
      <point x="50" y="-15"/>
      <point x="66" y="-5" type="curve"/>
      <point x="134" y="41"/>
      <point x="514" y="488"/>
      <point x="564" y="534" type="curve" smooth="yes"/>
    </contour>
  </outline>
</glyph>
<glyph name="Z" format="1">
  <advance width="594"/>
  <unicode hex="005A"/>
  <outline>
    <contour>
      <point x="365" y="110"/>
      <point x="129" y="94"/>
      <point x="64" y="90" type="curve"/>
      <point x="35" y="83"/>
      <point x="1" y="60"/>
      <point x="1" y="35" type="curve" smooth="yes"/>
      <point x="1" y="12"/>
      <point x="18" y="-3"/>
      <point x="37" y="-13" type="curve"/>
      <point x="108" y="-12"/>
      <point x="334" y="3"/>
      <point x="440" y="17" type="curve"/>
      <point x="468" y="30"/>
      <point x="480" y="47"/>
      <point x="480" y="64" type="curve" smooth="yes"/>
      <point x="480" y="84"/>
      <point x="476" y="103"/>
      <point x="449" y="123" type="curve"/>
    </contour>
    <contour>
      <point x="215" y="560"/>
      <point x="469" y="557"/>
      <point x="534" y="561" type="curve"/>
      <point x="563" y="568"/>
      <point x="597" y="591"/>
      <point x="597" y="616" type="curve" smooth="yes"/>
      <point x="597" y="639"/>
      <point x="580" y="654"/>
      <point x="561" y="664" type="curve"/>
      <point x="490" y="663"/>
      <point x="264" y="648"/>
      <point x="158" y="634" type="curve"/>
      <point x="130" y="621"/>
      <point x="120" y="605"/>
      <point x="120" y="588" type="curve" smooth="yes"/>
      <point x="120" y="568"/>
      <point x="131" y="535"/>
      <point x="151" y="519" type="curve"/>
    </contour>
    <contour>
      <point x="144" y="44"/>
      <point x="590" y="596"/>
      <point x="590" y="596" type="curve" smooth="yes"/>
      <point x="590" y="596"/>
      <point x="491" y="653"/>
      <point x="491" y="653" type="curve" smooth="yes"/>
      <point x="491" y="653"/>
      <point x="8" y="55"/>
      <point x="8" y="55" type="curve" smooth="yes"/>
      <point x="8" y="55"/>
      <point x="146" y="44"/>
      <point x="145" y="44" type="curve" smooth="yes"/>
    </contour>
  </outline>
</glyph>
<glyph name="bracketleft" format="1">
  <advance width="449"/>
  <unicode hex="005B"/>
  <outline>
    <contour>
      <point x="229" y="-152" type="line" smooth="yes"/>
      <point x="272" y="-152"/>
      <point x="290" y="-126"/>
      <point x="290" y="-91" type="curve" smooth="yes"/>
      <point x="290" y="-65"/>
      <point x="284" y="-49"/>
      <point x="244" y="-49" type="curve" smooth="yes"/>
      <point x="152" y="-49" type="line" smooth="yes"/>
      <point x="146" y="-49"/>
      <point x="142" y="-50"/>
      <point x="139" y="-51" type="curve"/>
      <point x="281" y="511"/>
      <point x="287" y="537"/>
      <point x="291" y="557" type="curve" smooth="yes"/>
      <point x="294" y="574" type="line"/>
      <point x="353" y="574" type="line" smooth="yes"/>
      <point x="403" y="574"/>
      <point x="438" y="579"/>
      <point x="438" y="632" type="curve" smooth="yes"/>
      <point x="438" y="660"/>
      <point x="419" y="674"/>
      <point x="372" y="674" type="curve" smooth="yes"/>
      <point x="282" y="674" type="line" smooth="yes"/>
      <point x="197" y="674"/>
      <point x="189" y="637"/>
      <point x="174" y="574" type="curve" smooth="yes"/>
      <point x="156" y="497"/>
      <point x="5" y="-55"/>
      <point x="5" y="-105" type="curve" smooth="yes"/>
      <point x="5" y="-138"/>
      <point x="30" y="-152"/>
      <point x="80" y="-152" type="curve" smooth="yes"/>
    </contour>
  </outline>
</glyph>
<glyph name="backslash" format="1">
  <advance width="434"/>
  <unicode hex="005C"/>
  <outline>
    <contour>
      <point x="363" y="-59"/>
      <point x="386" y="-25"/>
      <point x="386" y="4" type="curve" smooth="yes"/>
      <point x="386" y="11"/>
      <point x="385" y="24"/>
      <point x="381" y="40" type="curve" smooth="yes"/>
      <point x="344" y="181"/>
      <point x="255" y="491"/>
      <point x="201" y="633" type="curve" smooth="yes"/>
      <point x="193" y="654"/>
      <point x="179" y="662"/>
      <point x="168" y="662" type="curve" smooth="yes"/>
      <point x="125" y="662"/>
      <point x="101" y="639"/>
      <point x="101" y="605" type="curve" smooth="yes"/>
      <point x="101" y="600"/>
      <point x="101" y="594"/>
      <point x="103" y="588" type="curve"/>
      <point x="132" y="481"/>
      <point x="246" y="92"/>
      <point x="299" y="-28" type="curve" smooth="yes"/>
      <point x="308" y="-48"/>
      <point x="318" y="-59"/>
      <point x="326" y="-59" type="curve" smooth="yes"/>
    </contour>
  </outline>
</glyph>
<glyph name="bracketright" format="1">
  <advance width="449"/>
  <unicode hex="005D"/>
  <outline>
    <contour>
      <point x="252" y="674" type="line" smooth="yes"/>
      <point x="209" y="674"/>
      <point x="191" y="645"/>
      <point x="191" y="610" type="curve" smooth="yes"/>
      <point x="191" y="584"/>
      <point x="197" y="563"/>
      <point x="237" y="563" type="curve" smooth="yes"/>
      <point x="296" y="563" type="line" smooth="yes"/>
      <point x="302" y="563"/>
      <point x="310" y="564"/>
      <point x="313" y="565" type="curve"/>
      <point x="171" y="3"/>
      <point x="166" y="-12"/>
      <point x="162" y="-32" type="curve" smooth="yes"/>
      <point x="159" y="-49" type="line"/>
      <point x="71" y="-49" type="line" smooth="yes"/>
      <point x="21" y="-49"/>
      <point x="-1" y="-57"/>
      <point x="-1" y="-110" type="curve" smooth="yes"/>
      <point x="-1" y="-138"/>
      <point x="4" y="-152"/>
      <point x="51" y="-152" type="curve" smooth="yes"/>
      <point x="171" y="-152" type="line" smooth="yes"/>
      <point x="256" y="-152"/>
      <point x="264" y="-115"/>
      <point x="279" y="-52" type="curve" smooth="yes"/>
      <point x="297" y="25"/>
      <point x="436" y="574"/>
      <point x="448" y="624" type="curve"/>
      <point x="449" y="627"/>
      <point x="449" y="630"/>
      <point x="449" y="633" type="curve" smooth="yes"/>
      <point x="449" y="660"/>
      <point x="438" y="674"/>
      <point x="393" y="674" type="curve" smooth="yes"/>
    </contour>
  </outline>
</glyph>
<glyph name="asciicircum" format="1">
  <advance width="564"/>
  <unicode hex="005E"/>
  <outline>
    <contour>
      <point x="416" y="714" type="line" smooth="yes"/>
      <point x="396" y="714"/>
      <point x="384" y="705"/>
      <point x="374" y="697" type="curve"/>
      <point x="227" y="569"/>
      <point x="172" y="545"/>
      <point x="172" y="510" type="curve" smooth="yes"/>
      <point x="172" y="483"/>
      <point x="213" y="466"/>
      <point x="245" y="466" type="curve" smooth="yes"/>
      <point x="270" y="466"/>
      <point x="325" y="500"/>
      <point x="417" y="583" type="curve"/>
      <point x="470" y="522"/>
      <point x="486" y="475"/>
      <point x="530" y="475" type="curve" smooth="yes"/>
      <point x="566" y="475"/>
      <point x="595" y="502"/>
      <point x="595" y="533" type="curve" smooth="yes"/>
      <point x="595" y="542"/>
      <point x="593" y="550"/>
      <point x="584" y="561" type="curve" smooth="yes"/>
      <point x="515" y="648" type="line" smooth="yes"/>
      <point x="470" y="705"/>
      <point x="456" y="714"/>
      <point x="421" y="714" type="curve" smooth="yes"/>
    </contour>
  </outline>
</glyph>
<glyph name="underscore" format="1">
  <advance width="498"/>
  <unicode hex="005F"/>
  <outline>
    <contour>
      <point x="441" y="-143" type="line" smooth="yes"/>
      <point x="462" y="-143"/>
      <point x="477" y="-106"/>
      <point x="477" y="-76" type="curve" smooth="yes"/>
      <point x="477" y="-56"/>
      <point x="470" y="-39"/>
      <point x="455" y="-39" type="curve" smooth="yes"/>
      <point x="-47" y="-39" type="line" smooth="yes"/>
      <point x="-70" y="-39"/>
      <point x="-89" y="-83"/>
      <point x="-89" y="-114" type="curve" smooth="yes"/>
      <point x="-89" y="-130"/>
      <point x="-84" y="-143"/>
      <point x="-71" y="-143" type="curve" smooth="yes"/>
    </contour>
  </outline>
</glyph>
<glyph name="grave" format="1">
  <advance width="538"/>
  <unicode hex="0060"/>
  <outline>
    <contour>
      <point x="644" y="625"/>
      <point x="495" y="751"/>
      <point x="471" y="751" type="curve" smooth="yes"/>
      <point x="444" y="751"/>
      <point x="389" y="728"/>
      <point x="389" y="707" type="curve" smooth="yes"/>
      <point x="389" y="688"/>
      <point x="408" y="674"/>
      <point x="460" y="638" type="curve" smooth="yes"/>
      <point x="536" y="585"/>
      <point x="601" y="539"/>
      <point x="638" y="539" type="curve" smooth="yes"/>
      <point x="663" y="539"/>
      <point x="675" y="547"/>
      <point x="675" y="570" type="curve" smooth="yes"/>
      <point x="675" y="575"/>
      <point x="674" y="579"/>
      <point x="672" y="582" type="curve" smooth="yes"/>
    </contour>
  </outline>
</glyph>
<glyph name="b" format="1">
  <advance width="549"/>
  <unicode hex="0062"/>
  <outline>
    <contour>
      <point x="148" y="10"/>
      <point x="213" y="-15"/>
      <point x="241" y="-15" type="curve" smooth="yes"/>
      <point x="424" y="-15"/>
      <point x="526" y="147"/>
      <point x="526" y="285" type="curve" smooth="yes"/>
      <point x="526" y="383"/>
      <point x="458" y="477"/>
      <point x="361" y="477" type="curve" smooth="yes"/>
      <point x="328" y="477"/>
      <point x="264" y="467"/>
      <point x="224" y="421" type="curve"/>
      <point x="299" y="717" type="line"/>
      <point x="297" y="751"/>
      <point x="249" y="775"/>
      <point x="219" y="775" type="curve" smooth="yes"/>
      <point x="202" y="775"/>
      <point x="166" y="766"/>
      <point x="161" y="746" type="curve"/>
      <point x="161" y="739"/>
      <point x="163" y="671"/>
      <point x="164" y="663" type="curve"/>
      <point x="129" y="514"/>
      <point x="71" y="285"/>
      <point x="28" y="110" type="curve" smooth="yes"/>
      <point x="18" y="68"/>
      <point x="2" y="34"/>
      <point x="0" y="29" type="curve"/>
      <point x="3" y="-18"/>
      <point x="30" y="-24"/>
      <point x="57" y="-24" type="curve" smooth="yes"/>
      <point x="66" y="-24"/>
      <point x="75" y="-23"/>
      <point x="85" y="-23" type="curve" smooth="yes"/>
      <point x="115" y="-23"/>
      <point x="117" y="12"/>
      <point x="132" y="46" type="curve"/>
    </contour>
    <contour>
      <point x="191" y="281" type="line"/>
      <point x="209" y="348"/>
      <point x="290" y="388"/>
      <point x="346" y="388" type="curve" smooth="yes"/>
      <point x="393" y="388"/>
      <point x="413" y="354"/>
      <point x="413" y="314" type="curve" smooth="yes"/>
      <point x="413" y="227"/>
      <point x="342" y="71"/>
      <point x="242" y="70" type="curve" smooth="yes"/>
      <point x="214" y="70"/>
      <point x="173" y="98"/>
      <point x="156" y="129" type="curve"/>
    </contour>
  </outline>
</glyph>
<glyph name="c" format="1">
  <advance width="499"/>
  <unicode hex="0063"/>
  <outline>
    <contour>
      <point x="455" y="133"/>
      <point x="448" y="168"/>
      <point x="385" y="168" type="curve" smooth="yes"/>
      <point x="357" y="168"/>
      <point x="328" y="115"/>
      <point x="323" y="106" type="curve" smooth="yes"/>
      <point x="310" y="81"/>
      <point x="246" y="67"/>
      <point x="217" y="67" type="curve" smooth="yes"/>
      <point x="160" y="67"/>
      <point x="130" y="87"/>
      <point x="130" y="125" type="curve" smooth="yes"/>
      <point x="130" y="276"/>
      <point x="289" y="389"/>
      <point x="345" y="389" type="curve" smooth="yes"/>
      <point x="362" y="389"/>
      <point x="386" y="380"/>
      <point x="386" y="362" type="curve" smooth="yes"/>
      <point x="386" y="356"/>
      <point x="385" y="348"/>
      <point x="385" y="339" type="curve" smooth="yes"/>
      <point x="385" y="320"/>
      <point x="390" y="299"/>
      <point x="426" y="299" type="curve" smooth="yes"/>
      <point x="467" y="299"/>
      <point x="492" y="322"/>
      <point x="492" y="350" type="curve" smooth="yes"/>
      <point x="492" y="428"/>
      <point x="433" y="474"/>
      <point x="360" y="474" type="curve" smooth="yes"/>
      <point x="173" y="474"/>
      <point x="10" y="318"/>
      <point x="10" y="125" type="curve" smooth="yes"/>
      <point x="10" y="45"/>
      <point x="63" y="-21"/>
      <point x="202" y="-21" type="curve" smooth="yes"/>
      <point x="337" y="-21"/>
      <point x="434" y="57"/>
      <point x="456" y="118" type="curve"/>
    </contour>
  </outline>
</glyph>
<glyph name="e" format="1">
  <advance width="514"/>
  <unicode hex="0065"/>
  <outline>
    <contour>
      <point x="337" y="-21"/>
      <point x="434" y="57"/>
      <point x="456" y="118" type="curve"/>
      <point x="455" y="133"/>
      <point x="448" y="168"/>
      <point x="385" y="168" type="curve" smooth="yes"/>
      <point x="357" y="168"/>
      <point x="328" y="115"/>
      <point x="323" y="106" type="curve" smooth="yes"/>
      <point x="310" y="81"/>
      <point x="246" y="67"/>
      <point x="217" y="67" type="curve" smooth="yes"/>
      <point x="160" y="67"/>
      <point x="127" y="87"/>
      <point x="127" y="125" type="curve" smooth="yes"/>
      <point x="127" y="132"/>
      <point x="128" y="145"/>
      <point x="131" y="156" type="curve"/>
      <point x="382" y="246"/>
      <point x="492" y="259"/>
      <point x="492" y="350" type="curve" smooth="yes"/>
      <point x="492" y="437"/>
      <point x="429" y="474"/>
      <point x="360" y="474" type="curve" smooth="yes"/>
      <point x="173" y="474"/>
      <point x="14" y="315"/>
      <point x="14" y="122" type="curve" smooth="yes"/>
      <point x="14" y="42"/>
      <point x="63" y="-21"/>
      <point x="202" y="-21" type="curve" smooth="yes"/>
    </contour>
    <contour>
      <point x="185" y="305"/>
      <point x="283" y="389"/>
      <point x="345" y="389" type="curve" smooth="yes"/>
      <point x="362" y="389"/>
      <point x="386" y="380"/>
      <point x="386" y="362" type="curve" smooth="yes"/>
      <point x="386" y="321"/>
      <point x="243" y="275"/>
      <point x="159" y="248" type="curve"/>
    </contour>
  </outline>
</glyph>
<glyph name="f" format="1">
  <advance width="443"/>
  <unicode hex="0066"/>
  <outline>
    <contour>
      <point x="389" y="350" type="line"/>
      <point x="410" y="354"/>
      <point x="435" y="373"/>
      <point x="435" y="397" type="curve" smooth="yes"/>
      <point x="435" y="410"/>
      <point x="434" y="441"/>
      <point x="397" y="441" type="curve" smooth="yes"/>
      <point x="382" y="441"/>
      <point x="348" y="436"/>
      <point x="293" y="431" type="curve"/>
      <point x="324" y="549" type="line" smooth="yes"/>
      <point x="333" y="582"/>
      <point x="365" y="612"/>
      <point x="412" y="612" type="curve" smooth="yes"/>
      <point x="493" y="612"/>
      <point x="457" y="524"/>
      <point x="503" y="524" type="curve" smooth="yes"/>
      <point x="556" y="524"/>
      <point x="562" y="553"/>
      <point x="562" y="579" type="curve" smooth="yes"/>
      <point x="562" y="641"/>
      <point x="512" y="713"/>
      <point x="414" y="713" type="curve" smooth="yes"/>
      <point x="281" y="713"/>
      <point x="219" y="634"/>
      <point x="189" y="502" type="curve" smooth="yes"/>
      <point x="171" y="419" type="line"/>
      <point x="105" y="412"/>
      <point x="43" y="405"/>
      <point x="40" y="401" type="curve" smooth="yes"/>
      <point x="28" y="384"/>
      <point x="22" y="366"/>
      <point x="22" y="351" type="curve" smooth="yes"/>
      <point x="22" y="333"/>
      <point x="31" y="320"/>
      <point x="53" y="320" type="curve"/>
      <point x="146" y="328" type="line"/>
      <point x="61" y="-19" type="line"/>
      <point x="61" y="-25" type="line" smooth="yes"/>
      <point x="61" y="-58"/>
      <point x="96" y="-74"/>
      <point x="116" y="-74" type="curve" smooth="yes"/>
      <point x="144" y="-74"/>
      <point x="169" y="-54"/>
      <point x="179" y="-34" type="curve"/>
      <point x="270" y="338" type="line"/>
    </contour>
  </outline>
</glyph>
<glyph name="h" format="1">
  <advance width="524"/>
  <unicode hex="0068"/>
  <outline>
    <contour>
      <point x="284" y="715" type="line"/>
      <point x="282" y="749"/>
      <point x="249" y="775"/>
      <point x="206" y="775" type="curve" smooth="yes"/>
      <point x="184" y="775"/>
      <point x="152" y="766"/>
      <point x="147" y="746" type="curve"/>
      <point x="147" y="739"/>
      <point x="148" y="686"/>
      <point x="149" y="678" type="curve"/>
      <point x="119" y="554"/>
      <point x="3" y="97"/>
      <point x="-13" y="34" type="curve"/>
      <point x="-13" y="1"/>
      <point x="22" y="-3"/>
      <point x="60" y="-3" type="curve" smooth="yes"/>
      <point x="121" y="-2"/>
      <point x="118" y="17"/>
      <point x="126" y="48" type="curve" smooth="yes"/>
      <point x="189" y="310"/>
      <point x="311" y="376"/>
      <point x="342" y="376" type="curve" smooth="yes"/>
      <point x="352" y="376"/>
      <point x="358" y="371"/>
      <point x="358" y="362" type="curve" smooth="yes"/>
      <point x="358" y="351"/>
      <point x="283" y="151"/>
      <point x="283" y="17" type="curve" smooth="yes"/>
      <point x="283" y="-12"/>
      <point x="294" y="-39"/>
      <point x="329" y="-39" type="curve" smooth="yes"/>
      <point x="390" y="-39"/>
      <point x="409" y="-14"/>
      <point x="422" y="11" type="curve"/>
      <point x="408" y="60" type="line"/>
      <point x="420" y="172"/>
      <point x="444" y="282"/>
      <point x="486" y="392" type="curve"/>
      <point x="486" y="447"/>
      <point x="459" y="473"/>
      <point x="388" y="473" type="curve" smooth="yes"/>
      <point x="339" y="473"/>
      <point x="222" y="426"/>
      <point x="173" y="330" type="curve"/>
    </contour>
  </outline>
</glyph>
<glyph name="j" format="1">
  <advance width="325"/>
  <unicode hex="006A"/>
  <outline>
    <contour>
      <point x="164" y="556"/>
      <point x="187" y="527"/>
      <point x="237" y="527" type="curve" smooth="yes"/>
      <point x="287" y="527"/>
      <point x="330" y="560"/>
      <point x="330" y="598" type="curve" smooth="yes"/>
      <point x="330" y="636"/>
      <point x="288" y="673"/>
      <point x="238" y="673" type="curve" smooth="yes"/>
      <point x="188" y="673"/>
      <point x="164" y="632"/>
      <point x="164" y="594" type="curve" smooth="yes"/>
    </contour>
    <contour>
      <point x="53" y="-19" type="line" smooth="yes"/>
      <point x="36" y="-90"/>
      <point x="3" y="-134"/>
      <point x="-44" y="-134" type="curve" smooth="yes"/>
      <point x="-125" y="-134"/>
      <point x="-85" y="-31"/>
      <point x="-131" y="-31" type="curve" smooth="yes"/>
      <point x="-184" y="-31"/>
      <point x="-190" y="-60"/>
      <point x="-190" y="-86" type="curve" smooth="yes"/>
      <point x="-190" y="-148"/>
      <point x="-146" y="-220"/>
      <point x="-48" y="-220" type="curve" smooth="yes"/>
      <point x="85" y="-220"/>
      <point x="144" y="-141"/>
      <point x="178" y="-9" type="curve" smooth="yes"/>
      <point x="206" y="99"/>
      <point x="258" y="310"/>
      <point x="284" y="417" type="curve"/>
      <point x="281" y="446"/>
      <point x="268" y="487"/>
      <point x="215" y="487" type="curve" smooth="yes"/>
      <point x="162" y="487"/>
      <point x="132" y="477"/>
      <point x="132" y="464" type="curve" smooth="yes"/>
      <point x="132" y="462"/>
      <point x="133" y="459"/>
      <point x="135" y="457" type="curve"/>
      <point x="162" y="427" type="line"/>
    </contour>
  </outline>
</glyph>
<glyph name="k" format="1">
  <advance width="531"/>
  <unicode hex="006B"/>
  <outline>
    <contour>
      <point x="304" y="751"/>
      <point x="254" y="775"/>
      <point x="224" y="775" type="curve" smooth="yes"/>
      <point x="207" y="775"/>
      <point x="171" y="766"/>
      <point x="166" y="746" type="curve"/>
      <point x="166" y="739"/>
      <point x="168" y="671"/>
      <point x="169" y="663" type="curve"/>
      <point x="135" y="514"/>
      <point x="75" y="285"/>
      <point x="28" y="110" type="curve" smooth="yes"/>
      <point x="17" y="68"/>
      <point x="2" y="34"/>
      <point x="0" y="29" type="curve"/>
      <point x="3" y="-18"/>
      <point x="42" y="-24"/>
      <point x="69" y="-24" type="curve" smooth="yes"/>
      <point x="78" y="-24"/>
      <point x="87" y="-23"/>
      <point x="97" y="-23" type="curve" smooth="yes"/>
      <point x="127" y="-23"/>
      <point x="124" y="12"/>
      <point x="306" y="717" type="curve"/>
    </contour>
    <contour>
      <point x="188" y="272"/>
      <point x="178" y="246"/>
      <point x="180" y="239" type="curve"/>
      <point x="198" y="155"/>
      <point x="319" y="-5"/>
      <point x="367" y="-23" type="curve"/>
      <point x="374" y="-26"/>
      <point x="383" y="-27"/>
      <point x="392" y="-27" type="curve" smooth="yes"/>
      <point x="415" y="-27"/>
      <point x="442" y="-20"/>
      <point x="468" y="-15" type="curve" smooth="yes"/>
      <point x="478" y="-13"/>
      <point x="482" y="-8"/>
      <point x="482" y="-1" type="curve" smooth="yes"/>
      <point x="482" y="16"/>
      <point x="457" y="41"/>
      <point x="446" y="41" type="curve" smooth="yes"/>
      <point x="431" y="41"/>
      <point x="294" y="199"/>
      <point x="290" y="252" type="curve"/>
      <point x="290" y="253"/>
      <point x="487" y="379"/>
      <point x="487" y="379" type="curve" smooth="yes"/>
      <point x="487" y="379"/>
      <point x="526" y="385"/>
      <point x="534" y="394" type="curve"/>
      <point x="535" y="395"/>
      <point x="535" y="397"/>
      <point x="535" y="400" type="curve" smooth="yes"/>
      <point x="535" y="413"/>
      <point x="523" y="441"/>
      <point x="518" y="448" type="curve" smooth="yes"/>
      <point x="508" y="463"/>
      <point x="462" y="467"/>
      <point x="461" y="467" type="curve"/>
      <point x="382" y="453"/>
      <point x="187" y="311"/>
      <point x="188" y="278" type="curve" smooth="yes"/>
    </contour>
  </outline>
</glyph>
<glyph name="m" format="1">
  <advance width="768"/>
  <unicode hex="006D"/>
  <outline>
    <contour>
      <point x="99" y="427" type="line"/>
      <point x="36" y="185"/>
      <point x="4" y="47"/>
      <point x="4" y="34" type="curve" smooth="yes"/>
      <point x="4" y="1"/>
      <point x="33" y="-3"/>
      <point x="71" y="-3" type="curve" smooth="yes"/>
      <point x="155" y="-2"/>
      <point x="125" y="28"/>
      <point x="143" y="92" type="curve" smooth="yes"/>
      <point x="151" y="120"/>
      <point x="175" y="225"/>
      <point x="189" y="277" type="curve"/>
      <point x="228" y="326"/>
      <point x="311" y="354"/>
      <point x="352" y="372" type="curve"/>
      <point x="312" y="219"/>
      <point x="271" y="36"/>
      <point x="258" y="2" type="curve"/>
      <point x="258" y="-14"/>
      <point x="273" y="-26"/>
      <point x="327" y="-26" type="curve" smooth="yes"/>
      <point x="397" y="-26"/>
      <point x="387" y="-8"/>
      <point x="402" y="58" type="curve" smooth="yes"/>
      <point x="421" y="142"/>
      <point x="452" y="271"/>
      <point x="465" y="312" type="curve"/>
      <point x="491" y="343"/>
      <point x="583" y="378"/>
      <point x="611" y="378" type="curve" smooth="yes"/>
      <point x="614" y="378"/>
      <point x="616" y="366"/>
      <point x="616" y="359" type="curve" smooth="yes"/>
      <point x="616" y="323"/>
      <point x="546" y="171"/>
      <point x="541" y="39" type="curve"/>
      <point x="541" y="32"/>
      <point x="539" y="24"/>
      <point x="539" y="17" type="curve" smooth="yes"/>
      <point x="539" y="-12"/>
      <point x="550" y="-39"/>
      <point x="585" y="-39" type="curve" smooth="yes"/>
      <point x="646" y="-39"/>
      <point x="668" y="-14"/>
      <point x="681" y="11" type="curve"/>
      <point x="667" y="60" type="line"/>
      <point x="673" y="181"/>
      <point x="733" y="325"/>
      <point x="746" y="391" type="curve" smooth="yes"/>
      <point x="747" y="396"/>
      <point x="747" y="400"/>
      <point x="747" y="405" type="curve" smooth="yes"/>
      <point x="747" y="456"/>
      <point x="685" y="470"/>
      <point x="645" y="470" type="curve" smooth="yes"/>
      <point x="596" y="470"/>
      <point x="524" y="432"/>
      <point x="476" y="386" type="curve"/>
      <point x="472" y="452"/>
      <point x="450" y="470"/>
      <point x="384" y="470" type="curve" smooth="yes"/>
      <point x="341" y="470"/>
      <point x="247" y="416"/>
      <point x="209" y="371" type="curve"/>
      <point x="213" y="386"/>
      <point x="214" y="400"/>
      <point x="218" y="417" type="curve"/>
      <point x="215" y="446"/>
      <point x="209" y="487"/>
      <point x="156" y="487" type="curve" smooth="yes"/>
      <point x="103" y="487"/>
      <point x="73" y="477"/>
      <point x="73" y="464" type="curve" smooth="yes"/>
      <point x="73" y="462"/>
      <point x="74" y="459"/>
      <point x="76" y="457" type="curve"/>
    </contour>
  </outline>
</glyph>
<glyph name="o" format="1">
  <advance width="508"/>
  <unicode hex="006F"/>
  <outline>
    <contour>
      <point x="359" y="-21"/>
      <point x="485" y="155"/>
      <point x="485" y="293" type="curve" smooth="yes"/>
      <point x="485" y="430"/>
      <point x="406" y="492"/>
      <point x="309" y="492" type="curve" smooth="yes"/>
      <point x="149" y="492"/>
      <point x="26" y="349"/>
      <point x="26" y="192" type="curve" smooth="yes"/>
      <point x="26" y="72"/>
      <point x="91" y="-21"/>
      <point x="212" y="-21" type="curve" smooth="yes"/>
    </contour>
    <contour>
      <point x="190" y="59"/>
      <point x="143" y="104"/>
      <point x="143" y="165" type="curve" smooth="yes"/>
      <point x="143" y="262"/>
      <point x="205" y="408"/>
      <point x="292" y="408" type="curve" smooth="yes"/>
      <point x="343" y="408"/>
      <point x="366" y="376"/>
      <point x="366" y="319" type="curve" smooth="yes"/>
      <point x="366" y="201"/>
      <point x="292" y="59"/>
      <point x="227" y="59" type="curve" smooth="yes"/>
    </contour>
  </outline>
</glyph>
<glyph name="p" format="1">
  <advance width="528"/>
  <unicode hex="0070"/>
  <outline>
    <contour>
      <point x="150" y="8"/>
      <point x="224" y="-15"/>
      <point x="252" y="-15" type="curve" smooth="yes"/>
      <point x="424" y="-15"/>
      <point x="508" y="129"/>
      <point x="508" y="273" type="curve" smooth="yes"/>
      <point x="508" y="383"/>
      <point x="441" y="477"/>
      <point x="324" y="477" type="curve" smooth="yes"/>
      <point x="291" y="477"/>
      <point x="246" y="467"/>
      <point x="209" y="421" type="curve"/>
      <point x="212" y="447" type="line"/>
      <point x="208" y="481"/>
      <point x="168" y="505"/>
      <point x="138" y="505" type="curve" smooth="yes"/>
      <point x="121" y="505"/>
      <point x="86" y="496"/>
      <point x="83" y="476" type="curve"/>
      <point x="83" y="469"/>
      <point x="99" y="401"/>
      <point x="100" y="393" type="curve"/>
      <point x="71" y="271"/>
      <point x="10" y="28"/>
      <point x="-36" y="-162" type="curve"/>
      <point x="-34" y="-202"/>
      <point x="-11" y="-218"/>
      <point x="16" y="-218" type="curve" smooth="yes"/>
      <point x="19" y="-218"/>
      <point x="62" y="-214"/>
      <point x="69" y="-196" type="curve" smooth="yes"/>
      <point x="81" y="-165"/>
      <point x="127" y="28"/>
      <point x="131" y="44" type="curve"/>
    </contour>
    <contour>
      <point x="198" y="321" type="line"/>
      <point x="231" y="358"/>
      <point x="260" y="388"/>
      <point x="316" y="388" type="curve" smooth="yes"/>
      <point x="363" y="388"/>
      <point x="395" y="335"/>
      <point x="395" y="281" type="curve" smooth="yes"/>
      <point x="395" y="195"/>
      <point x="342" y="70"/>
      <point x="248" y="70" type="curve" smooth="yes"/>
      <point x="223" y="70"/>
      <point x="162" y="100"/>
      <point x="160" y="154" type="curve"/>
      <point x="160" y="159"/>
      <point x="161" y="165"/>
      <point x="162" y="171" type="curve"/>
    </contour>
  </outline>
</glyph>
<glyph name="q" format="1">
  <advance width="487"/>
  <unicode hex="0071"/>
  <outline>
    <contour>
      <point x="110" y="467"/>
      <point x="16" y="330"/>
      <point x="16" y="185" type="curve" smooth="yes"/>
      <point x="16" y="85"/>
      <point x="65" y="-2"/>
      <point x="181" y="-2" type="curve" smooth="yes"/>
      <point x="211" y="-2"/>
      <point x="257" y="8"/>
      <point x="290" y="36" type="curve"/>
      <point x="277" y="-27"/>
      <point x="244" y="-125"/>
      <point x="244" y="-176" type="curve" smooth="yes"/>
      <point x="244" y="-212"/>
      <point x="262" y="-225"/>
      <point x="307" y="-225" type="curve" smooth="yes"/>
      <point x="322" y="-225"/>
      <point x="349" y="-215"/>
      <point x="352" y="-207" type="curve"/>
      <point x="350" y="-200"/>
      <point x="347" y="-188"/>
      <point x="347" y="-175" type="curve" smooth="yes"/>
      <point x="347" y="-171"/>
      <point x="347" y="-166"/>
      <point x="348" y="-161" type="curve"/>
      <point x="471" y="335" type="line"/>
      <point x="474" y="344"/>
      <point x="474" y="350"/>
      <point x="474" y="353" type="curve" smooth="yes"/>
      <point x="474" y="364"/>
      <point x="453" y="377"/>
      <point x="444" y="377" type="curve"/>
      <point x="405" y="448"/>
      <point x="329" y="467"/>
      <point x="286" y="467" type="curve" smooth="yes"/>
    </contour>
    <contour>
      <point x="304" y="386"/>
      <point x="353" y="356"/>
      <point x="361" y="325" type="curve"/>
      <point x="361" y="322"/>
      <point x="361" y="319"/>
      <point x="360" y="316" type="curve"/>
      <point x="318" y="148" type="line"/>
      <point x="295" y="117"/>
      <point x="230" y="78"/>
      <point x="213" y="78" type="curve" smooth="yes"/>
      <point x="163" y="78"/>
      <point x="117" y="106"/>
      <point x="117" y="187" type="curve" smooth="yes"/>
      <point x="117" y="278"/>
      <point x="185" y="386"/>
      <point x="281" y="386" type="curve" smooth="yes"/>
    </contour>
  </outline>
</glyph>
<glyph name="r" format="1">
  <advance width="410"/>
  <unicode hex="0072"/>
  <outline>
    <contour>
      <point x="194" y="269" type="line"/>
      <point x="227" y="312"/>
      <point x="273" y="357"/>
      <point x="339" y="375" type="curve"/>
      <point x="333" y="342" type="line"/>
      <point x="333" y="329"/>
      <point x="339" y="322"/>
      <point x="367" y="322" type="curve"/>
      <point x="410" y="326"/>
      <point x="461" y="378"/>
      <point x="461" y="421" type="curve" smooth="yes"/>
      <point x="461" y="451"/>
      <point x="430" y="475"/>
      <point x="370" y="475" type="curve" smooth="yes"/>
      <point x="326" y="475"/>
      <point x="263" y="437"/>
      <point x="220" y="385" type="curve"/>
      <point x="227" y="411" type="line"/>
      <point x="224" y="440"/>
      <point x="218" y="481"/>
      <point x="165" y="481" type="curve" smooth="yes"/>
      <point x="112" y="481"/>
      <point x="82" y="471"/>
      <point x="82" y="458" type="curve" smooth="yes"/>
      <point x="82" y="456"/>
      <point x="83" y="453"/>
      <point x="85" y="451" type="curve"/>
      <point x="110" y="421" type="line"/>
      <point x="90" y="349"/>
      <point x="36" y="123"/>
      <point x="9" y="20" type="curve"/>
      <point x="9" y="-13"/>
      <point x="34" y="-17"/>
      <point x="72" y="-17" type="curve" smooth="yes"/>
      <point x="133" y="-17"/>
      <point x="128" y="4"/>
      <point x="136" y="38" type="curve" smooth="yes"/>
    </contour>
  </outline>
</glyph>
<glyph name="v" format="1">
  <advance width="465"/>
  <unicode hex="0076"/>
  <outline>
    <contour>
      <point x="170" y="-21"/>
      <point x="200" y="-9"/>
      <point x="213" y="3" type="curve" smooth="yes"/>
      <point x="251" y="38"/>
      <point x="316" y="143"/>
      <point x="421" y="307" type="curve" smooth="yes"/>
      <point x="459" y="367"/>
      <point x="493" y="414"/>
      <point x="503" y="435" type="curve"/>
      <point x="502" y="456"/>
      <point x="470" y="476"/>
      <point x="426" y="476" type="curve" smooth="yes"/>
      <point x="388" y="476"/>
      <point x="230" y="204"/>
      <point x="165" y="82" type="curve"/>
      <point x="166" y="180"/>
      <point x="164" y="391"/>
      <point x="164" y="426" type="curve" smooth="yes"/>
      <point x="164" y="459"/>
      <point x="145" y="475"/>
      <point x="110" y="475" type="curve" smooth="yes"/>
      <point x="72" y="475"/>
      <point x="45" y="456"/>
      <point x="45" y="433" type="curve" smooth="yes"/>
      <point x="45" y="305"/>
      <point x="59" y="178"/>
      <point x="65" y="53" type="curve" smooth="yes"/>
      <point x="67" y="3"/>
      <point x="68" y="-8"/>
      <point x="136" y="-21" type="curve"/>
    </contour>
  </outline>
</glyph>
<glyph name="w" format="1">
  <advance width="691"/>
  <unicode hex="0077"/>
  <outline>
    <contour>
      <point x="346" y="216" type="line"/>
      <point x="341" y="186"/>
      <point x="338" y="156"/>
      <point x="338" y="124" type="curve" smooth="yes"/>
      <point x="338" y="48"/>
      <point x="357" y="-18"/>
      <point x="427" y="-18" type="curve" smooth="yes"/>
      <point x="601" y="-18"/>
      <point x="646" y="212"/>
      <point x="685" y="393" type="curve" smooth="yes"/>
      <point x="696" y="444" type="line"/>
      <point x="695" y="456"/>
      <point x="660" y="468"/>
      <point x="631" y="468" type="curve" smooth="yes"/>
      <point x="609" y="468"/>
      <point x="590" y="461"/>
      <point x="587" y="442" type="curve" smooth="yes"/>
      <point x="565" y="321"/>
      <point x="510" y="82"/>
      <point x="440" y="82" type="curve" smooth="yes"/>
      <point x="418" y="82"/>
      <point x="403" y="112"/>
      <point x="403" y="155" type="curve" smooth="yes"/>
      <point x="403" y="253"/>
      <point x="441" y="415"/>
      <point x="441" y="425" type="curve" smooth="yes"/>
      <point x="441" y="458"/>
      <point x="429" y="473"/>
      <point x="393" y="473" type="curve" smooth="yes"/>
      <point x="377" y="473"/>
      <point x="346" y="458"/>
      <point x="343" y="440" type="curve" smooth="yes"/>
      <point x="321" y="319"/>
      <point x="238" y="82"/>
      <point x="180" y="82" type="curve" smooth="yes"/>
      <point x="159" y="82"/>
      <point x="152" y="121"/>
      <point x="152" y="166" type="curve" smooth="yes"/>
      <point x="152" y="267"/>
      <point x="218" y="414"/>
      <point x="218" y="429" type="curve" smooth="yes"/>
      <point x="218" y="461"/>
      <point x="200" y="475"/>
      <point x="166" y="475" type="curve" smooth="yes"/>
      <point x="128" y="475"/>
      <point x="111" y="454"/>
      <point x="102" y="433" type="curve" smooth="yes"/>
      <point x="79" y="381"/>
      <point x="42" y="274"/>
      <point x="42" y="162" type="curve" smooth="yes"/>
      <point x="42" y="56"/>
      <point x="69" y="-18"/>
      <point x="142" y="-18" type="curve" smooth="yes"/>
      <point x="215" y="-18"/>
      <point x="294" y="67"/>
      <point x="342" y="216" type="curve"/>
    </contour>
  </outline>
</glyph>
<glyph name="x" format="1">
  <advance width="511"/>
  <unicode hex="0078"/>
  <outline>
    <contour>
      <point x="329" y="9"/>
      <point x="349" y="-6"/>
      <point x="364" y="-6" type="curve" smooth="yes"/>
      <point x="380" y="-6"/>
      <point x="389" y="-4"/>
      <point x="398" y="3" type="curve" smooth="yes"/>
      <point x="409" y="11"/>
      <point x="413" y="20"/>
      <point x="413" y="28" type="curve" smooth="yes"/>
      <point x="413" y="44"/>
      <point x="408" y="61"/>
      <point x="394" y="83" type="curve" smooth="yes"/>
      <point x="303" y="232"/>
      <point x="233" y="360"/>
      <point x="233" y="435" type="curve" smooth="yes"/>
      <point x="233" y="441"/>
      <point x="234" y="445"/>
      <point x="234" y="450" type="curve" smooth="yes"/>
      <point x="234" y="471"/>
      <point x="201" y="481"/>
      <point x="183" y="481" type="curve" smooth="yes"/>
      <point x="143" y="481"/>
      <point x="112" y="474"/>
      <point x="112" y="432" type="curve" smooth="yes"/>
      <point x="112" y="341"/>
      <point x="240" y="119"/>
      <point x="307" y="35" type="curve" smooth="yes"/>
    </contour>
    <contour>
      <point x="487" y="415"/>
      <point x="501" y="405"/>
      <point x="501" y="438" type="curve" smooth="yes"/>
      <point x="501" y="457"/>
      <point x="500" y="490"/>
      <point x="451" y="490" type="curve" smooth="yes"/>
      <point x="413" y="490"/>
      <point x="335" y="409"/>
      <point x="236" y="291" type="curve" smooth="yes"/>
      <point x="177" y="221"/>
      <point x="43" y="73"/>
      <point x="25" y="57" type="curve" smooth="yes"/>
      <point x="5" y="39" type="line"/>
      <point x="4" y="34"/>
      <point x="4" y="29"/>
      <point x="4" y="25" type="curve" smooth="yes"/>
      <point x="4" y="6"/>
      <point x="32" y="-20"/>
      <point x="49" y="-20" type="curve" smooth="yes"/>
      <point x="62" y="-20"/>
      <point x="75" y="-17"/>
      <point x="88" y="-8" type="curve" smooth="yes"/>
      <point x="138" y="27"/>
      <point x="401" y="339"/>
      <point x="448" y="381" type="curve" smooth="yes"/>
    </contour>
  </outline>
</glyph>
<glyph name="y" format="1">
  <advance width="519"/>
  <unicode hex="0079"/>
  <outline>
    <contour>
      <point x="275" y="-45" type="line" smooth="yes"/>
      <point x="247" y="-141"/>
      <point x="193" y="-178"/>
      <point x="163" y="-178" type="curve" smooth="yes"/>
      <point x="100" y="-178"/>
      <point x="104" y="-127"/>
      <point x="57" y="-127" type="curve" smooth="yes"/>
      <point x="13" y="-127"/>
      <point x="3" y="-151"/>
      <point x="3" y="-176" type="curve" smooth="yes"/>
      <point x="3" y="-205"/>
      <point x="38" y="-261"/>
      <point x="144" y="-261" type="curve" smooth="yes"/>
      <point x="297" y="-261"/>
      <point x="361" y="-193"/>
      <point x="412" y="3" type="curve" smooth="yes"/>
      <point x="439" y="107"/>
      <point x="477" y="270"/>
      <point x="513" y="419" type="curve" smooth="yes"/>
      <point x="515" y="428"/>
      <point x="519" y="436"/>
      <point x="519" y="444" type="curve" smooth="yes"/>
      <point x="519" y="461"/>
      <point x="507" y="476"/>
      <point x="466" y="476" type="curve" smooth="yes"/>
      <point x="408" y="476"/>
      <point x="392" y="421"/>
      <point x="382" y="385" type="curve" smooth="yes"/>
      <point x="346" y="251"/>
      <point x="338" y="206"/>
      <point x="319" y="133" type="curve"/>
      <point x="287" y="100"/>
      <point x="234" y="71"/>
      <point x="191" y="71" type="curve" smooth="yes"/>
      <point x="157" y="71"/>
      <point x="145" y="92"/>
      <point x="145" y="118" type="curve" smooth="yes"/>
      <point x="145" y="126"/>
      <point x="146" y="134"/>
      <point x="148" y="142" type="curve" smooth="yes"/>
      <point x="215" y="410" type="line" smooth="yes"/>
      <point x="219" y="425"/>
      <point x="222" y="438"/>
      <point x="222" y="448" type="curve" smooth="yes"/>
      <point x="222" y="467"/>
      <point x="207" y="477"/>
      <point x="170" y="477" type="curve" smooth="yes"/>
      <point x="121" y="477"/>
      <point x="105" y="462"/>
      <point x="98" y="434" type="curve" smooth="yes"/>
      <point x="31" y="173" type="line" smooth="yes"/>
      <point x="27" y="157"/>
      <point x="25" y="142"/>
      <point x="25" y="129" type="curve" smooth="yes"/>
      <point x="25" y="41"/>
      <point x="72" y="-21"/>
      <point x="162" y="-21" type="curve" smooth="yes"/>
      <point x="218" y="-21"/>
      <point x="257" y="1"/>
      <point x="300" y="42" type="curve"/>
    </contour>
  </outline>
</glyph>
<glyph name="braceleft" format="1">
  <advance width="380"/>
  <unicode hex="007B"/>
  <outline>
    <contour>
      <point x="43" y="280" type="line"/>
      <point x="95" y="260"/>
      <point x="131" y="255"/>
      <point x="131" y="208" type="curve" smooth="yes"/>
      <point x="131" y="200"/>
      <point x="130" y="191"/>
      <point x="127" y="180" type="curve"/>
      <point x="86" y="1" type="line" smooth="yes"/>
      <point x="82" y="-15"/>
      <point x="80" y="-30"/>
      <point x="80" y="-43" type="curve" smooth="yes"/>
      <point x="80" y="-114"/>
      <point x="114" y="-158"/>
      <point x="222" y="-158" type="curve" smooth="yes"/>
      <point x="250" y="-158"/>
      <point x="298" y="-139"/>
      <point x="298" y="-120" type="curve" smooth="yes"/>
      <point x="298" y="-106"/>
      <point x="293" y="-93"/>
      <point x="283" y="-86" type="curve"/>
      <point x="223" y="-85"/>
      <point x="190" y="-66"/>
      <point x="190" y="-21" type="curve" smooth="yes"/>
      <point x="190" y="-13"/>
      <point x="191" y="-4"/>
      <point x="194" y="7" type="curve"/>
      <point x="236" y="186" type="line" smooth="yes"/>
      <point x="239" y="201"/>
      <point x="241" y="213"/>
      <point x="241" y="222" type="curve" smooth="yes"/>
      <point x="241" y="269"/>
      <point x="212" y="297"/>
      <point x="155" y="308" type="curve"/>
      <point x="156" y="314" type="line"/>
      <point x="232" y="327"/>
      <point x="277" y="368"/>
      <point x="293" y="436" type="curve" smooth="yes"/>
      <point x="329" y="586" type="line" smooth="yes"/>
      <point x="343" y="647"/>
      <point x="365" y="674"/>
      <point x="463" y="680" type="curve" smooth="yes"/>
      <point x="487" y="681"/>
      <point x="501" y="710"/>
      <point x="501" y="729" type="curve" smooth="yes"/>
      <point x="501" y="742"/>
      <point x="494" y="752"/>
      <point x="479" y="752" type="curve" smooth="yes"/>
      <point x="284" y="752"/>
      <point x="249" y="695"/>
      <point x="225" y="594" type="curve" smooth="yes"/>
      <point x="188" y="440" type="line" smooth="yes"/>
      <point x="173" y="376"/>
      <point x="140" y="363"/>
      <point x="92" y="360" type="curve" smooth="yes"/>
      <point x="46" y="357"/>
      <point x="43" y="322"/>
      <point x="43" y="294" type="curve" smooth="yes"/>
    </contour>
  </outline>
</glyph>
<glyph name="bar" format="1">
  <advance width="430"/>
  <unicode hex="007C"/>
  <outline>
    <contour>
      <point x="266" y="729"/>
      <point x="90" y="-50"/>
      <point x="87" y="-73" type="curve"/>
      <point x="87" y="-79" type="line" smooth="yes"/>
      <point x="87" y="-101"/>
      <point x="108" y="-120"/>
      <point x="127" y="-120" type="curve" smooth="yes"/>
      <point x="142" y="-120"/>
      <point x="157" y="-115"/>
      <point x="166" y="-110" type="curve" smooth="yes"/>
      <point x="180" y="-102"/>
      <point x="350" y="624"/>
      <point x="381" y="747" type="curve"/>
      <point x="382" y="750"/>
      <point x="382" y="753"/>
      <point x="382" y="757" type="curve" smooth="yes"/>
      <point x="382" y="792"/>
      <point x="345" y="840"/>
      <point x="311" y="840" type="curve" smooth="yes"/>
      <point x="293" y="840"/>
      <point x="277" y="800"/>
      <point x="274" y="781" type="curve" smooth="yes"/>
    </contour>
  </outline>
</glyph>
<glyph name="braceright" format="1">
  <advance width="382"/>
  <unicode hex="007D"/>
  <outline>
    <contour>
      <point x="298" y="333"/>
      <point x="287" y="351"/>
      <point x="287" y="398" type="curve" smooth="yes"/>
      <point x="287" y="407"/>
      <point x="289" y="416"/>
      <point x="291" y="427" type="curve" smooth="yes"/>
      <point x="327" y="596" type="line"/>
      <point x="331" y="612"/>
      <point x="332" y="626"/>
      <point x="332" y="639" type="curve" smooth="yes"/>
      <point x="332" y="714"/>
      <point x="251" y="749"/>
      <point x="141" y="750" type="curve"/>
      <point x="116" y="740"/>
      <point x="106" y="727"/>
      <point x="106" y="714" type="curve" smooth="yes"/>
      <point x="106" y="702"/>
      <point x="113" y="691"/>
      <point x="125" y="678" type="curve"/>
      <point x="183" y="677"/>
      <point x="225" y="657"/>
      <point x="225" y="612" type="curve" smooth="yes"/>
      <point x="225" y="604"/>
      <point x="224" y="595"/>
      <point x="222" y="585" type="curve" smooth="yes"/>
      <point x="185" y="421" type="line" smooth="yes"/>
      <point x="182" y="408"/>
      <point x="181" y="397"/>
      <point x="181" y="386" type="curve" smooth="yes"/>
      <point x="181" y="338"/>
      <point x="202" y="310"/>
      <point x="258" y="299" type="curve"/>
      <point x="257" y="293" type="line"/>
      <point x="181" y="280"/>
      <point x="135" y="240"/>
      <point x="119" y="171" type="curve" smooth="yes"/>
      <point x="74" y="-16" type="line" smooth="yes"/>
      <point x="59" y="-77"/>
      <point x="33" y="-81"/>
      <point x="-44" y="-87" type="curve" smooth="yes"/>
      <point x="-67" y="-89"/>
      <point x="-76" y="-100"/>
      <point x="-76" y="-112" type="curve" smooth="yes"/>
      <point x="-76" y="-137"/>
      <point x="-24" y="-163"/>
      <point x="4" y="-163" type="curve" smooth="yes"/>
      <point x="138" y="-163"/>
      <point x="160" y="-114"/>
      <point x="181" y="-24" type="curve" smooth="yes"/>
      <point x="222" y="149" type="line" smooth="yes"/>
      <point x="238" y="216"/>
      <point x="266" y="224"/>
      <point x="345" y="239" type="curve" smooth="yes"/>
      <point x="367" y="243"/>
      <point x="376" y="259"/>
      <point x="376" y="275" type="curve" smooth="yes"/>
      <point x="376" y="279"/>
      <point x="377" y="287"/>
      <point x="377" y="295" type="curve" smooth="yes"/>
      <point x="377" y="307"/>
      <point x="375" y="322"/>
      <point x="366" y="333" type="curve"/>
    </contour>
  </outline>
</glyph>
<glyph name="asciitilde" format="1">
  <advance width="572"/>
  <unicode hex="007E"/>
  <outline>
    <contour>
      <point x="238" y="332"/>
      <point x="263" y="326"/>
      <point x="304" y="305" type="curve" smooth="yes"/>
      <point x="344" y="285"/>
      <point x="376" y="273"/>
      <point x="424" y="273" type="curve" smooth="yes"/>
      <point x="465" y="273"/>
      <point x="575" y="319"/>
      <point x="575" y="380" type="curve" smooth="yes"/>
      <point x="575" y="387"/>
      <point x="573" y="389"/>
      <point x="570" y="389" type="curve" smooth="yes"/>
      <point x="566" y="389"/>
      <point x="561" y="399"/>
      <point x="553" y="399" type="curve" smooth="yes"/>
      <point x="548" y="399"/>
      <point x="544" y="398"/>
      <point x="539" y="395" type="curve" smooth="yes"/>
      <point x="513" y="379"/>
      <point x="490" y="358"/>
      <point x="455" y="358" type="curve" smooth="yes"/>
      <point x="424" y="358"/>
      <point x="400" y="365"/>
      <point x="361" y="385" type="curve" smooth="yes"/>
      <point x="316" y="408"/>
      <point x="276" y="420"/>
      <point x="231" y="420" type="curve" smooth="yes"/>
      <point x="162" y="420"/>
      <point x="49" y="369"/>
      <point x="49" y="327" type="curve" smooth="yes"/>
      <point x="49" y="289"/>
      <point x="63" y="281"/>
      <point x="82" y="273" type="curve"/>
      <point x="130" y="308"/>
      <point x="173" y="332"/>
      <point x="208" y="332" type="curve" smooth="yes"/>
    </contour>
  </outline>
</glyph>
<glyph name="exclamdown" format="1">
  <advance width="268"/>
  <unicode hex="00A1"/>
  <outline>
    <contour>
      <point x="-18" y="-160" type="line"/>
      <point x="-19" y="-163"/>
      <point x="-19" y="-166"/>
      <point x="-19" y="-169" type="curve" smooth="yes"/>
      <point x="-19" y="-190"/>
      <point x="1" y="-201"/>
      <point x="35" y="-201" type="curve" smooth="yes"/>
      <point x="74" y="-201"/>
      <point x="98" y="-185"/>
      <point x="106" y="-152" type="curve" smooth="yes"/>
      <point x="215" y="277" type="line"/>
      <point x="215" y="303"/>
      <point x="190" y="316"/>
      <point x="153" y="316" type="curve" smooth="yes"/>
      <point x="108" y="316"/>
      <point x="84" y="305"/>
      <point x="76" y="269" type="curve" smooth="yes"/>
    </contour>
    <contour>
      <point x="142" y="488"/>
      <point x="96" y="453"/>
      <point x="96" y="411" type="curve" smooth="yes"/>
      <point x="96" y="368"/>
      <point x="131" y="352"/>
      <point x="169" y="352" type="curve" smooth="yes"/>
      <point x="219" y="352"/>
      <point x="252" y="391"/>
      <point x="252" y="423" type="curve" smooth="yes"/>
      <point x="252" y="458"/>
      <point x="223" y="488"/>
      <point x="188" y="488" type="curve" smooth="yes"/>
    </contour>
  </outline>
</glyph>
<glyph name="cent" format="1">
  <advance width="572"/>
  <unicode hex="00A2"/>
  <outline>
    <contour>
      <point x="455" y="145"/>
      <point x="448" y="180"/>
      <point x="385" y="180" type="curve" smooth="yes"/>
      <point x="357" y="180"/>
      <point x="328" y="127"/>
      <point x="323" y="118" type="curve" smooth="yes"/>
      <point x="310" y="93"/>
      <point x="246" y="79"/>
      <point x="217" y="79" type="curve" smooth="yes"/>
      <point x="160" y="79"/>
      <point x="128" y="113"/>
      <point x="128" y="159" type="curve" smooth="yes"/>
      <point x="128" y="319"/>
      <point x="300" y="430"/>
      <point x="356" y="430" type="curve" smooth="yes"/>
      <point x="373" y="430"/>
      <point x="397" y="421"/>
      <point x="397" y="403" type="curve" smooth="yes"/>
      <point x="397" y="397"/>
      <point x="396" y="389"/>
      <point x="396" y="380" type="curve" smooth="yes"/>
      <point x="396" y="361"/>
      <point x="401" y="340"/>
      <point x="437" y="340" type="curve" smooth="yes"/>
      <point x="478" y="340"/>
      <point x="503" y="363"/>
      <point x="503" y="391" type="curve" smooth="yes"/>
      <point x="503" y="469"/>
      <point x="444" y="515"/>
      <point x="371" y="515" type="curve" smooth="yes"/>
      <point x="184" y="515"/>
      <point x="10" y="318"/>
      <point x="10" y="147" type="curve" smooth="yes"/>
      <point x="10" y="67"/>
      <point x="63" y="-9"/>
      <point x="202" y="-9" type="curve" smooth="yes"/>
      <point x="337" y="-9"/>
      <point x="434" y="69"/>
      <point x="456" y="130" type="curve"/>
    </contour>
    <contour>
      <point x="398" y="617"/>
      <point x="375" y="641"/>
      <point x="345" y="641" type="curve" smooth="yes"/>
      <point x="328" y="641"/>
      <point x="303" y="632"/>
      <point x="298" y="612" type="curve"/>
      <point x="288" y="529" type="line"/>
      <point x="257" y="380"/>
      <point x="237" y="305"/>
      <point x="190" y="130" type="curve" smooth="yes"/>
      <point x="179" y="88"/>
      <point x="129" y="-78"/>
      <point x="127" y="-83" type="curve"/>
      <point x="130" y="-130"/>
      <point x="135" y="-136"/>
      <point x="162" y="-136" type="curve" smooth="yes"/>
      <point x="198" y="-136"/>
      <point x="214" y="-114"/>
      <point x="227" y="-82" type="curve" smooth="yes"/>
      <point x="242" y="-44"/>
      <point x="366" y="418"/>
      <point x="400" y="583" type="curve"/>
    </contour>
  </outline>
</glyph>
<glyph name="sterling" format="1">
  <advance width="530"/>
  <unicode hex="00A3"/>
  <outline>
    <contour>
      <point x="389" y="352" type="line"/>
      <point x="388" y="383"/>
      <point x="369" y="394"/>
      <point x="337" y="394" type="curve"/>
      <point x="227" y="387" type="line"/>
      <point x="257" y="511" type="line" smooth="yes"/>
      <point x="276" y="590"/>
      <point x="320" y="625"/>
      <point x="395" y="625" type="curve" smooth="yes"/>
      <point x="450" y="625"/>
      <point x="457" y="579"/>
      <point x="491" y="551" type="curve" smooth="yes"/>
      <point x="502" y="542"/>
      <point x="519" y="538"/>
      <point x="530" y="538" type="curve" smooth="yes"/>
      <point x="557" y="538"/>
      <point x="575" y="576"/>
      <point x="575" y="599" type="curve" smooth="yes"/>
      <point x="575" y="653"/>
      <point x="499" y="713"/>
      <point x="394" y="713" type="curve" smooth="yes"/>
      <point x="268" y="713"/>
      <point x="183" y="637"/>
      <point x="155" y="524" type="curve" smooth="yes"/>
      <point x="143" y="478"/>
      <point x="132" y="429"/>
      <point x="120" y="383" type="curve"/>
      <point x="46" y="379"/>
      <point x="20" y="370"/>
      <point x="17" y="327" type="curve"/>
      <point x="17" y="319" type="line"/>
      <point x="19" y="291"/>
      <point x="33" y="281"/>
      <point x="71" y="281" type="curve" smooth="yes"/>
      <point x="98" y="281" type="line"/>
      <point x="76" y="182"/>
      <point x="50" y="106"/>
      <point x="-37" y="85" type="curve"/>
      <point x="-56" y="72"/>
      <point x="-64" y="54"/>
      <point x="-64" y="37" type="curve" smooth="yes"/>
      <point x="-64" y="18"/>
      <point x="-46" y="-19"/>
      <point x="-26" y="-19" type="curve"/>
      <point x="-6" y="-16"/>
      <point x="18" y="-10"/>
      <point x="35" y="5" type="curve"/>
      <point x="117" y="18"/>
      <point x="204" y="28"/>
      <point x="283" y="28" type="curve" smooth="yes"/>
      <point x="331" y="28"/>
      <point x="380" y="24"/>
      <point x="430" y="17" type="curve"/>
      <point x="456" y="17"/>
      <point x="474" y="52"/>
      <point x="474" y="77" type="curve" smooth="yes"/>
      <point x="474" y="95"/>
      <point x="468" y="111"/>
      <point x="451" y="113" type="curve" smooth="yes"/>
      <point x="408" y="118"/>
      <point x="361" y="119"/>
      <point x="314" y="119" type="curve" smooth="yes"/>
      <point x="251" y="119"/>
      <point x="191" y="116"/>
      <point x="124" y="105" type="curve"/>
      <point x="170" y="142"/>
      <point x="180" y="186"/>
      <point x="197" y="254" type="curve" smooth="yes"/>
      <point x="206" y="289" type="line"/>
      <point x="312" y="296" type="line" smooth="yes"/>
      <point x="354" y="299"/>
      <point x="387" y="301"/>
      <point x="389" y="346" type="curve"/>
    </contour>
  </outline>
</glyph>
<glyph name="currency" format="1">
  <advance width="556"/>
  <unicode hex="00A4"/>
  <outline>
    <contour>
      <point x="272" y="88"/>
      <point x="307" y="99"/>
      <point x="337" y="117" type="curve"/>
      <point x="342" y="110"/>
      <point x="347" y="102"/>
      <point x="353" y="95" type="curve"/>
      <point x="369" y="84"/>
      <point x="389" y="84"/>
      <point x="404" y="84" type="curve" smooth="yes"/>
      <point x="428" y="84"/>
      <point x="450" y="90"/>
      <point x="450" y="120" type="curve" smooth="yes"/>
      <point x="450" y="140"/>
      <point x="441" y="164"/>
      <point x="433" y="179" type="curve"/>
      <point x="422" y="196" type="line"/>
      <point x="450" y="236"/>
      <point x="454" y="257"/>
      <point x="454" y="285" type="curve" smooth="yes"/>
      <point x="454" y="308"/>
      <point x="450" y="328"/>
      <point x="444" y="346" type="curve"/>
      <point x="523" y="411" type="line"/>
      <point x="523" y="416"/>
      <point x="524" y="423"/>
      <point x="524" y="430" type="curve" smooth="yes"/>
      <point x="524" y="454"/>
      <point x="519" y="479"/>
      <point x="495" y="479" type="curve" smooth="yes"/>
      <point x="490" y="479"/>
      <point x="467" y="478"/>
      <point x="459" y="475" type="curve"/>
      <point x="389" y="414" type="line"/>
      <point x="365" y="428"/>
      <point x="336" y="435"/>
      <point x="305" y="435" type="curve" smooth="yes"/>
      <point x="270" y="435"/>
      <point x="238" y="428"/>
      <point x="209" y="415" type="curve"/>
      <point x="177" y="459" type="line"/>
      <point x="173" y="461"/>
      <point x="167" y="461"/>
      <point x="161" y="461" type="curve" smooth="yes"/>
      <point x="150" y="461" type="line" smooth="yes"/>
      <point x="115" y="461"/>
      <point x="92" y="441"/>
      <point x="92" y="416" type="curve" smooth="yes"/>
      <point x="92" y="409"/>
      <point x="93" y="401"/>
      <point x="99" y="393" type="curve" smooth="yes"/>
      <point x="126" y="357" type="line"/>
      <point x="92" y="321"/>
      <point x="78" y="289"/>
      <point x="78" y="253" type="curve" smooth="yes"/>
      <point x="78" y="235"/>
      <point x="81" y="215"/>
      <point x="88" y="193" type="curve"/>
      <point x="45" y="155"/>
      <point x="13" y="126"/>
      <point x="13" y="120" type="curve" smooth="yes"/>
      <point x="13" y="98"/>
      <point x="31" y="68"/>
      <point x="65" y="68" type="curve" smooth="yes"/>
      <point x="77" y="68"/>
      <point x="91" y="72"/>
      <point x="107" y="80" type="curve"/>
      <point x="144" y="114" type="line"/>
      <point x="169" y="97"/>
      <point x="200" y="88"/>
      <point x="237" y="88" type="curve" smooth="yes"/>
    </contour>
    <contour>
      <point x="218" y="159"/>
      <point x="180" y="182"/>
      <point x="180" y="228" type="curve" smooth="yes"/>
      <point x="180" y="301"/>
      <point x="214" y="361"/>
      <point x="288" y="361" type="curve" smooth="yes"/>
      <point x="328" y="361"/>
      <point x="354" y="341"/>
      <point x="354" y="298" type="curve" smooth="yes"/>
      <point x="354" y="208"/>
      <point x="308" y="159"/>
      <point x="251" y="159" type="curve" smooth="yes"/>
    </contour>
  </outline>
</glyph>
<glyph name="yen" format="1">
  <advance width="555"/>
  <unicode hex="00A5"/>
  <outline>
    <contour>
      <point x="6" y="259" type="line"/>
      <point x="8" y="238"/>
      <point x="22" y="232"/>
      <point x="53" y="230" type="curve"/>
      <point x="68" y="230"/>
      <point x="82" y="233"/>
      <point x="96" y="234" type="curve" smooth="yes"/>
      <point x="116" y="235" type="line"/>
      <point x="101" y="169" type="line"/>
      <point x="52" y="169" type="line" smooth="yes"/>
      <point x="38" y="169"/>
      <point x="24" y="169"/>
      <point x="12" y="171" type="curve"/>
      <point x="7" y="171" type="line" smooth="yes"/>
      <point x="-2" y="171"/>
      <point x="-7" y="167"/>
      <point x="-8" y="161" type="curve"/>
      <point x="-15" y="129" type="line"/>
      <point x="-13" y="108"/>
      <point x="1" y="102"/>
      <point x="32" y="100" type="curve"/>
      <point x="47" y="100"/>
      <point x="61" y="103"/>
      <point x="75" y="104" type="curve"/>
      <point x="88" y="104" type="line"/>
      <point x="78" y="59" type="line"/>
      <point x="76" y="52"/>
      <point x="75" y="45"/>
      <point x="75" y="38" type="curve" smooth="yes"/>
      <point x="75" y="3"/>
      <point x="86" y="-8"/>
      <point x="125" y="-8" type="curve" smooth="yes"/>
      <point x="180" y="-8"/>
      <point x="184" y="4"/>
      <point x="193" y="41" type="curve" smooth="yes"/>
      <point x="210" y="112" type="line"/>
      <point x="288" y="116" type="line" smooth="yes"/>
      <point x="325" y="118"/>
      <point x="348" y="122"/>
      <point x="353" y="153" type="curve" smooth="yes"/>
      <point x="356" y="173" type="line"/>
      <point x="356" y="183"/>
      <point x="346" y="186"/>
      <point x="324" y="186" type="curve" smooth="yes"/>
      <point x="302" y="186"/>
      <point x="264" y="182"/>
      <point x="225" y="179" type="curve"/>
      <point x="230" y="200"/>
      <point x="235" y="221"/>
      <point x="239" y="242" type="curve"/>
      <point x="309" y="246" type="line" smooth="yes"/>
      <point x="346" y="248"/>
      <point x="369" y="252"/>
      <point x="374" y="283" type="curve" smooth="yes"/>
      <point x="377" y="303" type="line"/>
      <point x="377" y="313"/>
      <point x="367" y="316"/>
      <point x="345" y="316" type="curve" smooth="yes"/>
      <point x="324" y="316"/>
      <point x="290" y="313"/>
      <point x="254" y="309" type="curve"/>
      <point x="259" y="336"/>
      <point x="260" y="343"/>
      <point x="264" y="361" type="curve"/>
      <point x="305" y="405"/>
      <point x="481" y="535"/>
      <point x="573" y="624" type="curve"/>
      <point x="572" y="642"/>
      <point x="527" y="660"/>
      <point x="475" y="660" type="curve" smooth="yes"/>
      <point x="435" y="660"/>
      <point x="301" y="510"/>
      <point x="230" y="441" type="curve"/>
      <point x="210" y="489"/>
      <point x="193" y="581"/>
      <point x="193" y="613" type="curve" smooth="yes"/>
      <point x="193" y="616"/>
      <point x="193" y="617"/>
      <point x="193" y="617" type="curve"/>
      <point x="193" y="645"/>
      <point x="165" y="659"/>
      <point x="132" y="659" type="curve" smooth="yes"/>
      <point x="90" y="659"/>
      <point x="68" y="644"/>
      <point x="68" y="627" type="curve" smooth="yes"/>
      <point x="68" y="623" type="line"/>
      <point x="91" y="526"/>
      <point x="114" y="440"/>
      <point x="137" y="355" type="curve"/>
      <point x="127" y="300" type="line"/>
      <point x="109" y="299"/>
      <point x="91" y="299"/>
      <point x="73" y="299" type="curve" smooth="yes"/>
      <point x="59" y="299"/>
      <point x="45" y="299"/>
      <point x="33" y="301" type="curve"/>
      <point x="28" y="301" type="line" smooth="yes"/>
      <point x="19" y="301"/>
      <point x="14" y="297"/>
      <point x="13" y="291" type="curve"/>
    </contour>
  </outline>
</glyph>
<glyph name="brokenbar" format="1">
  <advance width="551"/>
  <unicode hex="00A6"/>
  <outline>
    <contour>
      <point x="150" y="6"/>
      <point x="109" y="-186"/>
      <point x="108" y="-197" type="curve"/>
      <point x="108" y="-203" type="line" smooth="yes"/>
      <point x="108" y="-225"/>
      <point x="129" y="-244"/>
      <point x="148" y="-244" type="curve" smooth="yes"/>
      <point x="163" y="-244"/>
      <point x="178" y="-239"/>
      <point x="187" y="-234" type="curve" smooth="yes"/>
      <point x="194" y="-230"/>
      <point x="246" y="-8"/>
      <point x="310" y="255" type="curve"/>
      <point x="310" y="290"/>
      <point x="290" y="322"/>
      <point x="256" y="322" type="curve" smooth="yes"/>
      <point x="241" y="322"/>
      <point x="227" y="315"/>
      <point x="215" y="300" type="curve"/>
    </contour>
    <contour>
      <point x="370" y="493"/>
      <point x="395" y="602"/>
      <point x="430" y="747" type="curve"/>
      <point x="431" y="750"/>
      <point x="431" y="753"/>
      <point x="431" y="757" type="curve" smooth="yes"/>
      <point x="431" y="792"/>
      <point x="394" y="840"/>
      <point x="360" y="840" type="curve" smooth="yes"/>
      <point x="342" y="840"/>
      <point x="326" y="800"/>
      <point x="323" y="781" type="curve"/>
      <point x="294" y="649"/>
      <point x="275" y="577"/>
      <point x="251" y="470" type="curve"/>
      <point x="245" y="459"/>
      <point x="242" y="449"/>
      <point x="242" y="441" type="curve" smooth="yes"/>
      <point x="242" y="411"/>
      <point x="275" y="368"/>
      <point x="310" y="368" type="curve" smooth="yes"/>
      <point x="320" y="368"/>
      <point x="331" y="369"/>
      <point x="340" y="372" type="curve"/>
    </contour>
  </outline>
</glyph>
<glyph name="section" format="1">
  <advance width="628"/>
  <unicode hex="00A7"/>
  <outline>
    <contour>
      <point x="555" y="282"/>
      <point x="454" y="311"/>
      <point x="364" y="353" type="curve" smooth="yes"/>
      <point x="304" y="381"/>
      <point x="236" y="395"/>
      <point x="236" y="452" type="curve" smooth="yes"/>
      <point x="236" y="515"/>
      <point x="279" y="568"/>
      <point x="361" y="568" type="curve" smooth="yes"/>
      <point x="440" y="568"/>
      <point x="481" y="545"/>
      <point x="487" y="527" type="curve"/>
      <point x="482" y="517"/>
      <point x="468" y="437"/>
      <point x="468" y="431" type="curve" smooth="yes"/>
      <point x="468" y="403"/>
      <point x="479" y="379"/>
      <point x="518" y="379" type="curve" smooth="yes"/>
      <point x="580" y="379"/>
      <point x="609" y="467"/>
      <point x="609" y="504" type="curve" smooth="yes"/>
      <point x="609" y="572"/>
      <point x="543" y="657"/>
      <point x="353" y="657" type="curve" smooth="yes"/>
      <point x="257" y="657"/>
      <point x="98" y="610"/>
      <point x="98" y="453" type="curve" smooth="yes"/>
      <point x="98" y="403"/>
      <point x="116" y="367"/>
      <point x="143" y="339" type="curve"/>
      <point x="77" y="310"/>
      <point x="21" y="256"/>
      <point x="21" y="163" type="curve" smooth="yes"/>
      <point x="21" y="65"/>
      <point x="93" y="19"/>
      <point x="162" y="-15" type="curve" smooth="yes"/>
      <point x="237" y="-52"/>
      <point x="333" y="-75"/>
      <point x="333" y="-135" type="curve" smooth="yes"/>
      <point x="333" y="-187"/>
      <point x="261" y="-214"/>
      <point x="197" y="-214" type="curve" smooth="yes"/>
      <point x="141" y="-214"/>
      <point x="39" y="-173"/>
      <point x="28" y="-112" type="curve"/>
      <point x="-32" y="-121"/>
      <point x="-68" y="-146"/>
      <point x="-68" y="-185" type="curve" smooth="yes"/>
      <point x="-68" y="-245"/>
      <point x="41" y="-318"/>
      <point x="180" y="-318" type="curve" smooth="yes"/>
      <point x="357" y="-318"/>
      <point x="478" y="-251"/>
      <point x="478" y="-135" type="curve" smooth="yes"/>
      <point x="478" y="-72"/>
      <point x="453" y="-33"/>
      <point x="417" y="-4" type="curve"/>
      <point x="503" y="24"/>
      <point x="555" y="79"/>
      <point x="555" y="155" type="curve" smooth="yes"/>
    </contour>
    <contour>
      <point x="410" y="103"/>
      <point x="338" y="76"/>
      <point x="274" y="76" type="curve" smooth="yes"/>
      <point x="267" y="76"/>
      <point x="261" y="76"/>
      <point x="253" y="77" type="curve"/>
      <point x="204" y="97"/>
      <point x="159" y="115"/>
      <point x="159" y="162" type="curve" smooth="yes"/>
      <point x="159" y="214"/>
      <point x="188" y="258"/>
      <point x="243" y="273" type="curve"/>
      <point x="317" y="237"/>
      <point x="410" y="214"/>
      <point x="410" y="155" type="curve" smooth="yes"/>
    </contour>
  </outline>
</glyph>
<glyph name="dieresis" format="1">
  <advance width="580"/>
  <unicode hex="00A8"/>
  <outline>
    <contour>
      <point x="149" y="646"/>
      <point x="169" y="631"/>
      <point x="196" y="631" type="curve" smooth="yes"/>
      <point x="221" y="631"/>
      <point x="243" y="646"/>
      <point x="243" y="681" type="curve" smooth="yes"/>
      <point x="243" y="716"/>
      <point x="221" y="730"/>
      <point x="196" y="730" type="curve" smooth="yes"/>
      <point x="169" y="730"/>
      <point x="149" y="716"/>
      <point x="149" y="681" type="curve" smooth="yes"/>
    </contour>
    <contour>
      <point x="337" y="646"/>
      <point x="358" y="631"/>
      <point x="383" y="631" type="curve" smooth="yes"/>
      <point x="408" y="631"/>
      <point x="430" y="646"/>
      <point x="430" y="681" type="curve" smooth="yes"/>
      <point x="430" y="716"/>
      <point x="408" y="730"/>
      <point x="383" y="730" type="curve" smooth="yes"/>
      <point x="358" y="730"/>
      <point x="337" y="716"/>
      <point x="337" y="681" type="curve" smooth="yes"/>
    </contour>
  </outline>
</glyph>
<glyph name="copyright" format="1">
  <advance width="843"/>
  <unicode hex="00A9"/>
  <outline>
    <contour>
      <point x="572" y="264"/>
      <point x="565" y="302"/>
      <point x="506" y="302" type="curve" smooth="yes"/>
      <point x="477" y="302"/>
      <point x="450" y="252"/>
      <point x="445" y="242" type="curve" smooth="yes"/>
      <point x="437" y="227"/>
      <point x="405" y="211"/>
      <point x="389" y="211" type="curve" smooth="yes"/>
      <point x="360" y="211"/>
      <point x="338" y="227"/>
      <point x="338" y="250" type="curve" smooth="yes"/>
      <point x="338" y="358"/>
      <point x="422" y="438"/>
      <point x="475" y="438" type="curve" smooth="yes"/>
      <point x="480" y="438"/>
      <point x="488" y="433"/>
      <point x="488" y="409" type="curve" smooth="yes"/>
      <point x="488" y="386"/>
      <point x="492" y="360"/>
      <point x="534" y="360" type="curve" smooth="yes"/>
      <point x="574" y="360"/>
      <point x="599" y="386"/>
      <point x="599" y="418" type="curve" smooth="yes"/>
      <point x="599" y="491"/>
      <point x="550" y="533"/>
      <point x="488" y="533" type="curve" smooth="yes"/>
      <point x="349" y="533"/>
      <point x="230" y="414"/>
      <point x="230" y="255" type="curve" smooth="yes"/>
      <point x="230" y="182"/>
      <point x="268" y="118"/>
      <point x="379" y="118" type="curve" smooth="yes"/>
      <point x="480" y="118"/>
      <point x="555" y="186"/>
      <point x="574" y="246" type="curve"/>
    </contour>
    <contour>
      <point x="819" y="601"/>
      <point x="652" y="694"/>
      <point x="490" y="694" type="curve" smooth="yes"/>
      <point x="223" y="694"/>
      <point x="27" y="502"/>
      <point x="27" y="266" type="curve" smooth="yes"/>
      <point x="27" y="77"/>
      <point x="169" y="-16"/>
      <point x="382" y="-16" type="curve" smooth="yes"/>
      <point x="639" y="-16"/>
      <point x="819" y="157"/>
      <point x="819" y="399" type="curve" smooth="yes"/>
    </contour>
    <contour>
      <point x="225" y="75"/>
      <point x="136" y="151"/>
      <point x="136" y="269" type="curve" smooth="yes"/>
      <point x="136" y="478"/>
      <point x="327" y="604"/>
      <point x="483" y="604" type="curve" smooth="yes"/>
      <point x="601" y="604"/>
      <point x="711" y="528"/>
      <point x="711" y="389" type="curve" smooth="yes"/>
      <point x="711" y="232"/>
      <point x="606" y="75"/>
      <point x="416" y="75" type="curve" smooth="yes"/>
    </contour>
  </outline>
</glyph>
<glyph name="ordfeminine" format="1">
  <advance width="388"/>
  <unicode hex="00AA"/>
  <outline>
    <contour>
      <point x="111" y="670"/>
      <point x="30" y="563"/>
      <point x="30" y="455" type="curve" smooth="yes"/>
      <point x="30" y="366"/>
      <point x="87" y="338"/>
      <point x="144" y="338" type="curve" smooth="yes"/>
      <point x="157" y="338"/>
      <point x="194" y="350"/>
      <point x="211" y="377" type="curve"/>
      <point x="211" y="334"/>
      <point x="237" y="329"/>
      <point x="262" y="329" type="curve" smooth="yes"/>
      <point x="278" y="329"/>
      <point x="306" y="345"/>
      <point x="307" y="359" type="curve"/>
      <point x="306" y="371"/>
      <point x="306" y="379"/>
      <point x="306" y="392" type="curve" smooth="yes"/>
      <point x="306" y="409"/>
      <point x="324" y="493"/>
      <point x="359" y="630" type="curve"/>
      <point x="359" y="660"/>
      <point x="322" y="671"/>
      <point x="306" y="671" type="curve" smooth="yes"/>
      <point x="286" y="671"/>
      <point x="268" y="655"/>
      <point x="262" y="638" type="curve"/>
      <point x="254" y="660"/>
      <point x="237" y="670"/>
      <point x="215" y="670" type="curve" smooth="yes"/>
    </contour>
    <contour>
      <point x="214" y="466" type="line" smooth="yes"/>
      <point x="209" y="444"/>
      <point x="186" y="426"/>
      <point x="161" y="426" type="curve" smooth="yes"/>
      <point x="139" y="426"/>
      <point x="138" y="457"/>
      <point x="138" y="467" type="curve" smooth="yes"/>
      <point x="138" y="504"/>
      <point x="175" y="568"/>
      <point x="223" y="568" type="curve" smooth="yes"/>
      <point x="227" y="568"/>
      <point x="235" y="563"/>
      <point x="235" y="552" type="curve"/>
    </contour>
  </outline>
</glyph>
<glyph name="guillemetleft" format="1">
  <advance width="509"/>
  <unicode hex="00AB"/>
  <outline>
    <contour>
      <point x="313" y="455"/>
      <point x="284" y="468"/>
      <point x="260" y="468" type="curve" smooth="yes"/>
      <point x="237" y="468"/>
      <point x="225" y="465"/>
      <point x="139" y="375" type="curve" smooth="yes"/>
      <point x="75" y="307"/>
      <point x="41" y="278"/>
      <point x="41" y="246" type="curve" smooth="yes"/>
      <point x="41" y="210"/>
      <point x="175" y="74"/>
      <point x="194" y="74" type="curve" smooth="yes"/>
      <point x="220" y="74"/>
      <point x="252" y="104"/>
      <point x="252" y="137" type="curve" smooth="yes"/>
      <point x="252" y="154"/>
      <point x="182" y="196"/>
      <point x="142" y="249" type="curve"/>
      <point x="213" y="315"/>
      <point x="313" y="394"/>
      <point x="313" y="424" type="curve" smooth="yes"/>
    </contour>
    <contour>
      <point x="535" y="442"/>
      <point x="506" y="455"/>
      <point x="482" y="455" type="curve" smooth="yes"/>
      <point x="459" y="455"/>
      <point x="447" y="452"/>
      <point x="361" y="362" type="curve" smooth="yes"/>
      <point x="297" y="294"/>
      <point x="263" y="265"/>
      <point x="263" y="233" type="curve" smooth="yes"/>
      <point x="263" y="197"/>
      <point x="397" y="61"/>
      <point x="416" y="61" type="curve" smooth="yes"/>
      <point x="442" y="61"/>
      <point x="474" y="91"/>
      <point x="474" y="124" type="curve" smooth="yes"/>
      <point x="474" y="141"/>
      <point x="404" y="183"/>
      <point x="364" y="236" type="curve"/>
      <point x="435" y="302"/>
      <point x="535" y="381"/>
      <point x="535" y="411" type="curve" smooth="yes"/>
    </contour>
  </outline>
</glyph>
<glyph name="logicalnot" format="1">
  <advance width="572"/>
  <unicode hex="00AC"/>
  <outline>
    <contour>
      <point x="90" y="305"/>
      <point x="123" y="305"/>
      <point x="167" y="305" type="curve" smooth="yes"/>
      <point x="240" y="305"/>
      <point x="339" y="306"/>
      <point x="428" y="307" type="curve" smooth="yes"/>
      <point x="440" y="307" type="line"/>
      <point x="422" y="245"/>
      <point x="413" y="181"/>
      <point x="405" y="136" type="curve" smooth="yes"/>
      <point x="403" y="125" type="line"/>
      <point x="409" y="113"/>
      <point x="427" y="102"/>
      <point x="444" y="102" type="curve" smooth="yes"/>
      <point x="467" y="102"/>
      <point x="490" y="124"/>
      <point x="500" y="144" type="curve"/>
      <point x="513" y="210"/>
      <point x="520" y="273"/>
      <point x="540" y="334" type="curve" smooth="yes"/>
      <point x="541" y="337"/>
      <point x="542" y="340"/>
      <point x="542" y="343" type="curve" smooth="yes"/>
      <point x="542" y="365"/>
      <point x="514" y="387"/>
      <point x="489" y="392" type="curve" smooth="yes"/>
      <point x="483" y="393"/>
      <point x="477" y="393"/>
      <point x="470" y="393" type="curve" smooth="yes"/>
      <point x="149" y="393" type="line" smooth="yes"/>
      <point x="100" y="393"/>
      <point x="84" y="384"/>
      <point x="75" y="354" type="curve" smooth="yes"/>
      <point x="72" y="345"/>
      <point x="70" y="335"/>
      <point x="70" y="327" type="curve" smooth="yes"/>
      <point x="70" y="317"/>
      <point x="73" y="309"/>
      <point x="81" y="307" type="curve" smooth="yes"/>
    </contour>
  </outline>
</glyph>
<glyph name="softhyphen" format="1">
  <advance width="464"/>
  <unicode hex="00AD"/>
  <outline>
    <contour>
      <point x="400" y="216"/>
      <point x="422" y="236"/>
      <point x="422" y="265" type="curve" smooth="yes"/>
      <point x="422" y="270" type="line"/>
      <point x="419" y="296"/>
      <point x="399" y="320"/>
      <point x="366" y="320" type="curve" smooth="yes"/>
      <point x="360" y="320" type="line"/>
      <point x="327" y="317"/>
      <point x="281" y="309"/>
      <point x="244" y="305" type="curve" smooth="yes"/>
      <point x="139" y="295" type="line" smooth="yes"/>
      <point x="80" y="289"/>
      <point x="63" y="268"/>
      <point x="63" y="236" type="curve" smooth="yes"/>
      <point x="63" y="232"/>
      <point x="64" y="228"/>
      <point x="64" y="224" type="curve"/>
      <point x="67" y="201"/>
      <point x="86" y="180"/>
      <point x="118" y="180" type="curve" smooth="yes"/>
      <point x="124" y="180" type="line"/>
      <point x="230" y="190"/>
      <point x="323" y="201"/>
      <point x="364" y="208" type="curve"/>
    </contour>
  </outline>
</glyph>
<glyph name="registered" format="1">
  <advance width="843"/>
  <unicode hex="00AE"/>
  <outline>
    <contour>
      <point x="230" y="433"/>
      <point x="237" y="422"/>
      <point x="262" y="406" type="curve"/>
      <point x="300" y="424" type="line"/>
      <point x="241" y="198"/>
      <point x="237" y="171"/>
      <point x="237" y="168" type="curve" smooth="yes"/>
      <point x="237" y="134"/>
      <point x="255" y="123"/>
      <point x="289" y="123" type="curve" smooth="yes"/>
      <point x="332" y="123"/>
      <point x="342" y="150"/>
      <point x="349" y="178" type="curve" smooth="yes"/>
      <point x="376" y="283" type="line"/>
      <point x="407" y="213"/>
      <point x="450" y="150"/>
      <point x="509" y="126" type="curve" smooth="yes"/>
      <point x="517" y="123"/>
      <point x="524" y="121"/>
      <point x="531" y="121" type="curve" smooth="yes"/>
      <point x="546" y="121"/>
      <point x="557" y="128"/>
      <point x="567" y="132" type="curve"/>
      <point x="582" y="137"/>
      <point x="592" y="146"/>
      <point x="592" y="160" type="curve" smooth="yes"/>
      <point x="592" y="181"/>
      <point x="567" y="209"/>
      <point x="553" y="212" type="curve"/>
      <point x="544" y="212" type="line" smooth="yes"/>
      <point x="536" y="212"/>
      <point x="501" y="252"/>
      <point x="461" y="290" type="curve"/>
      <point x="526" y="298"/>
      <point x="587" y="347"/>
      <point x="587" y="421" type="curve" smooth="yes"/>
      <point x="587" y="474"/>
      <point x="539" y="536"/>
      <point x="453" y="536" type="curve" smooth="yes"/>
      <point x="439" y="536"/>
      <point x="424" y="535"/>
      <point x="410" y="531" type="curve"/>
      <point x="404" y="536"/>
      <point x="393" y="541"/>
      <point x="380" y="541" type="curve" smooth="yes"/>
      <point x="353" y="541"/>
      <point x="337" y="528"/>
      <point x="326" y="513" type="curve"/>
      <point x="300" y="504"/>
      <point x="230" y="478"/>
      <point x="230" y="449" type="curve" smooth="yes"/>
    </contour>
    <contour>
      <point x="414" y="451" type="line"/>
      <point x="423" y="454"/>
      <point x="433" y="455"/>
      <point x="442" y="455" type="curve" smooth="yes"/>
      <point x="471" y="455"/>
      <point x="487" y="430"/>
      <point x="487" y="413" type="curve" smooth="yes"/>
      <point x="487" y="376"/>
      <point x="433" y="347"/>
      <point x="392" y="346" type="curve"/>
    </contour>
    <contour>
      <point x="819" y="601"/>
      <point x="652" y="694"/>
      <point x="490" y="694" type="curve" smooth="yes"/>
      <point x="223" y="694"/>
      <point x="27" y="502"/>
      <point x="27" y="266" type="curve" smooth="yes"/>
      <point x="27" y="77"/>
      <point x="169" y="-16"/>
      <point x="382" y="-16" type="curve" smooth="yes"/>
      <point x="639" y="-16"/>
      <point x="819" y="157"/>
      <point x="819" y="399" type="curve" smooth="yes"/>
    </contour>
    <contour>
      <point x="225" y="75"/>
      <point x="136" y="151"/>
      <point x="136" y="269" type="curve" smooth="yes"/>
      <point x="136" y="478"/>
      <point x="327" y="604"/>
      <point x="483" y="604" type="curve" smooth="yes"/>
      <point x="601" y="604"/>
      <point x="711" y="528"/>
      <point x="711" y="389" type="curve" smooth="yes"/>
      <point x="711" y="232"/>
      <point x="606" y="75"/>
      <point x="416" y="75" type="curve" smooth="yes"/>
    </contour>
  </outline>
</glyph>
<glyph name="macron" format="1">
  <advance width="500"/>
  <unicode hex="00AF"/>
  <outline>
    <contour>
      <point x="465" y="541"/>
      <point x="477" y="567"/>
      <point x="477" y="597" type="curve" smooth="yes"/>
      <point x="477" y="617"/>
      <point x="470" y="634"/>
      <point x="455" y="634" type="curve" smooth="yes"/>
      <point x="112" y="634" type="line" smooth="yes"/>
      <point x="89" y="634"/>
      <point x="70" y="598"/>
      <point x="70" y="567" type="curve" smooth="yes"/>
      <point x="70" y="551"/>
      <point x="82" y="519"/>
      <point x="95" y="519" type="curve"/>
      <point x="95" y="519"/>
      <point x="290" y="531"/>
      <point x="444" y="540" type="curve" smooth="yes"/>
    </contour>
  </outline>
</glyph>
<glyph name="degree" format="1">
  <advance width="428"/>
  <unicode hex="00B0"/>
  <outline>
    <contour>
      <point x="344" y="418"/>
      <point x="440" y="488"/>
      <point x="440" y="578" type="curve" smooth="yes"/>
      <point x="440" y="666"/>
      <point x="373" y="724"/>
      <point x="306" y="724" type="curve" smooth="yes"/>
      <point x="188" y="724"/>
      <point x="102" y="658"/>
      <point x="102" y="556" type="curve" smooth="yes"/>
      <point x="102" y="481"/>
      <point x="152" y="418"/>
      <point x="237" y="418" type="curve" smooth="yes"/>
    </contour>
    <contour>
      <point x="229" y="493"/>
      <point x="195" y="513"/>
      <point x="195" y="550" type="curve" smooth="yes"/>
      <point x="195" y="614"/>
      <point x="230" y="642"/>
      <point x="288" y="642" type="curve" smooth="yes"/>
      <point x="318" y="642"/>
      <point x="342" y="620"/>
      <point x="342" y="585" type="curve" smooth="yes"/>
      <point x="342" y="522"/>
      <point x="296" y="493"/>
      <point x="255" y="493" type="curve" smooth="yes"/>
    </contour>
  </outline>
</glyph>
<glyph name="plusminus" format="1">
  <advance width="562"/>
  <unicode hex="00B1"/>
  <outline>
    <contour>
      <point x="575" y="401"/>
      <point x="545" y="405"/>
      <point x="516" y="405" type="curve" smooth="yes"/>
      <point x="503" y="405"/>
      <point x="401" y="397"/>
      <point x="372" y="394" type="curve"/>
      <point x="378" y="422"/>
      <point x="392" y="478"/>
      <point x="392" y="491" type="curve" smooth="yes"/>
      <point x="392" y="518"/>
      <point x="373" y="532"/>
      <point x="335" y="532" type="curve" smooth="yes"/>
      <point x="311" y="532"/>
      <point x="278" y="515"/>
      <point x="268" y="483" type="curve" smooth="yes"/>
      <point x="253" y="436"/>
      <point x="253" y="426"/>
      <point x="244" y="388" type="curve"/>
      <point x="123" y="378"/>
      <point x="106" y="376"/>
      <point x="82" y="373" type="curve" smooth="yes"/>
      <point x="43" y="368"/>
      <point x="24" y="350"/>
      <point x="24" y="315" type="curve" smooth="yes"/>
      <point x="24" y="284"/>
      <point x="41" y="277"/>
      <point x="62" y="277" type="curve" smooth="yes"/>
      <point x="77" y="277"/>
      <point x="95" y="278"/>
      <point x="109" y="279" type="curve" smooth="yes"/>
      <point x="220" y="288" type="line"/>
      <point x="195" y="172" type="line"/>
      <point x="195" y="170"/>
      <point x="194" y="168"/>
      <point x="194" y="166" type="curve" smooth="yes"/>
      <point x="194" y="144"/>
      <point x="224" y="133"/>
      <point x="256" y="133" type="curve" smooth="yes"/>
      <point x="287" y="133"/>
      <point x="322" y="146"/>
      <point x="329" y="178" type="curve" smooth="yes"/>
      <point x="335" y="204"/>
      <point x="344" y="255"/>
      <point x="351" y="290" type="curve"/>
      <point x="505" y="304" type="line" smooth="yes"/>
      <point x="540" y="307"/>
      <point x="575" y="321"/>
      <point x="575" y="353" type="curve" smooth="yes"/>
    </contour>
    <contour>
      <point x="92" y="89" type="line" smooth="yes"/>
      <point x="4" y="82"/>
      <point x="1" y="50"/>
      <point x="1" y="26" type="curve" smooth="yes"/>
      <point x="1" y="-7"/>
      <point x="25" y="-13"/>
      <point x="48" y="-13" type="curve" smooth="yes"/>
      <point x="63" y="-13"/>
      <point x="79" y="-12"/>
      <point x="93" y="-11" type="curve" smooth="yes"/>
      <point x="408" y="16" type="line" smooth="yes"/>
      <point x="445" y="19"/>
      <point x="474" y="38"/>
      <point x="474" y="73" type="curve" smooth="yes"/>
      <point x="474" y="80" type="line" smooth="yes"/>
      <point x="474" y="105"/>
      <point x="455" y="117"/>
      <point x="424" y="117" type="curve"/>
    </contour>
  </outline>
</glyph>
<glyph name="twosuperior" format="1">
  <advance width="393"/>
  <unicode hex="00B2"/>
  <outline>
    <contour>
      <point x="251" y="535"/>
      <point x="183" y="493"/>
      <point x="79" y="398" type="curve" smooth="yes"/>
      <point x="52" y="373"/>
      <point x="30" y="348"/>
      <point x="30" y="314" type="curve" smooth="yes"/>
      <point x="30" y="278"/>
      <point x="56" y="262"/>
      <point x="95" y="262" type="curve" smooth="yes"/>
      <point x="154" y="262"/>
      <point x="200" y="277"/>
      <point x="272" y="281" type="curve" smooth="yes"/>
      <point x="326" y="284"/>
      <point x="336" y="332"/>
      <point x="336" y="349" type="curve" smooth="yes"/>
      <point x="336" y="365"/>
      <point x="318" y="378"/>
      <point x="292" y="378" type="curve" smooth="yes"/>
      <point x="270" y="378"/>
      <point x="211" y="370"/>
      <point x="174" y="365" type="curve"/>
      <point x="192" y="380" type="line" smooth="yes"/>
      <point x="260" y="436"/>
      <point x="362" y="508"/>
      <point x="362" y="573" type="curve" smooth="yes"/>
      <point x="362" y="627"/>
      <point x="311" y="670"/>
      <point x="235" y="670" type="curve" smooth="yes"/>
      <point x="146" y="670"/>
      <point x="72" y="614"/>
      <point x="72" y="569" type="curve" smooth="yes"/>
      <point x="72" y="537"/>
      <point x="96" y="519"/>
      <point x="132" y="519" type="curve" smooth="yes"/>
      <point x="166" y="519"/>
      <point x="169" y="532"/>
      <point x="173" y="550" type="curve" smooth="yes"/>
      <point x="178" y="574"/>
      <point x="207" y="581"/>
      <point x="230" y="581" type="curve" smooth="yes"/>
      <point x="242" y="581"/>
      <point x="251" y="576"/>
      <point x="251" y="567" type="curve" smooth="yes"/>
    </contour>
  </outline>
</glyph>
<glyph name="threesuperior" format="1">
  <advance width="371"/>
  <unicode hex="00B3"/>
  <outline>
    <contour>
      <point x="331" y="438"/>
      <point x="315" y="478"/>
      <point x="261" y="481" type="curve"/>
      <point x="321" y="504"/>
      <point x="333" y="541"/>
      <point x="333" y="572" type="curve" smooth="yes"/>
      <point x="333" y="627"/>
      <point x="288" y="668"/>
      <point x="211" y="668" type="curve" smooth="yes"/>
      <point x="141" y="668"/>
      <point x="53" y="613"/>
      <point x="53" y="567" type="curve" smooth="yes"/>
      <point x="53" y="535"/>
      <point x="71" y="518"/>
      <point x="108" y="518" type="curve" smooth="yes"/>
      <point x="142" y="518"/>
      <point x="145" y="532"/>
      <point x="148" y="549" type="curve" smooth="yes"/>
      <point x="152" y="571"/>
      <point x="184" y="584"/>
      <point x="205" y="584" type="curve" smooth="yes"/>
      <point x="219" y="584"/>
      <point x="231" y="576"/>
      <point x="231" y="569" type="curve" smooth="yes"/>
      <point x="231" y="511"/>
      <point x="101" y="514"/>
      <point x="101" y="454" type="curve" smooth="yes"/>
      <point x="101" y="425"/>
      <point x="131" y="423"/>
      <point x="157" y="423" type="curve" smooth="yes"/>
      <point x="168" y="423"/>
      <point x="181" y="435"/>
      <point x="191" y="439" type="curve"/>
      <point x="213" y="434"/>
      <point x="229" y="419"/>
      <point x="229" y="406" type="curve" smooth="yes"/>
      <point x="229" y="378"/>
      <point x="201" y="341"/>
      <point x="154" y="341" type="curve" smooth="yes"/>
      <point x="127" y="341"/>
      <point x="104" y="383"/>
      <point x="72" y="383" type="curve" smooth="yes"/>
      <point x="43" y="383"/>
      <point x="26" y="366"/>
      <point x="26" y="342" type="curve" smooth="yes"/>
      <point x="26" y="292"/>
      <point x="87" y="257"/>
      <point x="147" y="257" type="curve" smooth="yes"/>
      <point x="239" y="257"/>
      <point x="331" y="313"/>
      <point x="331" y="413" type="curve" smooth="yes"/>
    </contour>
  </outline>
</glyph>
<glyph name="acute" format="1">
  <advance width="580"/>
  <unicode hex="00B4"/>
  <outline>
    <contour>
      <point x="180" y="612"/>
      <point x="179" y="608"/>
      <point x="179" y="603" type="curve" smooth="yes"/>
      <point x="179" y="580"/>
      <point x="191" y="572"/>
      <point x="216" y="572" type="curve" smooth="yes"/>
      <point x="253" y="572"/>
      <point x="291" y="595"/>
      <point x="367" y="648" type="curve" smooth="yes"/>
      <point x="419" y="684"/>
      <point x="438" y="698"/>
      <point x="438" y="717" type="curve" smooth="yes"/>
      <point x="438" y="738"/>
      <point x="390" y="771"/>
      <point x="363" y="771" type="curve" smooth="yes"/>
      <point x="339" y="771"/>
      <point x="210" y="658"/>
      <point x="182" y="615" type="curve" smooth="yes"/>
    </contour>
  </outline>
</glyph>
<glyph name="paragraph" format="1">
  <advance width="655"/>
  <unicode hex="00B6"/>
  <outline>
    <contour>
      <point x="389" y="-75" type="line"/>
      <point x="388" y="-78"/>
      <point x="388" y="-81"/>
      <point x="388" y="-84" type="curve" smooth="yes"/>
      <point x="388" y="-105"/>
      <point x="401" y="-157"/>
      <point x="435" y="-157" type="curve" smooth="yes"/>
      <point x="474" y="-157"/>
      <point x="473" y="-141"/>
      <point x="481" y="-108" type="curve" smooth="yes"/>
      <point x="640" y="531" type="line" smooth="yes"/>
      <point x="645" y="553"/>
      <point x="648" y="573"/>
      <point x="648" y="592" type="curve" smooth="yes"/>
      <point x="648" y="680"/>
      <point x="593" y="752"/>
      <point x="459" y="752" type="curve" smooth="yes"/>
      <point x="268" y="752"/>
      <point x="150" y="695"/>
      <point x="80" y="428" type="curve" smooth="yes"/>
      <point x="77" y="417"/>
      <point x="76" y="406"/>
      <point x="76" y="396" type="curve" smooth="yes"/>
      <point x="76" y="320"/>
      <point x="152" y="264"/>
      <point x="246" y="264" type="curve" smooth="yes"/>
      <point x="258" y="264"/>
      <point x="275" y="265"/>
      <point x="289" y="267" type="curve"/>
      <point x="213" y="-75" type="line"/>
      <point x="212" y="-78"/>
      <point x="212" y="-81"/>
      <point x="212" y="-84" type="curve" smooth="yes"/>
      <point x="212" y="-105"/>
      <point x="225" y="-157"/>
      <point x="259" y="-157" type="curve" smooth="yes"/>
      <point x="298" y="-157"/>
      <point x="297" y="-141"/>
      <point x="305" y="-108" type="curve" smooth="yes"/>
      <point x="463" y="530"/>
      <point x="462" y="529"/>
      <point x="462" y="529" type="curve"/>
      <point x="463" y="529"/>
      <point x="490" y="547"/>
      <point x="508" y="547" type="curve" smooth="yes"/>
      <point x="517" y="547"/>
      <point x="524" y="543"/>
      <point x="524" y="530" type="curve" smooth="yes"/>
      <point x="524" y="528"/>
      <point x="523" y="526"/>
      <point x="523" y="523" type="curve"/>
    </contour>
  </outline>
</glyph>
<glyph name="periodcentered" format="1">
  <advance width="268"/>
  <unicode hex="00B7"/>
  <outline>
    <contour>
      <point x="72" y="310"/>
      <point x="94" y="285"/>
      <point x="133" y="285" type="curve" smooth="yes"/>
      <point x="173" y="285"/>
      <point x="196" y="312"/>
      <point x="196" y="353" type="curve" smooth="yes"/>
      <point x="196" y="394"/>
      <point x="173" y="421"/>
      <point x="133" y="421" type="curve" smooth="yes"/>
      <point x="94" y="421"/>
      <point x="72" y="396"/>
      <point x="72" y="353" type="curve" smooth="yes"/>
    </contour>
  </outline>
</glyph>
<glyph name="cedilla" format="1">
  <advance width="225"/>
  <unicode hex="00B8"/>
  <outline>
    <contour>
      <point x="256" y="-99"/>
      <point x="203" y="-65"/>
      <point x="154" y="-65" type="curve" smooth="yes"/>
      <point x="143" y="-65"/>
      <point x="132" y="-66"/>
      <point x="120" y="-68" type="curve"/>
      <point x="133" y="-43"/>
      <point x="155" y="-10"/>
      <point x="170" y="10" type="curve"/>
      <point x="83" y="10" type="line"/>
      <point x="41" y="-46"/>
      <point x="13" y="-92"/>
      <point x="13" y="-115" type="curve" smooth="yes"/>
      <point x="13" y="-122"/>
      <point x="31" y="-128"/>
      <point x="71" y="-128" type="curve" smooth="yes"/>
      <point x="88" y="-128"/>
      <point x="103" y="-118"/>
      <point x="120" y="-118" type="curve" smooth="yes"/>
      <point x="141" y="-118"/>
      <point x="159" y="-127"/>
      <point x="159" y="-146" type="curve" smooth="yes"/>
      <point x="159" y="-172"/>
      <point x="134" y="-188"/>
      <point x="90" y="-188" type="curve" smooth="yes"/>
      <point x="55" y="-188"/>
      <point x="47" y="-163"/>
      <point x="4" y="-163" type="curve" smooth="yes"/>
      <point x="-18" y="-163"/>
      <point x="-36" y="-171"/>
      <point x="-36" y="-176" type="curve" smooth="yes"/>
      <point x="-36" y="-217"/>
      <point x="28" y="-250"/>
      <point x="82" y="-250" type="curve" smooth="yes"/>
      <point x="187" y="-250"/>
      <point x="256" y="-211"/>
      <point x="256" y="-140" type="curve" smooth="yes"/>
    </contour>
  </outline>
</glyph>
<glyph name="ordmasculine" format="1">
  <advance width="371"/>
  <unicode hex="00BA"/>
  <outline>
    <contour>
      <point x="258" y="313"/>
      <point x="343" y="430"/>
      <point x="343" y="521" type="curve" smooth="yes"/>
      <point x="343" y="618"/>
      <point x="286" y="663"/>
      <point x="217" y="663" type="curve" smooth="yes"/>
      <point x="109" y="663"/>
      <point x="26" y="567"/>
      <point x="26" y="460" type="curve" smooth="yes"/>
      <point x="26" y="378"/>
      <point x="73" y="313"/>
      <point x="158" y="313" type="curve" smooth="yes"/>
    </contour>
    <contour>
      <point x="153" y="402"/>
      <point x="137" y="420"/>
      <point x="137" y="445" type="curve" smooth="yes"/>
      <point x="137" y="496"/>
      <point x="165" y="572"/>
      <point x="206" y="572" type="curve" smooth="yes"/>
      <point x="224" y="572"/>
      <point x="231" y="560"/>
      <point x="231" y="538" type="curve" smooth="yes"/>
      <point x="231" y="476"/>
      <point x="197" y="402"/>
      <point x="166" y="402" type="curve" smooth="yes"/>
    </contour>
  </outline>
</glyph>
<glyph name="guillemetright" format="1">
  <advance width="509"/>
  <unicode hex="00BB"/>
  <outline>
    <contour>
      <point x="273" y="279" type="line" smooth="yes"/>
      <point x="273" y="292"/>
      <point x="261" y="302"/>
      <point x="247" y="317" type="curve" smooth="yes"/>
      <point x="128" y="446" type="line" smooth="yes"/>
      <point x="113" y="462"/>
      <point x="99" y="476"/>
      <point x="87" y="476" type="curve" smooth="yes"/>
      <point x="63" y="476"/>
      <point x="36" y="450"/>
      <point x="36" y="425" type="curve" smooth="yes"/>
      <point x="36" y="396"/>
      <point x="98" y="305"/>
      <point x="140" y="268" type="curve"/>
      <point x="-13" y="154" type="line" smooth="yes"/>
      <point x="-29" y="142"/>
      <point x="-38" y="123"/>
      <point x="-39" y="108" type="curve"/>
      <point x="-39" y="83"/>
      <point x="-23" y="63"/>
      <point x="7" y="63" type="curve" smooth="yes"/>
      <point x="14" y="63"/>
      <point x="27" y="64"/>
      <point x="34" y="72" type="curve"/>
      <point x="106" y="118"/>
      <point x="263" y="226"/>
      <point x="273" y="273" type="curve"/>
    </contour>
    <contour>
      <point x="497" y="279" type="line" smooth="yes"/>
      <point x="497" y="292"/>
      <point x="485" y="302"/>
      <point x="471" y="317" type="curve" smooth="yes"/>
      <point x="352" y="446" type="line" smooth="yes"/>
      <point x="337" y="462"/>
      <point x="323" y="476"/>
      <point x="311" y="476" type="curve" smooth="yes"/>
      <point x="287" y="476"/>
      <point x="260" y="450"/>
      <point x="260" y="425" type="curve" smooth="yes"/>
      <point x="260" y="396"/>
      <point x="322" y="305"/>
      <point x="364" y="268" type="curve"/>
      <point x="211" y="154" type="line" smooth="yes"/>
      <point x="195" y="142"/>
      <point x="186" y="123"/>
      <point x="185" y="108" type="curve"/>
      <point x="185" y="83"/>
      <point x="201" y="63"/>
      <point x="231" y="63" type="curve" smooth="yes"/>
      <point x="238" y="63"/>
      <point x="251" y="64"/>
      <point x="258" y="72" type="curve"/>
      <point x="330" y="118"/>
      <point x="487" y="226"/>
      <point x="497" y="273" type="curve"/>
    </contour>
  </outline>
</glyph>
<glyph name="onequarter" format="1">
  <advance width="790"/>
  <unicode hex="00BC"/>
  <outline>
    <contour>
      <point x="101" y="276"/>
      <point x="109" y="259"/>
      <point x="143" y="259" type="curve" smooth="yes"/>
      <point x="186" y="259"/>
      <point x="195" y="285"/>
      <point x="202" y="313" type="curve" smooth="yes"/>
      <point x="271" y="608" type="line"/>
      <point x="272" y="611"/>
      <point x="272" y="614"/>
      <point x="272" y="617" type="curve" smooth="yes"/>
      <point x="272" y="646"/>
      <point x="242" y="671"/>
      <point x="215" y="671" type="curve" smooth="yes"/>
      <point x="208" y="671"/>
      <point x="203" y="670"/>
      <point x="199" y="668" type="curve"/>
      <point x="111" y="610"/>
      <point x="65" y="579"/>
      <point x="52" y="561" type="curve"/>
      <point x="52" y="541"/>
      <point x="77" y="506"/>
      <point x="101" y="506" type="curve" smooth="yes"/>
      <point x="109" y="506"/>
      <point x="142" y="530"/>
      <point x="157" y="540" type="curve"/>
      <point x="105" y="323" type="line"/>
      <point x="103" y="316"/>
      <point x="101" y="308"/>
      <point x="101" y="303" type="curve" smooth="yes"/>
    </contour>
    <contour>
      <point x="174" y="-36"/>
      <point x="211" y="27"/>
      <point x="263" y="98" type="curve" smooth="yes"/>
      <point x="490" y="406"/>
      <point x="533" y="461"/>
      <point x="567" y="510" type="curve" smooth="yes"/>
      <point x="647" y="622" type="line" smooth="yes"/>
      <point x="656" y="634"/>
      <point x="665" y="657"/>
      <point x="665" y="676" type="curve" smooth="yes"/>
      <point x="665" y="691"/>
      <point x="659" y="703"/>
      <point x="641" y="703" type="curve" smooth="yes"/>
      <point x="619" y="703"/>
      <point x="600" y="693"/>
      <point x="577" y="667" type="curve" smooth="yes"/>
      <point x="516" y="599"/>
      <point x="131" y="78"/>
      <point x="95" y="17" type="curve" smooth="yes"/>
      <point x="92" y="12"/>
      <point x="90" y="6"/>
      <point x="90" y="0" type="curve" smooth="yes"/>
      <point x="90" y="-19"/>
      <point x="108" y="-36"/>
      <point x="136" y="-36" type="curve" smooth="yes"/>
    </contour>
    <contour>
      <point x="677" y="419"/>
      <point x="651" y="408"/>
      <point x="635" y="392" type="curve" smooth="yes"/>
      <point x="414" y="162" type="line" smooth="yes"/>
      <point x="404" y="151"/>
      <point x="400" y="141"/>
      <point x="400" y="132" type="curve" smooth="yes"/>
      <point x="400" y="91"/>
      <point x="420" y="86"/>
      <point x="448" y="86" type="curve" smooth="yes"/>
      <point x="464" y="86"/>
      <point x="528" y="89"/>
      <point x="572" y="93" type="curve"/>
      <point x="568" y="78"/>
      <point x="563" y="63"/>
      <point x="559" y="40" type="curve"/>
      <point x="558" y="37"/>
      <point x="558" y="34"/>
      <point x="558" y="31" type="curve" smooth="yes"/>
      <point x="558" y="-1"/>
      <point x="582" y="-7"/>
      <point x="604" y="-7" type="curve" smooth="yes"/>
      <point x="643" y="-7"/>
      <point x="662" y="11"/>
      <point x="669" y="40" type="curve" smooth="yes"/>
      <point x="684" y="104" type="line"/>
      <point x="718" y="106" type="line" smooth="yes"/>
      <point x="746" y="108"/>
      <point x="756" y="122"/>
      <point x="756" y="147" type="curve" smooth="yes"/>
      <point x="756" y="167"/>
      <point x="748" y="177"/>
      <point x="720" y="177" type="curve" smooth="yes"/>
      <point x="710" y="177"/>
      <point x="705" y="176"/>
      <point x="699" y="176" type="curve"/>
      <point x="712" y="239"/>
      <point x="727" y="299"/>
      <point x="745" y="367" type="curve"/>
      <point x="745" y="376" type="line" smooth="yes"/>
      <point x="745" y="404"/>
      <point x="733" y="419"/>
      <point x="695" y="419" type="curve" smooth="yes"/>
    </contour>
    <contour>
      <point x="584" y="166" type="line"/>
      <point x="572" y="166"/>
      <point x="536" y="160"/>
      <point x="527" y="160" type="curve"/>
      <point x="537" y="172"/>
      <point x="596" y="240"/>
      <point x="624" y="277" type="curve"/>
    </contour>
  </outline>
</glyph>
<glyph name="onehalf" format="1">
  <advance width="790"/>
  <unicode hex="00BD"/>
  <outline>
    <contour>
      <point x="101" y="276"/>
      <point x="109" y="259"/>
      <point x="143" y="259" type="curve" smooth="yes"/>
      <point x="186" y="259"/>
      <point x="195" y="285"/>
      <point x="202" y="313" type="curve" smooth="yes"/>
      <point x="271" y="608" type="line"/>
      <point x="272" y="611"/>
      <point x="272" y="614"/>
      <point x="272" y="617" type="curve" smooth="yes"/>
      <point x="272" y="646"/>
      <point x="242" y="671"/>
      <point x="215" y="671" type="curve" smooth="yes"/>
      <point x="208" y="671"/>
      <point x="203" y="670"/>
      <point x="199" y="668" type="curve"/>
      <point x="111" y="610"/>
      <point x="65" y="579"/>
      <point x="52" y="561" type="curve"/>
      <point x="52" y="541"/>
      <point x="77" y="506"/>
      <point x="101" y="506" type="curve" smooth="yes"/>
      <point x="109" y="506"/>
      <point x="142" y="530"/>
      <point x="157" y="540" type="curve"/>
      <point x="105" y="323" type="line"/>
      <point x="103" y="316"/>
      <point x="101" y="308"/>
      <point x="101" y="303" type="curve" smooth="yes"/>
    </contour>
    <contour>
      <point x="154" y="-36"/>
      <point x="191" y="27"/>
      <point x="243" y="98" type="curve" smooth="yes"/>
      <point x="470" y="406"/>
      <point x="513" y="461"/>
      <point x="547" y="510" type="curve" smooth="yes"/>
      <point x="627" y="622" type="line" smooth="yes"/>
      <point x="636" y="634"/>
      <point x="645" y="657"/>
      <point x="645" y="676" type="curve" smooth="yes"/>
      <point x="645" y="691"/>
      <point x="639" y="703"/>
      <point x="621" y="703" type="curve" smooth="yes"/>
      <point x="599" y="703"/>
      <point x="580" y="693"/>
      <point x="557" y="667" type="curve" smooth="yes"/>
      <point x="496" y="599"/>
      <point x="111" y="78"/>
      <point x="75" y="17" type="curve" smooth="yes"/>
      <point x="72" y="12"/>
      <point x="70" y="6"/>
      <point x="70" y="0" type="curve" smooth="yes"/>
      <point x="70" y="-19"/>
      <point x="88" y="-36"/>
      <point x="116" y="-36" type="curve" smooth="yes"/>
    </contour>
    <contour>
      <point x="663" y="265"/>
      <point x="595" y="223"/>
      <point x="491" y="128" type="curve" smooth="yes"/>
      <point x="464" y="103"/>
      <point x="442" y="78"/>
      <point x="442" y="44" type="curve" smooth="yes"/>
      <point x="442" y="8"/>
      <point x="468" y="-8"/>
      <point x="507" y="-8" type="curve" smooth="yes"/>
      <point x="566" y="-8"/>
      <point x="612" y="7"/>
      <point x="684" y="11" type="curve" smooth="yes"/>
      <point x="738" y="14"/>
      <point x="748" y="62"/>
      <point x="748" y="79" type="curve" smooth="yes"/>
      <point x="748" y="95"/>
      <point x="730" y="108"/>
      <point x="704" y="108" type="curve" smooth="yes"/>
      <point x="682" y="108"/>
      <point x="623" y="100"/>
      <point x="586" y="95" type="curve"/>
      <point x="604" y="110" type="line" smooth="yes"/>
      <point x="672" y="166"/>
      <point x="774" y="238"/>
      <point x="774" y="303" type="curve" smooth="yes"/>
      <point x="774" y="357"/>
      <point x="723" y="400"/>
      <point x="647" y="400" type="curve" smooth="yes"/>
      <point x="558" y="400"/>
      <point x="484" y="344"/>
      <point x="484" y="299" type="curve" smooth="yes"/>
      <point x="484" y="267"/>
      <point x="508" y="249"/>
      <point x="544" y="249" type="curve" smooth="yes"/>
      <point x="578" y="249"/>
      <point x="581" y="262"/>
      <point x="585" y="280" type="curve" smooth="yes"/>
      <point x="590" y="304"/>
      <point x="619" y="311"/>
      <point x="642" y="311" type="curve" smooth="yes"/>
      <point x="654" y="311"/>
      <point x="663" y="306"/>
      <point x="663" y="297" type="curve" smooth="yes"/>
    </contour>
  </outline>
</glyph>
<glyph name="threequarters" format="1">
  <advance width="790"/>
  <unicode hex="00BE"/>
  <outline>
    <contour>
      <point x="223" y="-36"/>
      <point x="260" y="27"/>
      <point x="312" y="98" type="curve" smooth="yes"/>
      <point x="539" y="406"/>
      <point x="582" y="461"/>
      <point x="616" y="510" type="curve" smooth="yes"/>
      <point x="696" y="622" type="line" smooth="yes"/>
      <point x="705" y="634"/>
      <point x="714" y="657"/>
      <point x="714" y="676" type="curve" smooth="yes"/>
      <point x="714" y="691"/>
      <point x="708" y="703"/>
      <point x="690" y="703" type="curve" smooth="yes"/>
      <point x="668" y="703"/>
      <point x="649" y="693"/>
      <point x="626" y="667" type="curve" smooth="yes"/>
      <point x="565" y="599"/>
      <point x="180" y="78"/>
      <point x="144" y="17" type="curve" smooth="yes"/>
      <point x="141" y="12"/>
      <point x="139" y="6"/>
      <point x="139" y="0" type="curve" smooth="yes"/>
      <point x="139" y="-19"/>
      <point x="157" y="-36"/>
      <point x="185" y="-36" type="curve" smooth="yes"/>
    </contour>
    <contour>
      <point x="696" y="419"/>
      <point x="670" y="408"/>
      <point x="654" y="392" type="curve" smooth="yes"/>
      <point x="433" y="162" type="line" smooth="yes"/>
      <point x="423" y="151"/>
      <point x="419" y="141"/>
      <point x="419" y="132" type="curve" smooth="yes"/>
      <point x="419" y="91"/>
      <point x="439" y="86"/>
      <point x="467" y="86" type="curve" smooth="yes"/>
      <point x="483" y="86"/>
      <point x="547" y="89"/>
      <point x="591" y="93" type="curve"/>
      <point x="587" y="78"/>
      <point x="582" y="63"/>
      <point x="578" y="40" type="curve"/>
      <point x="577" y="37"/>
      <point x="577" y="34"/>
      <point x="577" y="31" type="curve" smooth="yes"/>
      <point x="577" y="-1"/>
      <point x="601" y="-7"/>
      <point x="623" y="-7" type="curve" smooth="yes"/>
      <point x="662" y="-7"/>
      <point x="681" y="11"/>
      <point x="688" y="40" type="curve" smooth="yes"/>
      <point x="703" y="104" type="line"/>
      <point x="737" y="106" type="line" smooth="yes"/>
      <point x="765" y="108"/>
      <point x="775" y="122"/>
      <point x="775" y="147" type="curve" smooth="yes"/>
      <point x="775" y="167"/>
      <point x="767" y="177"/>
      <point x="739" y="177" type="curve" smooth="yes"/>
      <point x="729" y="177"/>
      <point x="724" y="176"/>
      <point x="718" y="176" type="curve"/>
      <point x="731" y="239"/>
      <point x="746" y="299"/>
      <point x="764" y="367" type="curve"/>
      <point x="764" y="376" type="line" smooth="yes"/>
      <point x="764" y="404"/>
      <point x="752" y="419"/>
      <point x="714" y="419" type="curve" smooth="yes"/>
    </contour>
    <contour>
      <point x="603" y="166" type="line"/>
      <point x="591" y="166"/>
      <point x="555" y="160"/>
      <point x="546" y="160" type="curve"/>
      <point x="556" y="172"/>
      <point x="615" y="240"/>
      <point x="643" y="277" type="curve"/>
    </contour>
    <contour>
      <point x="331" y="438"/>
      <point x="315" y="478"/>
      <point x="261" y="481" type="curve"/>
      <point x="321" y="504"/>
      <point x="333" y="541"/>
      <point x="333" y="572" type="curve" smooth="yes"/>
      <point x="333" y="627"/>
      <point x="288" y="668"/>
      <point x="211" y="668" type="curve" smooth="yes"/>
      <point x="141" y="668"/>
      <point x="53" y="613"/>
      <point x="53" y="567" type="curve" smooth="yes"/>
      <point x="53" y="535"/>
      <point x="71" y="518"/>
      <point x="108" y="518" type="curve" smooth="yes"/>
      <point x="142" y="518"/>
      <point x="145" y="532"/>
      <point x="148" y="549" type="curve" smooth="yes"/>
      <point x="152" y="571"/>
      <point x="184" y="584"/>
      <point x="205" y="584" type="curve" smooth="yes"/>
      <point x="219" y="584"/>
      <point x="231" y="576"/>
      <point x="231" y="569" type="curve" smooth="yes"/>
      <point x="231" y="511"/>
      <point x="101" y="514"/>
      <point x="101" y="454" type="curve" smooth="yes"/>
      <point x="101" y="425"/>
      <point x="131" y="423"/>
      <point x="157" y="423" type="curve" smooth="yes"/>
      <point x="168" y="423"/>
      <point x="181" y="435"/>
      <point x="191" y="439" type="curve"/>
      <point x="213" y="434"/>
      <point x="229" y="419"/>
      <point x="229" y="406" type="curve" smooth="yes"/>
      <point x="229" y="378"/>
      <point x="201" y="341"/>
      <point x="154" y="341" type="curve" smooth="yes"/>
      <point x="127" y="341"/>
      <point x="104" y="383"/>
      <point x="72" y="383" type="curve" smooth="yes"/>
      <point x="43" y="383"/>
      <point x="26" y="366"/>
      <point x="26" y="342" type="curve" smooth="yes"/>
      <point x="26" y="292"/>
      <point x="87" y="257"/>
      <point x="147" y="257" type="curve" smooth="yes"/>
      <point x="239" y="257"/>
      <point x="331" y="313"/>
      <point x="331" y="413" type="curve" smooth="yes"/>
    </contour>
  </outline>
</glyph>
<glyph name="questiondown" format="1">
  <advance width="503"/>
  <unicode hex="00BF"/>
  <outline>
    <contour>
      <point x="231" y="309"/>
      <point x="200" y="265"/>
      <point x="200" y="251" type="curve" smooth="yes"/>
      <point x="200" y="247"/>
      <point x="201" y="245"/>
      <point x="204" y="245" type="curve"/>
      <point x="254" y="243"/>
      <point x="263" y="232"/>
      <point x="263" y="215" type="curve" smooth="yes"/>
      <point x="263" y="196"/>
      <point x="226" y="168"/>
      <point x="198" y="149" type="curve" smooth="yes"/>
      <point x="87" y="75" type="line" smooth="yes"/>
      <point x="33" y="39"/>
      <point x="-21" y="-12"/>
      <point x="-21" y="-65" type="curve" smooth="yes"/>
      <point x="-21" y="-134"/>
      <point x="69" y="-175"/>
      <point x="173" y="-175" type="curve" smooth="yes"/>
      <point x="272" y="-175"/>
      <point x="371" y="-135"/>
      <point x="371" y="-96" type="curve" smooth="yes"/>
      <point x="371" y="-67"/>
      <point x="344" y="-32"/>
      <point x="307" y="-32" type="curve" smooth="yes"/>
      <point x="250" y="-32"/>
      <point x="261" y="-83"/>
      <point x="169" y="-83" type="curve" smooth="yes"/>
      <point x="142" y="-83"/>
      <point x="115" y="-69"/>
      <point x="115" y="-53" type="curve" smooth="yes"/>
      <point x="115" y="-24"/>
      <point x="132" y="-12"/>
      <point x="148" y="0" type="curve"/>
      <point x="285" y="90" type="line" smooth="yes"/>
      <point x="346" y="130"/>
      <point x="382" y="170"/>
      <point x="382" y="218" type="curve" smooth="yes"/>
      <point x="382" y="282"/>
      <point x="334" y="309"/>
      <point x="280" y="309" type="curve" smooth="yes"/>
    </contour>
    <contour>
      <point x="248" y="386"/>
      <point x="278" y="367"/>
      <point x="324" y="367" type="curve" smooth="yes"/>
      <point x="369" y="367"/>
      <point x="403" y="404"/>
      <point x="403" y="432" type="curve" smooth="yes"/>
      <point x="403" y="464"/>
      <point x="363" y="488"/>
      <point x="327" y="488" type="curve" smooth="yes"/>
      <point x="285" y="488"/>
      <point x="248" y="456"/>
      <point x="248" y="427" type="curve" smooth="yes"/>
    </contour>
  </outline>
</glyph>
<glyph name="Aacute" format="1">
  <advance width="656"/>
  <unicode hex="00C1"/>
  <outline>
    <contour>
      <point x="431" y="168"/>
      <point x="426" y="106"/>
      <point x="426" y="83" type="curve" smooth="yes"/>
      <point x="426" y="15"/>
      <point x="436" y="-18"/>
      <point x="501" y="-18" type="curve" smooth="yes"/>
      <point x="535" y="-18"/>
      <point x="560" y="16"/>
      <point x="564" y="45" type="curve"/>
      <point x="559" y="92"/>
      <point x="557" y="139"/>
      <point x="557" y="190" type="curve" smooth="yes"/>
      <point x="557" y="333"/>
      <point x="576" y="477"/>
      <point x="592" y="615" type="curve"/>
      <point x="592" y="645"/>
      <point x="587" y="665"/>
      <point x="519" y="665" type="curve" smooth="yes"/>
      <point x="476" y="665"/>
      <point x="432" y="640"/>
      <point x="406" y="608" type="curve" smooth="yes"/>
      <point x="302" y="480"/>
      <point x="231" y="388"/>
      <point x="160" y="283" type="curve"/>
      <point x="127" y="268"/>
      <point x="69" y="240"/>
      <point x="69" y="213" type="curve" smooth="yes"/>
      <point x="69" y="211"/>
      <point x="79" y="190"/>
      <point x="79" y="179" type="curve"/>
      <point x="11" y="99"/>
      <point x="-15" y="28"/>
      <point x="-17" y="28" type="curve"/>
      <point x="-17" y="11"/>
      <point x="15" y="-13"/>
      <point x="58" y="-13" type="curve" smooth="yes"/>
      <point x="84" y="-13"/>
      <point x="100" y="2"/>
      <point x="124" y="26" type="curve" smooth="yes"/>
      <point x="165" y="67"/>
      <point x="196" y="134"/>
      <point x="228" y="182" type="curve"/>
      <point x="304" y="200"/>
      <point x="364" y="210"/>
      <point x="437" y="222" type="curve"/>
    </contour>
    <contour>
      <point x="368" y="388"/>
      <point x="426" y="474"/>
      <point x="463" y="518" type="curve"/>
      <point x="454" y="474"/>
      <point x="447" y="399"/>
      <point x="442" y="318" type="curve"/>
      <point x="378" y="307"/>
      <point x="333" y="303"/>
      <point x="307" y="297" type="curve"/>
    </contour>
    <contour>
      <point x="498" y="778"/>
      <point x="497" y="774"/>
      <point x="497" y="769" type="curve" smooth="yes"/>
      <point x="497" y="746"/>
      <point x="509" y="738"/>
      <point x="534" y="738" type="curve" smooth="yes"/>
      <point x="571" y="738"/>
      <point x="609" y="761"/>
      <point x="685" y="814" type="curve" smooth="yes"/>
      <point x="737" y="850"/>
      <point x="756" y="864"/>
      <point x="756" y="883" type="curve" smooth="yes"/>
      <point x="756" y="904"/>
      <point x="708" y="937"/>
      <point x="681" y="937" type="curve" smooth="yes"/>
      <point x="657" y="937"/>
      <point x="528" y="824"/>
      <point x="500" y="781" type="curve" smooth="yes"/>
    </contour>
  </outline>
</glyph>
<glyph name="Acircumflex" format="1">
  <advance width="656"/>
  <unicode hex="00C2"/>
  <outline>
    <contour>
      <point x="431" y="168"/>
      <point x="426" y="106"/>
      <point x="426" y="83" type="curve" smooth="yes"/>
      <point x="426" y="15"/>
      <point x="436" y="-18"/>
      <point x="501" y="-18" type="curve" smooth="yes"/>
      <point x="535" y="-18"/>
      <point x="560" y="16"/>
      <point x="564" y="45" type="curve"/>
      <point x="559" y="92"/>
      <point x="557" y="139"/>
      <point x="557" y="190" type="curve" smooth="yes"/>
      <point x="557" y="333"/>
      <point x="576" y="477"/>
      <point x="592" y="615" type="curve"/>
      <point x="592" y="645"/>
      <point x="587" y="665"/>
      <point x="519" y="665" type="curve" smooth="yes"/>
      <point x="476" y="665"/>
      <point x="432" y="640"/>
      <point x="406" y="608" type="curve" smooth="yes"/>
      <point x="302" y="480"/>
      <point x="231" y="388"/>
      <point x="160" y="283" type="curve"/>
      <point x="127" y="268"/>
      <point x="69" y="240"/>
      <point x="69" y="213" type="curve" smooth="yes"/>
      <point x="69" y="211"/>
      <point x="79" y="190"/>
      <point x="79" y="179" type="curve"/>
      <point x="11" y="99"/>
      <point x="-15" y="28"/>
      <point x="-17" y="28" type="curve"/>
      <point x="-17" y="11"/>
      <point x="15" y="-13"/>
      <point x="58" y="-13" type="curve" smooth="yes"/>
      <point x="84" y="-13"/>
      <point x="100" y="2"/>
      <point x="124" y="26" type="curve" smooth="yes"/>
      <point x="165" y="67"/>
      <point x="196" y="134"/>
      <point x="228" y="182" type="curve"/>
      <point x="304" y="200"/>
      <point x="364" y="210"/>
      <point x="437" y="222" type="curve"/>
    </contour>
    <contour>
      <point x="368" y="388"/>
      <point x="426" y="474"/>
      <point x="463" y="518" type="curve"/>
      <point x="454" y="474"/>
      <point x="447" y="399"/>
      <point x="442" y="318" type="curve"/>
      <point x="378" y="307"/>
      <point x="333" y="303"/>
      <point x="307" y="297" type="curve"/>
    </contour>
    <contour>
      <point x="565" y="923"/>
      <point x="553" y="918"/>
      <point x="544" y="911" type="curve" smooth="yes"/>
      <point x="495" y="873"/>
      <point x="446" y="832"/>
      <point x="419" y="810" type="curve" smooth="yes"/>
      <point x="399" y="793"/>
      <point x="398" y="782"/>
      <point x="398" y="770" type="curve" smooth="yes"/>
      <point x="398" y="749"/>
      <point x="425" y="737"/>
      <point x="449" y="737" type="curve" smooth="yes"/>
      <point x="468" y="737"/>
      <point x="508" y="770"/>
      <point x="579" y="831" type="curve"/>
      <point x="634" y="765" type="line" smooth="yes"/>
      <point x="645" y="752"/>
      <point x="659" y="744"/>
      <point x="672" y="744" type="curve" smooth="yes"/>
      <point x="699" y="744"/>
      <point x="724" y="761"/>
      <point x="724" y="783" type="curve" smooth="yes"/>
      <point x="724" y="791"/>
      <point x="721" y="799"/>
      <point x="714" y="808" type="curve" smooth="yes"/>
      <point x="663" y="874" type="line" smooth="yes"/>
      <point x="630" y="917"/>
      <point x="614" y="923"/>
      <point x="589" y="923" type="curve" smooth="yes"/>
    </contour>
  </outline>
</glyph>
<glyph name="Atilde" format="1">
  <advance width="656"/>
  <unicode hex="00C3"/>
  <outline>
    <contour>
      <point x="431" y="168"/>
      <point x="426" y="106"/>
      <point x="426" y="83" type="curve" smooth="yes"/>
      <point x="426" y="15"/>
      <point x="436" y="-18"/>
      <point x="501" y="-18" type="curve" smooth="yes"/>
      <point x="535" y="-18"/>
      <point x="560" y="16"/>
      <point x="564" y="45" type="curve"/>
      <point x="559" y="92"/>
      <point x="557" y="139"/>
      <point x="557" y="190" type="curve" smooth="yes"/>
      <point x="557" y="333"/>
      <point x="576" y="477"/>
      <point x="592" y="615" type="curve"/>
      <point x="592" y="645"/>
      <point x="587" y="665"/>
      <point x="519" y="665" type="curve" smooth="yes"/>
      <point x="476" y="665"/>
      <point x="432" y="640"/>
      <point x="406" y="608" type="curve" smooth="yes"/>
      <point x="302" y="480"/>
      <point x="231" y="388"/>
      <point x="160" y="283" type="curve"/>
      <point x="127" y="268"/>
      <point x="69" y="240"/>
      <point x="69" y="213" type="curve" smooth="yes"/>
      <point x="69" y="211"/>
      <point x="79" y="190"/>
      <point x="79" y="179" type="curve"/>
      <point x="11" y="99"/>
      <point x="-15" y="28"/>
      <point x="-17" y="28" type="curve"/>
      <point x="-17" y="11"/>
      <point x="15" y="-13"/>
      <point x="58" y="-13" type="curve" smooth="yes"/>
      <point x="84" y="-13"/>
      <point x="100" y="2"/>
      <point x="124" y="26" type="curve" smooth="yes"/>
      <point x="165" y="67"/>
      <point x="196" y="134"/>
      <point x="228" y="182" type="curve"/>
      <point x="304" y="200"/>
      <point x="364" y="210"/>
      <point x="437" y="222" type="curve"/>
    </contour>
    <contour>
      <point x="368" y="388"/>
      <point x="426" y="474"/>
      <point x="463" y="518" type="curve"/>
      <point x="454" y="474"/>
      <point x="447" y="399"/>
      <point x="442" y="318" type="curve"/>
      <point x="378" y="307"/>
      <point x="333" y="303"/>
      <point x="307" y="297" type="curve"/>
    </contour>
    <contour>
      <point x="504" y="781"/>
      <point x="522" y="775"/>
      <point x="548" y="754" type="curve"/>
      <point x="579" y="734"/>
      <point x="601" y="722"/>
      <point x="634" y="722" type="curve" smooth="yes"/>
      <point x="662" y="722"/>
      <point x="737" y="768"/>
      <point x="737" y="829" type="curve" smooth="yes"/>
      <point x="737" y="836"/>
      <point x="736" y="838"/>
      <point x="735" y="838" type="curve" smooth="yes"/>
      <point x="732" y="838"/>
      <point x="729" y="848"/>
      <point x="722" y="848" type="curve" smooth="yes"/>
      <point x="720" y="848"/>
      <point x="716" y="847"/>
      <point x="713" y="844" type="curve"/>
      <point x="695" y="828"/>
      <point x="679" y="807"/>
      <point x="656" y="807" type="curve" smooth="yes"/>
      <point x="634" y="807"/>
      <point x="616" y="814"/>
      <point x="590" y="834" type="curve" smooth="yes"/>
      <point x="560" y="857"/>
      <point x="529" y="869"/>
      <point x="500" y="869" type="curve" smooth="yes"/>
      <point x="452" y="869"/>
      <point x="375" y="818"/>
      <point x="375" y="776" type="curve" smooth="yes"/>
      <point x="375" y="738"/>
      <point x="383" y="730"/>
      <point x="397" y="722" type="curve"/>
      <point x="429" y="757"/>
      <point x="460" y="781"/>
      <point x="484" y="781" type="curve" smooth="yes"/>
    </contour>
  </outline>
</glyph>
